<?xml version="1.0" encoding="UTF-8" standalone="no"?>
<!DOCTYPE svg PUBLIC "-//W3C//DTD SVG 1.1//EN" "http://www.w3.org/Graphics/SVG/1.1/DTD/svg11.dtd">
<svg width="100%" height="100%" viewBox="0 0 107 78" version="1.1" xmlns="http://www.w3.org/2000/svg" xmlns:xlink="http://www.w3.org/1999/xlink" xml:space="preserve" xmlns:serif="http://www.serif.com/" style="fill-rule:evenodd;clip-rule:evenodd;stroke-linejoin:round;stroke-miterlimit:2;">
    <g transform="matrix(1,0,0,1,-484,-383)">
        <path d="M561.022,403.417L561.022,392.53C561.022,390.003 560.018,387.579 558.231,385.791C556.444,384.004 554.02,383 551.492,383L523.447,383C520.924,383.007 518.506,384.014 516.724,385.8C514.943,387.587 513.942,390.007 513.942,392.53L513.942,403.432C513.933,405.954 512.924,408.368 511.138,410.148C509.352,411.928 506.933,412.927 504.412,412.927L493.53,412.927C491.003,412.927 488.579,413.931 486.791,415.718C485.004,417.505 484,419.929 484,422.457L484,450.502C484,453.03 485.004,455.454 486.791,457.241C488.579,459.028 491.003,460.032 493.53,460.032L581.47,460.032C583.997,460.032 586.421,459.028 588.209,457.241C589.996,455.454 591,453.03 591,450.502L591,422.457C591,419.929 589.996,417.505 588.209,415.718C586.421,413.931 583.997,412.927 581.47,412.927L570.553,412.927C568.028,412.927 565.607,411.925 563.821,410.143C562.034,408.36 561.028,405.941 561.022,403.417Z" style="fill:rgb(240,109,65);fill-rule:nonzero;"/>
    </g>
    <g transform="matrix(1,0,0,1,-484,-383)">
        <path d="M524.102,421.381C523.999,421.379 523.899,421.355 523.806,421.31C523.728,421.271 523.658,421.217 523.6,421.151C523.542,421.086 523.498,421.009 523.471,420.926C523.443,420.843 523.433,420.755 523.439,420.667C523.446,420.58 523.471,420.495 523.511,420.417L526.448,414.533C526.503,414.425 526.586,414.334 526.688,414.269C526.79,414.205 526.908,414.169 527.029,414.166C527.15,414.163 527.27,414.193 527.375,414.253C527.48,414.313 527.567,414.401 527.626,414.507L530.894,420.392C530.973,420.546 530.989,420.725 530.939,420.891C530.888,421.057 530.775,421.196 530.624,421.281C530.472,421.365 530.294,421.386 530.126,421.341C529.959,421.296 529.815,421.188 529.726,421.039L527.075,416.261L524.704,421.014C524.647,421.124 524.561,421.217 524.454,421.282C524.348,421.346 524.226,421.381 524.102,421.381Z" style="fill-rule:nonzero;"/>
    </g>
    <g transform="matrix(1,0,0,1,-484,-383)">
        <path d="M544.683,421.381C544.58,421.379 544.479,421.355 544.387,421.31C544.308,421.271 544.238,421.217 544.18,421.152C544.122,421.086 544.078,421.009 544.05,420.926C544.022,420.843 544.011,420.756 544.017,420.668C544.023,420.581 544.047,420.496 544.086,420.417L547.028,414.533C547.083,414.425 547.166,414.334 547.268,414.27C547.371,414.205 547.488,414.169 547.609,414.166C547.728,414.167 547.844,414.199 547.946,414.259C548.048,414.319 548.132,414.404 548.191,414.507L551.454,420.392C551.497,420.468 551.525,420.551 551.536,420.638C551.546,420.725 551.54,420.812 551.516,420.896C551.492,420.98 551.452,421.059 551.397,421.127C551.343,421.196 551.276,421.252 551.199,421.294C551.045,421.381 550.863,421.402 550.693,421.354C550.523,421.307 550.378,421.193 550.292,421.039L547.64,416.262L545.264,421.014C545.209,421.122 545.126,421.213 545.024,421.277C544.921,421.342 544.803,421.378 544.683,421.381Z" style="fill-rule:nonzero;"/>
    </g>
    <g transform="matrix(1,0,0,1,-484,-383)">
        <path d="M537.615,428.841C534.938,428.841 532.766,426.414 532.766,423.426C532.766,420.438 534.943,418.026 537.615,418.026C540.287,418.026 542.464,420.458 542.464,423.441C542.464,426.424 540.292,428.841 537.615,428.841ZM537.615,419.347C535.677,419.347 534.097,421.177 534.097,423.426C534.097,425.675 535.677,427.505 537.615,427.505C539.553,427.505 541.133,425.675 541.133,423.426C541.133,421.177 539.532,419.347 537.615,419.347Z" style="fill-rule:nonzero;"/>
    </g>
</svg>
