<svg width="174" height="65" viewBox="0 0 174 65" fill="none" xmlns="http://www.w3.org/2000/svg">
<path d="M50.4821 19.3717C50.4847 21.7929 49.9449 24.1839 48.9024 26.3689C47.8599 28.5539 46.3412 30.4775 44.4579 31.998V31.998L1.14454 7.40186C0.978871 7.30741 0.82516 7.19335 0.686727 7.06215C0.469521 6.84915 0.296922 6.59498 0.179012 6.31449C0.0611021 6.03399 0.000246309 5.7328 0 5.42851C0 4.82113 0.241171 4.23862 0.670459 3.80914C1.09975 3.37965 1.68199 3.13837 2.28909 3.13837H34.2562C38.5596 3.13837 42.6867 4.84866 45.7296 7.893C48.7726 10.9373 50.4821 15.0664 50.4821 19.3717V19.3717Z" fill="#18B4F4"/>
<path d="M50.4809 44.6246C50.4814 46.7567 50.0621 48.868 49.2469 50.838C48.4317 52.8079 47.2366 54.5979 45.7299 56.1057C44.2231 57.6136 42.4342 58.8096 40.4653 59.6257C38.4965 60.4417 36.3862 60.8617 34.2551 60.8617H2.28796C1.83514 60.8569 1.39393 60.7177 1.02015 60.4619C0.646379 60.2062 0.356837 59.8452 0.18816 59.4247C0.0194821 59.0043 -0.0207518 58.5432 0.0725482 58.0999C0.165848 57.6565 0.38849 57.2508 0.712304 56.9341V56.9341C0.841375 56.8045 0.986214 56.6917 1.14342 56.5982L18.1895 46.9185L44.453 32.002C46.3361 33.5222 47.8549 35.445 48.898 37.6293C49.9411 39.8136 50.482 42.2038 50.4809 44.6246V44.6246Z" fill="#FD6B3C"/>
<path d="M44.4579 31.9982L18.1906 46.9185L1.14452 56.5982C0.980845 56.6891 0.82954 56.8007 0.694336 56.9302C7.19387 50.261 10.8279 41.3127 10.8197 31.9982C10.832 22.6824 7.19895 13.7319 0.698151 7.06226C0.836584 7.19345 0.990295 7.30751 1.15597 7.40196L44.4579 31.9982Z" fill="#A97FF2"/>
<path d="M86.0908 19.2258V44.8925" stroke="#BEBEBE" stroke-width="3.66667" stroke-linecap="round" stroke-linejoin="round"/>
<path d="M73.2588 32.059H98.9254" stroke="#BEBEBE" stroke-width="3.66667" stroke-linecap="round" stroke-linejoin="round"/>
<path d="M141.487 32.5105C141.487 27.136 145.983 22.7568 151.551 22.7568C157.097 22.7568 161.615 27.1139 161.615 32.5105C161.615 37.8849 157.12 42.2641 151.551 42.2641C146.006 42.2641 141.487 37.8849 141.487 32.5105Z" fill="#1ABCFE"/>
<path d="M121.382 51.9962C121.382 46.6217 125.878 42.2425 131.446 42.2425H141.51V51.9962C141.51 57.3707 137.014 61.7498 131.446 61.7498C125.878 61.7498 121.382 57.3928 121.382 51.9962Z" fill="#0ACF83"/>
<path d="M141.487 3.27207V22.7573H151.551C157.097 22.7573 161.615 18.4002 161.615 13.0036C161.615 7.62915 157.12 3.24995 151.551 3.24995H141.487V3.27207Z" fill="#FF7262"/>
<path d="M121.382 13.0259C121.382 18.4003 125.878 22.7795 131.446 22.7795H141.51V3.27219H131.446C125.878 3.27219 121.382 7.62927 121.382 13.0259Z" fill="#F24E1E"/>
<path d="M121.382 32.5105C121.382 37.8849 125.878 42.2641 131.446 42.2641H141.51V22.7568H131.446C125.878 22.7568 121.382 27.136 121.382 32.5105Z" fill="#A259FF"/>
</svg>
