<?xml version="1.0" encoding="UTF-8" standalone="no"?>
<!DOCTYPE svg PUBLIC "-//W3C//DTD SVG 1.1//EN" "http://www.w3.org/Graphics/SVG/1.1/DTD/svg11.dtd">
<svg width="100%" height="100%" viewBox="0 0 59 67" version="1.1" xmlns="http://www.w3.org/2000/svg" xmlns:xlink="http://www.w3.org/1999/xlink" xml:space="preserve" xmlns:serif="http://www.serif.com/" style="fill-rule:evenodd;clip-rule:evenodd;stroke-linejoin:round;stroke-miterlimit:2;">
    <g transform="matrix(0.919551,0,0,0.919551,-3.16036,-2.82228)">
        <path d="M64.595,24.842C64.598,27.653 63.972,30.428 62.762,32.964C61.552,35.5 59.789,37.733 57.603,39.498L7.328,10.949C7.136,10.839 6.958,10.707 6.797,10.554C6.545,10.307 6.345,10.012 6.208,9.687C6.071,9.361 6,9.011 6,8.658C6,7.953 6.28,7.277 6.778,6.779C7.276,6.28 7.952,6 8.657,6L45.762,6C50.757,6 55.547,7.985 59.079,11.519C62.611,15.052 64.595,19.845 64.595,24.842Z" style="fill:rgb(24,180,244);fill-rule:nonzero;"/>
    </g>
    <g transform="matrix(0.919551,0,0,0.919551,-3.16036,-2.82228)">
        <path d="M64.595,54.153C64.596,56.628 64.109,59.079 63.163,61.365C62.217,63.652 60.83,65.73 59.081,67.48C57.332,69.23 55.255,70.618 52.97,71.565C50.685,72.513 48.235,73 45.762,73L8.657,73C8.131,72.994 7.619,72.833 7.186,72.536C6.752,72.239 6.416,71.82 6.22,71.332C6.024,70.844 5.977,70.309 6.086,69.794C6.194,69.28 6.452,68.809 6.828,68.441C6.978,68.291 7.146,68.16 7.329,68.051L27.114,56.816L57.599,39.502C59.784,41.267 61.547,43.499 62.758,46.034C63.969,48.569 64.597,51.344 64.595,54.153Z" style="fill:rgb(253,107,60);fill-rule:nonzero;"/>
    </g>
    <g transform="matrix(0.919551,0,0,0.919551,-3.16036,-2.82228)">
        <path d="M57.603,39.498L27.114,56.816L7.329,68.051C7.139,68.157 6.963,68.286 6.806,68.437C14.35,60.696 18.568,50.309 18.559,39.498C18.573,28.685 14.356,18.296 6.81,10.554C6.971,10.707 7.149,10.839 7.342,10.949L57.603,39.498Z" style="fill:rgb(169,127,242);fill-rule:nonzero;"/>
    </g>
</svg>
