<?xml version="1.0" encoding="UTF-8" standalone="no"?>
<!DOCTYPE svg PUBLIC "-//W3C//DTD SVG 1.1//EN" "http://www.w3.org/Graphics/SVG/1.1/DTD/svg11.dtd">
<svg width="100%" height="100%" viewBox="0 0 2414 451" version="1.1" xmlns="http://www.w3.org/2000/svg" xmlns:xlink="http://www.w3.org/1999/xlink" xml:space="preserve" xmlns:serif="http://www.serif.com/" style="fill-rule:evenodd;clip-rule:evenodd;stroke-linejoin:round;stroke-miterlimit:2;">
    <g transform="matrix(0.133333,0,0,-0.133333,-149.343,-149.28)">
        <g id="g12">
            <path id="path14" d="M17185.9,-3375C17173.5,-3487.9 17143,-3673 17073.1,-3792C17027.9,-3868.9 16960.2,-3942.2 16867.3,-3942.2C16805.7,-3942.2 16761.6,-3901.3 16777.6,-3840.2C16788,-3800.6 16816.5,-3785.1 16845,-3784.1C16862,-3783.5 16879.4,-3789.2 16896.1,-3792.9C16919,-3797.8 16930.8,-3796.5 16946.6,-3786C16962.6,-3775.4 16976.4,-3753.4 16976.4,-3731.3C16976.4,-3704.2 16966.2,-3682.6 16933.8,-3672.1C16910.5,-3664.6 16879.2,-3672.7 16879.2,-3672.7C17012.9,-3540.6 17097.3,-3421.9 17194,-3297.5C17194,-3297.4 17187.8,-3358 17185.9,-3375ZM18986.2,-2657.2C19041.2,-2576.9 19091.3,-2512.4 19130.1,-2512.4C19169,-2512.4 19164.3,-2565.1 19154.5,-2601.8C19140.7,-2653.4 19107.9,-2737.3 19014.8,-2844.6C18916.9,-2957.4 18846.4,-3012.9 18775.2,-3064.5C18753.7,-3080.1 18706.3,-3114.1 18686,-3125.9C18716.5,-3075.5 18911.3,-2766.6 18986.2,-2657.2ZM18946.8,-3758.6C18861.2,-3832.2 18771.9,-3897.6 18718.3,-3897.7C18693.6,-3897.7 18685.8,-3870.6 18701.6,-3832.1C18733.8,-3753.6 18820.5,-3633.4 18896.2,-3502.1C18932,-3439.8 18950.7,-3385.5 18949.8,-3342.3C18948.4,-3274.8 18899.7,-3234.7 18826.3,-3234.7C18749.5,-3234.7 18687.7,-3266.6 18604.3,-3335.5C18548.5,-3381.7 18455.1,-3485.2 18455.1,-3485.2L18446.6,-3485.1C18446.6,-3485.1 18620.4,-3241.3 18634,-3221C18738.8,-3143.1 18839.5,-3091.4 18971.1,-2966C19113.3,-2830.4 19181.5,-2707.8 19205.2,-2640.2C19259.3,-2474.8 19166.7,-2457.3 19119.7,-2457.3C19037.9,-2457.3 18916.3,-2526.8 18771.5,-2725.8C18669.9,-2865.6 18573,-3027.6 18488.2,-3173.7C18424.8,-3282.9 18365.6,-3399.4 18261.8,-3522.8C18092.2,-3724.5 17903.3,-3849.7 17780.9,-3908C17748.2,-3922.9 17706.5,-3939.6 17662.9,-3939.6C17613.7,-3939.6 17598.3,-3903.8 17595.1,-3871.7C17588.3,-3802.8 17622.3,-3705.3 17659.5,-3634.1C17720.4,-3517.7 17787.5,-3440.7 17837.6,-3388.2C17917.6,-3304.4 17986.9,-3276.2 18031.1,-3276.2C18072.5,-3276.2 18091.5,-3295.4 18091.5,-3323.8C18091.5,-3357.4 18063.9,-3373 18040.2,-3381.5C18020.3,-3388.6 17993.2,-3395 17976.9,-3417.8C17967,-3431.6 17964.4,-3444 17964.4,-3458.3C17964.4,-3486.8 17986.4,-3507.5 18017.9,-3507.5C18035.6,-3507.5 18067.8,-3505.9 18105.3,-3473.2C18137.7,-3445 18158.2,-3402.3 18162.8,-3355.6C18165.5,-3328.5 18161.1,-3301.8 18147,-3279.9C18119.4,-3237.2 18069.5,-3225.2 18011.6,-3226C17918.3,-3227.3 17819.9,-3270.6 17740.8,-3322C17616.9,-3402.6 17522.9,-3512.5 17464.8,-3619.9C17408.7,-3679.7 17306.5,-3774.5 17239,-3818.9C17239,-3818.9 17267.5,-3757.8 17284,-3696.8C17311.2,-3596.2 17304.2,-3493 17285,-3384.9C17275.7,-3332.3 17275.5,-3320.3 17275.5,-3286.5C17275.5,-3239.2 17299.3,-3213.5 17329.3,-3185.2C17354.2,-3161.7 17365.1,-3138.8 17365.1,-3118.6C17365.1,-3096.6 17352.5,-3078.2 17331.2,-3075.4C17291.9,-3070.3 17262.6,-3099.2 17228.8,-3149.7C17124,-3322 16973.1,-3506.3 16828.8,-3648.4C16745.4,-3730.5 16641.5,-3819.3 16545,-3875.9C16520.1,-3890.5 16480.2,-3910.5 16454.3,-3910.5C16418.4,-3910.5 16439.6,-3849.1 16454.4,-3820.6C16520,-3694.3 16813.3,-3254.2 16813.3,-3254.2L16625.6,-3265.7C16625.6,-3265.7 16474.6,-3498.9 16415.6,-3579.7C16360.8,-3654.7 16267.5,-3752 16231.8,-3787.4C16169.9,-3848.8 16080.3,-3914.5 16036,-3914.5C16004.5,-3914.5 15999.8,-3896.7 16001.9,-3872.4C16003.8,-3849.8 16017.5,-3809.4 16060.7,-3737.9C16120.3,-3639.1 16371.4,-3252.5 16371.4,-3252.5L16185.5,-3263.6C16132.5,-3347.5 15915.4,-3651.6 15859.9,-3773.3C15817.7,-3866.1 15830.1,-3930.1 15853.4,-3959C15876.7,-3987.8 15906.2,-3995.9 15946.4,-3995.9C16009.1,-3995.9 16064.7,-3968.6 16120.4,-3933.6C16180.1,-3896.1 16239.8,-3840.9 16281.1,-3800.1L16284.2,-3801.7C16277.4,-3814.6 16270.2,-3834 16265.4,-3848.6C16245,-3911.4 16256.5,-3996 16343.5,-3996C16410.7,-3996 16459.9,-3975 16513,-3948.8C16582.9,-3914.2 16651,-3863.6 16708.2,-3819.6C16708.2,-3819.6 16659.4,-4002.7 16903.7,-4002.7C17039.2,-4002.7 17153.7,-3935.9 17211.1,-3898.1C17279.6,-3853 17373.8,-3778 17426.5,-3723.5L17426.7,-3723.2C17420.5,-3746.9 17416.6,-3783.3 17416,-3795.8C17408.9,-3931.5 17483.4,-4006.6 17595.9,-4006.6C17688.4,-4006.6 17756.3,-3980.9 17851.8,-3929.2C17968.1,-3866.3 18064.8,-3779.4 18152.1,-3706L18154.9,-3707.7C18116.3,-3769.7 17968.1,-3987.2 17968.1,-3987.2L18159.8,-3982.8C18159.8,-3982.8 18177.1,-3955.5 18184.5,-3943.4C18277.8,-3788.6 18360.9,-3677.4 18442.2,-3574.4C18523.2,-3471.8 18679,-3305.2 18754.1,-3305.2C18792.4,-3305.2 18795.8,-3333.7 18792.9,-3355.6C18786.3,-3406.2 18748.8,-3459.8 18688.8,-3548.2C18582.6,-3704.6 18523,-3779.2 18501.2,-3850.6C18478,-3926.7 18500.9,-4000.5 18585.5,-4000.5C18630.1,-4000.5 18676.3,-3987.9 18719.4,-3969.5C18788.4,-3940 18888.6,-3878.5 18989.9,-3788.4C19060.5,-3725.6 19154.7,-3632.8 19189.3,-3563.2C19218.5,-3504.4 19203.7,-3485.3 19203.7,-3485.3C19154.2,-3555.6 19020.9,-3695 18946.8,-3758.6ZM14124.7,-3456.6C14105,-3509.3 14020.2,-3511 13973.9,-3511C13857.4,-3511 13758.6,-3506.2 13644.2,-3501.4C13692.7,-3469.8 13741.4,-3442.5 13801.2,-3416.4C13878.4,-3382.7 13939.9,-3372.4 13998.6,-3369.5C14061.1,-3366.4 14099.6,-3381.5 14116.9,-3402.1C14130.7,-3418.6 14131.1,-3439.4 14124.7,-3456.6ZM11742.8,-3376.6C11732.6,-3522.2 11694.2,-3693.8 11632.3,-3791.8C11584.6,-3867.3 11517,-3943.8 11424.2,-3943.8C11362.5,-3943.8 11318.4,-3902.9 11334.5,-3841.8C11344.9,-3802.2 11373.4,-3786.7 11401.8,-3785.6C11418.9,-3785 11436.3,-3790.7 11453,-3794.4C11475.8,-3799.3 11487.7,-3798 11503.5,-3787.5C11519.4,-3776.9 11533.3,-3754.9 11533.3,-3732.8C11533.3,-3705.7 11523.1,-3684.1 11490.6,-3673.6C11467.4,-3666.1 11436,-3674.2 11436,-3674.2C11569.8,-3542.1 11654.1,-3423.3 11750.8,-3299C11750.8,-3299.1 11744,-3359.6 11742.8,-3376.6ZM7462.9,-3598.5L7460.4,-3596.3C7479.8,-3529.6 7509.7,-3286.4 7395.4,-3091.5C7434.5,-3031.1 7505,-2934.6 7556.1,-2869.3C7740.3,-2633.6 7956.3,-2453.7 8165.8,-2416.3C8177,-2414.3 8222.5,-2405.9 8224.5,-2418.7C8226.3,-2429.7 8204.4,-2445.8 8146.1,-2519.4C7959.8,-2754.8 7752,-3113.7 7462.9,-3598.5ZM7421,-3566.3C7405.2,-3685.9 7355.8,-3756.4 7355.8,-3756.4C7202.4,-3761.6 7016.9,-3695.9 6943.3,-3647.1C6979.4,-3613.7 7056,-3542.6 7162.3,-3413.8C7232.9,-3328.2 7323,-3199.8 7363.1,-3141.9C7363,-3141.9 7457.2,-3292.3 7421,-3566.3ZM6824.3,-3562.6C6782.9,-3530.4 6689,-3434.7 6653.5,-3313.6C6603.1,-3140.4 6663.6,-2978 6759.1,-2907.8C6816.1,-2866.2 6879,-2855.6 6938.7,-2855.6C7063.6,-2855.6 7200.4,-2939.4 7267.3,-3027.6C7221.6,-3081.3 7113.3,-3220.4 7052.9,-3294.3C6921.9,-3454.9 6824.3,-3562.6 6824.3,-3562.6ZM9731,-2655.2C9786,-2574.9 9836.1,-2510.4 9874.9,-2510.4C9913.9,-2510.4 9909.1,-2563.1 9899.3,-2599.8C9885.6,-2651.4 9852.7,-2735.3 9759.6,-2842.6C9661.7,-2955.4 9591.2,-3010.9 9519.9,-3062.6C9498.4,-3078.2 9451.1,-3112.2 9430.8,-3124C9461.4,-3073.5 9656.2,-2764.5 9731,-2655.2ZM10063,-3536.3C10100.1,-3478.7 10144.3,-3418 10205.8,-3357.3C10252.1,-3311.6 10301.1,-3284.2 10343.1,-3284.9C10370.1,-3285.3 10392.7,-3302 10392.7,-3336.4C10392.7,-3359.1 10382.8,-3389.6 10357.8,-3428.2C10320.4,-3485.9 10264.2,-3541.7 10171.4,-3578.5C10098.5,-3607.5 10016.8,-3615 10016.8,-3615C10016.8,-3615 10049.4,-3556.6 10063,-3536.3ZM12263.7,-3536.3C12300.8,-3478.7 12345,-3418 12406.5,-3357.3C12452.8,-3311.6 12501.8,-3284.2 12543.8,-3284.9C12590.1,-3285.7 12622.9,-3331.1 12559.9,-3428.2C12522.6,-3485.9 12474.7,-3533.7 12372.1,-3579.1C12308.7,-3607.1 12217.5,-3615 12217.5,-3615C12217.5,-3615 12250.1,-3556.6 12263.7,-3536.3ZM14157.3,-3373.1C14132,-3342.9 14088.1,-3325.9 14007.7,-3325.9C13946.5,-3325.9 13863.8,-3343 13784.2,-3376.3C13703.7,-3409.9 13635.2,-3451.6 13569.9,-3498.9C13510.3,-3497.4 13455.4,-3497.9 13427.1,-3502.3C13338.9,-3516.4 13290.2,-3560.5 13269,-3603.2C13262.5,-3616.4 13252.7,-3643.2 13264.9,-3651.7C13265.6,-3652.1 13269,-3642.7 13278.3,-3634.7C13298.3,-3617.4 13321.7,-3614.4 13358.5,-3614.4C13366.6,-3614.4 13390.4,-3614.5 13423.1,-3614.8C13414.6,-3621.9 13406,-3629 13397.3,-3636.1C13349.6,-3675.6 13303.4,-3713.5 13255,-3752.3C13209.5,-3788.9 13162.1,-3824.3 13111.1,-3857.3C13083.6,-3875.1 13039.6,-3899 13002.9,-3899C12978.2,-3899 12971.3,-3871.9 12987.1,-3833.4C13019.3,-3754.9 13106,-3634.7 13181.7,-3503.4C13217.5,-3441.1 13236.2,-3386.8 13235.3,-3343.6C13233.9,-3276.1 13185.1,-3245.8 13111.8,-3242.3C13067.1,-3240.2 13060.8,-3242.2 13035.8,-3237.6C12995.4,-3230.2 12987.7,-3205.7 13015.6,-3171.4C13035.1,-3147.4 13045.7,-3127.2 13045.7,-3110.4C13045.7,-3084.3 13031.1,-3064.4 12998,-3064.4C12969.1,-3064.4 12928.9,-3083.8 12905.8,-3123.3C12858.4,-3204.6 12898.3,-3260.6 12898.3,-3260.6C12845.7,-3350.7 12767.4,-3470.5 12702.4,-3554.9C12649.8,-3623.4 12543.8,-3763.4 12391.4,-3870.5C12343.2,-3904.3 12256.3,-3951.9 12193,-3951.9C12137.8,-3951.9 12131.8,-3907.8 12131.8,-3874C12131.8,-3825.9 12150.1,-3756.5 12194,-3668.6C12251.3,-3662 12295.8,-3655.5 12352.5,-3637.7C12535.1,-3580.4 12654.4,-3451 12654.4,-3349.3C12654.4,-3300.2 12635,-3236.2 12527.3,-3236.2C12445.5,-3236.2 12349.4,-3281 12271.2,-3339.1C12182.3,-3405.3 12087.5,-3506.9 12029.7,-3613.1C11974.8,-3672.1 11866.7,-3774.1 11795.8,-3820.6C11795.8,-3820.6 11824.3,-3759.5 11840.8,-3698.4C11868.1,-3597.8 11861,-3494.6 11841.9,-3386.5C11832.6,-3333.9 11832.3,-3321.9 11832.3,-3288.2C11832.3,-3240.9 11856.1,-3215.2 11886.2,-3186.9C11911.1,-3163.4 11922,-3140.5 11921.9,-3120.3C11921.9,-3098.3 11909.3,-3079.9 11888.1,-3077.1C11848.8,-3072 11819.4,-3100.9 11785.6,-3151.4C11680.8,-3323.7 11528.4,-3513.1 11385.7,-3650.1C11301.2,-3731.1 11198.3,-3821 11101.9,-3877.6C11076.9,-3892.2 11037,-3912.2 11011.2,-3912.2C10975.3,-3912.2 10996.5,-3850.8 11011.4,-3822.3C11076.9,-3696 11370.2,-3255.9 11370.2,-3255.9L11182.5,-3265.3C11182.5,-3265.3 11031.5,-3500.5 10972.5,-3581.3C10917.7,-3656.3 10824.4,-3753.6 10788.7,-3789C10726.8,-3850.4 10634.1,-3916.1 10592.9,-3916.1C10561.4,-3916.1 10557.6,-3898.3 10559.6,-3874C10561.5,-3851.4 10574.4,-3811 10617.5,-3739.5C10677.1,-3640.7 10928.2,-3255 10928.2,-3255L10742.4,-3265.2C10689.3,-3349.1 10645,-3422.7 10588.4,-3490.6C10525.9,-3565.6 10332.8,-3766.9 10180.4,-3874C10125.9,-3912.3 10052.9,-3951.6 9993,-3951.6C9933.9,-3951.6 9930.9,-3907.5 9930.9,-3873.7C9930.9,-3826.8 9949.5,-3756.2 9993.4,-3668.3C10050.7,-3661.7 10093.1,-3653.8 10150.2,-3637.4C10335.4,-3584.1 10450.5,-3451.2 10450.5,-3345.5C10450.5,-3303.9 10435.5,-3236 10326.7,-3236C10244.9,-3236 10155.4,-3280.5 10084,-3328.1C9986.1,-3393.3 9872.7,-3513.9 9811.3,-3642.8C9697,-3758 9544,-3895.6 9463.1,-3895.6C9438.4,-3895.6 9430.6,-3868.5 9446.4,-3830C9478.6,-3751.5 9565.4,-3631.3 9641,-3500C9676.8,-3437.7 9695.5,-3383.4 9694.6,-3340.2C9693.2,-3272.7 9644.5,-3232.6 9571.1,-3232.6C9494.3,-3232.6 9432.5,-3264.5 9349.1,-3333.4C9293.2,-3379.6 9199.9,-3483.1 9199.9,-3483.1L9191.4,-3483C9191.4,-3483 9365.2,-3239.2 9378.8,-3218.9C9483.6,-3141 9584.4,-3089.3 9715.9,-2963.9C9858.1,-2828.3 9926.3,-2705.7 9950.1,-2638.1C10004.1,-2472.7 9911.6,-2455.2 9864.5,-2455.2C9779.6,-2455.2 9659.9,-2524.7 9514.4,-2723.7C9399.3,-2881.1 9312.3,-3037.5 9233.1,-3171.6C9163,-3290.3 9097.2,-3416.1 8976.4,-3563.4C8873.2,-3689.2 8623.3,-3895.5 8530.4,-3895.5C8505.7,-3895.5 8497.6,-3868.4 8513.4,-3829.9C8545.6,-3751.4 8632.3,-3631.2 8708,-3499.9C8743.9,-3437.6 8762.5,-3383.3 8761.6,-3340.1C8760.2,-3272.6 8711.5,-3232.5 8638.1,-3232.5C8561.3,-3232.5 8502.6,-3256.6 8416.1,-3333.3C8369.4,-3374.7 8278.5,-3483 8278.5,-3483L8270.6,-3482.8C8290.7,-3447.1 8329.1,-3381.3 8329.9,-3319.4C8330.5,-3273.8 8307.5,-3241.7 8247.4,-3241.7C8213.1,-3241.7 8180,-3254.3 8122.2,-3297.3C8078.3,-3330 8021.7,-3384.9 7943,-3458.5C7817.8,-3575.7 7678.6,-3685.4 7578.5,-3719.3C7578.5,-3719.3 7653.3,-3594.3 7685,-3535.2C7858.5,-3211.9 8049.6,-2809.9 8270.7,-2443C8276,-2434.2 8281.3,-2425.5 8286.6,-2416.8C8297.5,-2398.8 8300.6,-2384.7 8295.6,-2377.6C8288.9,-2368.1 8273.2,-2365.7 8247.6,-2367C8044.8,-2377.3 7829.8,-2502 7683.3,-2616.7C7537.9,-2730.5 7434.8,-2833.8 7310.8,-2980.3C7219.8,-2871 7060.7,-2765.5 6897,-2769.4C6823.9,-2771.2 6752.8,-2786.8 6685.3,-2831.7C6579.6,-2902 6538,-3023.9 6537.2,-3133.8C6536,-3306.3 6630.8,-3486.1 6782.3,-3608.2C6782.3,-3608.2 6687.8,-3716.5 6586.3,-3800.9C6466,-3900.9 6285.1,-4010.9 6114.1,-3997.7C6057.1,-3993.3 5992.7,-3983.1 5952.4,-3932.7C5933.5,-3909.1 5928.2,-3883.7 5935.4,-3863.5C5944.9,-3836.6 5965.1,-3831.4 6000.2,-3830.3C6056.5,-3828.4 6070.8,-3785.6 6070.8,-3750.2C6070.8,-3702.9 6028.8,-3675.9 5983.1,-3675.9C5903.1,-3675.9 5833,-3733 5827.4,-3821.4C5817.3,-3979.5 5960.8,-4051.3 6111.9,-4051.3C6374.2,-4051.3 6653.9,-3911 6893.5,-3691.3C7003.9,-3759.1 7187.8,-3802.3 7315.3,-3808.1L7197.5,-3988.9L7427.8,-3982.9C7427.8,-3982.9 7521.7,-3828.3 7550.1,-3781.9C7646.6,-3751 7763,-3693.9 7931,-3540.3C8020.5,-3458.5 8093,-3382 8155.5,-3334.2C8177.6,-3317.3 8201,-3301.2 8215,-3301.2C8236.8,-3301.2 8230.4,-3322.9 8210,-3363.8C8169.5,-3438.2 8108.9,-3531 7913.2,-3828.3C7895.3,-3855.6 7808.2,-3988.9 7808.2,-3988.9L7993.4,-3983.7C7993.4,-3983.7 8081.8,-3854.5 8106.6,-3817.1C8140.7,-3765.8 8159.6,-3729.5 8284.4,-3554.1C8353.1,-3457.6 8490.9,-3303.3 8566,-3303.3C8604.4,-3303.3 8609.1,-3327.8 8606,-3349.7C8598.8,-3400.7 8562.6,-3455.1 8500.7,-3546.3C8394.5,-3702.7 8334.9,-3777.3 8313.1,-3848.7C8289.9,-3924.8 8315.4,-3998.6 8400,-3998.6C8444.6,-3998.6 8487.2,-3987 8530.4,-3968.7C8599.3,-3939.7 8688.9,-3880.6 8775.5,-3813.1C8814.5,-3782.7 8888.2,-3715.6 8888.2,-3715.6L8891,-3717.3C8852.4,-3779.3 8712.8,-3986.9 8712.8,-3986.9L8904.7,-3981.1C8904.7,-3981.1 8922.1,-3953.8 8929.4,-3941.7C9022.7,-3786.9 9105.9,-3675.7 9187.1,-3572.7C9268.1,-3470.1 9423.9,-3303.5 9499,-3303.5C9537.4,-3303.5 9540.8,-3332 9537.8,-3353.9C9531.1,-3404.5 9493.7,-3458.1 9433.7,-3546.5C9327.5,-3702.9 9267.9,-3777.5 9246.1,-3848.9C9222.9,-3925 9245.8,-3998.8 9330.4,-3998.8C9375,-3998.8 9420.4,-3986.5 9463.4,-3967.8C9566.2,-3923.1 9685.6,-3826 9778.7,-3736.3L9780.9,-3737.4C9777.1,-3746.9 9771.6,-3775.3 9770.5,-3783.1C9749.9,-3929.9 9833.1,-4006.1 9943,-4006.1C10047.1,-4006.1 10128.1,-3965.7 10206.2,-3913C10286.8,-3858.5 10396.4,-3754.3 10463.9,-3686.1L10467.2,-3687.7C10450.6,-3713.3 10426.8,-3753.4 10416.7,-3775.3C10374.5,-3867.4 10387.3,-3932.8 10410.2,-3961C10433.5,-3989.8 10463,-3997.9 10503.2,-3997.9C10565.9,-3997.9 10621.5,-3970.6 10677.1,-3935.6C10736.8,-3898.1 10796.5,-3842.8 10837.9,-3802.1L10840.9,-3803.7C10834.1,-3816.6 10826.9,-3836 10822.2,-3850.6C10801.8,-3913.4 10813.2,-3998 10900.2,-3998C10967.4,-3998 11016.7,-3977 11069.7,-3950.8C11139.6,-3916.2 11207.8,-3865.6 11264.9,-3821.6C11264.9,-3821.6 11216.1,-4004.7 11460.4,-4004.7C11602.6,-4004.7 11706.1,-3941.9 11767.9,-3900.6C11825,-3862.4 11930.5,-3779.9 11983.3,-3725.5L11986.3,-3726.6C11983.3,-3736.6 11975,-3764 11972.6,-3785.4C11955.3,-3942.8 12049.2,-4006 12150,-4006C12261,-4006 12349.6,-3958.6 12418,-3912.3C12543.3,-3827.5 12653.7,-3705.5 12750.8,-3576.9C12801.6,-3509.5 12846.2,-3439.1 12891,-3368.5C12895.5,-3361.5 12942,-3285.3 12942,-3285.3C12973.6,-3292.2 13004.2,-3294.8 13025.5,-3297.8C13074.9,-3304.9 13085.7,-3325.8 13082.1,-3352.8C13075.1,-3406.2 13036.1,-3458.7 12974.2,-3549.8C12868,-3706.2 12808.4,-3780.8 12786.6,-3852.2C12763.4,-3928.3 12786.3,-4002.1 12870.9,-4002.1C12915.6,-4002.1 12960.7,-3991.9 13003.9,-3973.7C13077.3,-3942.8 13153.1,-3888.4 13215.6,-3840.3C13289.1,-3783.8 13391.3,-3698.3 13425.4,-3670C13449.2,-3650.2 13471.1,-3632.1 13491.9,-3615.2C13605.7,-3616.2 13742.5,-3620.7 13790,-3621.9C13831.7,-3623 13892.7,-3621 13925.7,-3618.9C14094,-3608 14162.7,-3540.3 14176.8,-3469.2C14184.1,-3432.7 14176.4,-3395.9 14157.3,-3373.1ZM15515.4,-3190.5C15455.3,-3190.5 15417,-3169.6 15417,-3135C15417,-3101.1 15449.2,-3065.5 15522.5,-3073.7C15566,-3078.6 15596.1,-3093.3 15622.2,-3110.2C15650,-3128.1 15665.5,-3156 15665.5,-3156C15619.5,-3179.2 15566.5,-3190.5 15515.4,-3190.5ZM15737.5,-2449.9C15810,-2402.6 15903.1,-2378.9 15923.4,-2378.9C15923.4,-2378.9 15910.1,-2360.1 15856.8,-2361.1C15808.3,-2362 15730.4,-2389.1 15663.2,-2432.4C15613.8,-2423.5 15550.6,-2416.2 15490.1,-2413.3C15152.6,-2397.4 14836.9,-2474.1 14584.7,-2619.6C14341.1,-2760.1 14174.3,-2952.4 14159.6,-3129.5C14154.3,-3192.9 14168,-3251.5 14213.5,-3289.1C14250.6,-3320 14300.9,-3333 14363.4,-3333.2C14499.2,-3333.7 14669.7,-3271.5 14839.1,-3143.9C14961.7,-3051.5 15054.3,-2941.6 15102.3,-2853.6C15165.4,-2738 15129.3,-2669.4 15129.3,-2669.4C15090.4,-2793.6 14941.5,-2968.1 14764.3,-3097.3C14623.6,-3199.8 14474.2,-3276.5 14341.6,-3276.5C14228.4,-3276.5 14210.4,-3208.9 14217.9,-3135.1C14234.3,-2974.9 14373.4,-2822.4 14550.5,-2706C14825.5,-2525.1 15156.9,-2445.9 15500.3,-2468.6C15531.7,-2470.7 15566.6,-2474.9 15593.8,-2479.8C15586.9,-2485.1 15580,-2490.5 15573.3,-2496.1C15453.4,-2596.3 15333.9,-2731.1 15225,-2891C15051.5,-3145.7 14943.3,-3341.3 14799.9,-3538.9C14680.6,-3705.9 14547.4,-3862.3 14370.1,-3937.4C14301.9,-3966.4 14226,-3977.3 14156,-3974.9C14086,-3972.5 14036.5,-3959.6 13994.1,-3928.7C13979.7,-3918.2 13958.7,-3894.2 13960.9,-3870C13964.5,-3830.5 13993.7,-3830.3 14024.2,-3833.4C14078.7,-3838.9 14100.3,-3798.8 14098.1,-3761.6C14095.5,-3716.9 14060.2,-3685.8 14004.4,-3685.8C13951.9,-3685.8 13870.6,-3721.7 13864.2,-3822.3C13853.1,-3997.8 14063.7,-4027.9 14191.4,-4027.9C14447,-4027.9 14677.6,-3915.2 14863.7,-3713.3C15164,-3387.6 15306.9,-3004.3 15408.7,-2834.8C15487.1,-2704.1 15555.8,-2586 15664.1,-2500C15846.4,-2549.7 15918.4,-2678.6 15908.4,-2810C15900.1,-2918.9 15850.6,-3030.8 15744.9,-3109.2C15704.4,-3075.2 15625.5,-3021.9 15514.3,-3021.9C15396.8,-3021.9 15357.5,-3089 15358.3,-3140.4C15359.4,-3207.1 15427.6,-3245.2 15519.5,-3245.2C15611.4,-3245.2 15683.2,-3218 15683.2,-3218C15701.7,-3270.6 15693.9,-3366.8 15675.3,-3437.3C15627.2,-3619.4 15528.8,-3762 15415.2,-3853.5C15277.8,-3964.3 15195.8,-3967.7 15164.5,-3967.2C15091,-3966.2 15068.6,-3915.5 15073.5,-3856.7C15080.6,-3772.3 15124.1,-3680.7 15177.8,-3613.8C15291.4,-3472.1 15399.8,-3429.8 15432.5,-3412.1C15432.5,-3412.1 15420.8,-3392.6 15374.6,-3405.9C15320.5,-3421.6 15264.3,-3452.8 15199.7,-3512.5C15088.5,-3615.3 15023.3,-3740.7 15015.4,-3841.1C15010.7,-3901.4 15026.6,-3957.5 15065.7,-3989.5C15096.7,-4015.7 15140.3,-4031 15204.6,-4031C15295.4,-4031 15399.1,-3995.5 15483.4,-3943.3C15688.4,-3816.1 15815.5,-3627.2 15844,-3436C15859.2,-3334.4 15843.9,-3242.4 15797.4,-3169C15836.8,-3147.8 16028.4,-3027.3 16049.2,-2820C16064.1,-2671.9 15975.9,-2515 15737.5,-2449.9" style="fill:white;fill-rule:nonzero;"/>
            <path id="path16" d="M3472.2,-1548.1L3247,-1384.4L3525.4,-1384.4L3611.4,-1119.6L3697.5,-1384.4L3976,-1384.4L3750.7,-1548.1L3836.8,-1812.9L3611.5,-1649.2L3386.2,-1812.9L3472.2,-1548.1ZM5583,-2046.8C5449.8,-2081.7 5352.1,-2135.6 5235,-2210.9C5127.7,-2279.9 4966.2,-2430.7 4805.5,-2633.9C4679.4,-2793.4 4535.1,-2899 4441.7,-2916.2C4441.7,-2916.2 4556.7,-2814.7 4631.5,-2716.2C4728.4,-2588.7 4879.1,-2352.9 5173,-2168.4C5402.4,-2024.4 5591.6,-2000.6 5667.8,-1996.2C5745.6,-1991.7 5847.9,-2001.5 5867.4,-2023.8C5867.4,-2023.8 5720.4,-2010.8 5583,-2046.8ZM4326.9,-2586C4326.9,-2586 4348.9,-2519 4411.4,-2457.1C4458.2,-2410.8 4502.3,-2398.9 4508,-2415C4508,-2415 4475.9,-2438.5 4432.8,-2475.7C4393.3,-2510 4326.9,-2586 4326.9,-2586ZM4458.4,-2299.7C4512.4,-2260 4542,-2252.6 4550,-2266.5C4558,-2280.4 4543.1,-2300.4 4488.7,-2338.1C4425.1,-2382.2 4346.8,-2431.8 4346.8,-2431.8C4346.8,-2431.8 4362.7,-2370.1 4458.4,-2299.7ZM4653.2,-2210.6C4703.6,-2172.8 4733.7,-2169.3 4740.7,-2182.6C4747.7,-2195.9 4732.9,-2214.3 4680.3,-2247.8C4618.8,-2287.1 4532.7,-2353.9 4532.7,-2353.9C4532.7,-2353.9 4576.4,-2268.3 4653.2,-2210.6ZM4854.5,-2118.4C4907.6,-2084.1 4937.8,-2082.6 4943.8,-2096.4C4949.8,-2110.2 4933.6,-2127.5 4878.7,-2157.4C4814.4,-2192.4 4738.8,-2242.8 4738.8,-2242.8C4738.8,-2242.8 4773.6,-2170.7 4854.5,-2118.4ZM4759,-2357.3C4759,-2357.3 4795.5,-2283.4 4877.9,-2221.6C4939.6,-2175.3 4992.4,-2168.3 4996.3,-2187.7C4996.3,-2187.7 4955.3,-2209.9 4899.5,-2246.3C4848.3,-2279.7 4759,-2357.3 4759,-2357.3ZM4539.2,-2463.6C4539.2,-2463.6 4570.8,-2391.2 4647,-2328.4C4704,-2281.4 4754.3,-2272.4 4759,-2290.9C4759,-2290.9 4720.7,-2313.9 4668.9,-2351.2C4621.3,-2385.4 4539.2,-2463.6 4539.2,-2463.6ZM4681.7,-2425.2C4740.6,-2364 4776.3,-2373.6 4781.9,-2391.8C4781.9,-2391.8 4744.7,-2416.4 4694.7,-2455.9C4648.8,-2492.1 4607.4,-2536.3 4607.4,-2536.3C4607.4,-2536.3 4638.1,-2470.5 4681.7,-2425.2ZM5122.2,-2025.3C5186.6,-1999.7 5214.4,-2007.1 5212.8,-2022C5211.2,-2036.5 5206.5,-2041.1 5141.3,-2063.1C5053.3,-2092.7 4968.8,-2136.2 4968.8,-2136.2C4968.8,-2136.2 5024,-2064.3 5122.2,-2025.3ZM5383.6,-1977.6C5450.2,-1961 5477.1,-1968.3 5474.1,-1980C5471.2,-1991.3 5466,-1994.7 5399,-2008.4C5308.6,-2026.9 5220.4,-2056.5 5220.4,-2056.5C5220.4,-2056.5 5282.2,-2002.9 5383.6,-1977.6ZM4483.2,-3206.1C4495.9,-3199.3 4508.6,-3192.2 4521.5,-3185C4598.1,-3142.4 4700,-3080 4762,-3074.6C4800.5,-3071.2 4817.1,-3086.4 4821.4,-3102.2C4825.1,-3115.8 4826.1,-3128.4 4816.9,-3158.3C4811.9,-3174.7 4801.7,-3193 4794.6,-3201.9C4794.6,-3201.9 4788.3,-3166.5 4757.4,-3170.6C4713.3,-3176.4 4678.9,-3222.6 4627.9,-3260C4586.1,-3290.6 4545.6,-3310.8 4527,-3320.6C4527,-3320.6 4540.3,-3327.7 4567.5,-3317.3C4596.7,-3306.1 4638.3,-3284.2 4662.4,-3265.3C4661.8,-3285.6 4672.3,-3301 4693,-3297C4714,-3292.9 4728.9,-3275.1 4735,-3253.1C4739.6,-3236.5 4736.6,-3206 4733.4,-3207.4C4767.3,-3191 4784.8,-3222.3 4784.8,-3246.2C4784.8,-3254 4783.9,-3272 4780.6,-3276.9C4780.6,-3276.9 4789.6,-3274.7 4801.6,-3259.4C4813.6,-3244.1 4830.8,-3217.6 4843.7,-3169.1C4851.2,-3140.9 4850.7,-3125 4848.4,-3112.1C4869.8,-3099.2 4900.7,-3080.1 4920.5,-3072.7C4973.3,-3053 5015.4,-3053.6 5030.9,-3086.9C5041.1,-3108.8 5036.3,-3123.8 5036.3,-3123.8C5031.5,-3107.3 5019,-3101.4 5004.1,-3102.3C4965.9,-3104.5 4924.7,-3152.9 4895.3,-3194.9C4869.3,-3232.1 4861.4,-3254.2 4831.9,-3285.9C4823.9,-3294.4 4804.6,-3307.1 4808,-3319.1C4812.4,-3334.4 4830.4,-3317.6 4843.9,-3308.5C4864,-3295.1 4894.5,-3281.8 4911.7,-3273.5C4966,-3247.3 4981.9,-3219.5 4981.9,-3219.5C4984.8,-3231.2 4979.4,-3284.2 4928,-3333.6C4863.9,-3395.2 4703.6,-3468.3 4654.8,-3499.6C4634.5,-3512.6 4615.3,-3526.4 4596.9,-3540.5C4539.7,-3584.5 4490.9,-3631.9 4443.4,-3670.5C4362.4,-3736.3 4227.7,-3821.4 4083.1,-3863.4C3994.8,-3889.1 3986.9,-3862.9 3986.4,-3862.3C4014.1,-3856.3 4086,-3840.3 4205.5,-3779.7C4372,-3695.3 4486.9,-3595.4 4560.8,-3531.6C4570.1,-3523.5 4578.6,-3516.2 4586.3,-3509.4C4639.3,-3462.9 4655,-3446.7 4662.5,-3438.8C4704,-3394.5 4719.1,-3372.8 4719.4,-3362.6C4705.4,-3374.1 4657,-3420.8 4613.9,-3457.5C4607.1,-3463.3 4594.9,-3473.6 4578.7,-3486.9C4548.6,-3511.7 4504.1,-3547.1 4452.5,-3584.8C4329.4,-3657.9 4124,-3715.5 3993.5,-3711C3938,-3706.8 3879.8,-3698.6 3879.8,-3698.6C3940.8,-3679.8 4001.2,-3650 4039,-3629.7C4099.8,-3625.6 4207,-3615.6 4246.5,-3584.5L4251.1,-3580.9C4175.1,-3595.9 4089.6,-3609.2 4040.7,-3605.5C3973,-3598.2 3887.5,-3576.1 3887.5,-3576.1C3912.8,-3573.6 3971.6,-3548 4016.8,-3526.9C4067.5,-3530 4183.3,-3506.5 4190.3,-3504.4L4195.3,-3501.4C4146.6,-3503.2 4087.3,-3498.4 4056.2,-3495.4C3999.3,-3484.5 3930.1,-3454.7 3930.1,-3454.7C3975,-3444.5 4015.4,-3427.9 4043,-3414.8C4094.6,-3415.8 4167.5,-3406.4 4173.7,-3404.6L4178.7,-3401.7C4144,-3400.4 4079.3,-3391.5 4057.3,-3388.4C4010.8,-3370.9 3954.1,-3336.6 3954.1,-3336.6C4002.5,-3327.6 4041.5,-3315.1 4065.3,-3306.4C4115.7,-3311.7 4184.6,-3312.3 4191.1,-3311L4194.2,-3308.6C4162.3,-3305.7 4105.6,-3293.4 4079.8,-3287.6C4012.9,-3236.8 3990.2,-3191.2 3990.2,-3191.2C3990.2,-3191.2 4181.5,-3263.4 4275.5,-3264.4C4359.1,-3265.7 4420.8,-3239.4 4483.2,-3206.1ZM4524.1,-3907.1L4558.1,-3957.6C4560.1,-3960.4 4562.3,-3963.2 4564.3,-3966C4596.9,-3921.4 4649.7,-3892.3 4709.2,-3892.3C4808.2,-3892.3 4888.5,-3972.6 4888.5,-4071.6C4888.5,-4137.3 4853.2,-4194.7 4800.6,-4225.9C4803.1,-4228.2 4805.5,-4230.4 4807.7,-4232.4L4852.1,-4271.8C4930.4,-4341.4 5004,-4398.5 5059.8,-4439.3L4646.7,-4439.3C4637.2,-4409.6 4620.6,-4382.4 4597.9,-4359.7C4560.4,-4322.3 4510.6,-4301.7 4457.7,-4301.7C4404.8,-4301.7 4354.9,-4322.3 4317.4,-4359.7C4294.7,-4382.4 4278.1,-4409.6 4268.6,-4439.3L3929,-4439.2C3982.2,-4388.9 4025.5,-4333.4 4057.1,-4274.5C4090.2,-4212.8 4110.3,-4147.8 4116.7,-4081.3C4122.1,-4025.8 4117.8,-3969.3 4104.3,-3912.5C4120.7,-3907.6 4137,-3902 4153.2,-3896.1C4157.2,-3894.6 4161.2,-3893.2 4165.1,-3891.7C4200.2,-4033.6 4182.8,-4175.4 4113.4,-4304.5C4100.5,-4328.5 4085.8,-4352.2 4069.4,-4375.1L4226.5,-4375.1C4272.7,-4290.2 4360.8,-4237.7 4457.3,-4237.7C4553.8,-4237.7 4641.9,-4290.3 4688.1,-4375.1L4872.7,-4375.2C4806.3,-4319.6 4743.8,-4262.2 4686.9,-4204.3L4665.4,-4182.5L4695.8,-4186C4700.5,-4186.5 4704.8,-4186.8 4708.8,-4186.8C4772.3,-4186.8 4823.9,-4135.2 4823.9,-4071.7C4823.9,-4008.2 4772.3,-3956.6 4708.8,-3956.6C4645.3,-3956.6 4593.7,-4008.2 4593.7,-4071.7L4594.4,-4104.6L4574.6,-4081C4488.7,-3978.4 4422,-3876 4374.9,-3775.7C4378.3,-3773.1 4381.8,-3770.6 4385.3,-3767.9C4387.4,-3766.2 4389.6,-3764.7 4391.8,-3763C4404.5,-3752.9 4416,-3743.7 4426.7,-3734.9C4452.7,-3791.5 4485.1,-3849.2 4524.1,-3907.1ZM3872.3,-3810.2C3913.9,-3798.3 3954.9,-3779.3 3988.5,-3761.3C4090.7,-3754.5 4197.8,-3726.5 4275.5,-3700.7C4239.7,-3720.9 4204,-3738.6 4170.1,-3751.9C4003.4,-3817.4 3872.3,-3810.2 3872.3,-3810.2ZM3769.1,-3277.7C3718.5,-3271.1 3686.2,-3255.1 3668.9,-3242.3C3668.9,-3242.3 3694.9,-3225.7 3771.6,-3241.3C3812.5,-3249.6 3857,-3266.2 3867,-3274.4C3866.9,-3274.4 3828.6,-3285.4 3769.1,-3277.7ZM3662.2,-3390.3C3657.8,-3386.7 3653.5,-3382.7 3649.2,-3378.2C3640.7,-3369.5 3632.5,-3359.9 3624.5,-3350C3608.6,-3330.2 3593.6,-3309.4 3578.9,-3288.2C3549.6,-3245.8 3521.9,-3202.1 3494.7,-3158.1L3412.9,-3025.8C3385.3,-2981.8 3358.4,-2937.4 3329,-2894.2L3324.9,-2896.9C3350.8,-2941.7 3374.3,-2988.1 3398.6,-3034L3435,-3103C3447.6,-3125.8 3460.7,-3148.2 3473.8,-3170.7C3500.1,-3215.6 3527,-3260.2 3555.8,-3303.9C3570.2,-3325.7 3585.1,-3347.4 3601.2,-3368.4C3608.2,-3377.5 3615.5,-3386.4 3623.4,-3395.1C3615.2,-3391.5 3606.4,-3387.4 3597.1,-3382.7C3562.2,-3365.3 3518.9,-3323.7 3477.3,-3268.3C3403.9,-3170.4 3280.8,-2942.1 3242.4,-2881.2C3202.9,-2818.7 3091.9,-2628.4 2865.6,-2628.4C2631.4,-2628.4 2435.2,-2752.9 2348.7,-2809.5C2239.6,-2880.8 2091,-3003.8 2079.4,-3013.4C2100.2,-2992.2 2121.7,-2971.5 2143.5,-2951.2C2179.2,-2918 2216.3,-2886.1 2254.4,-2855.7C2292.5,-2825.2 2331.6,-2796 2372.3,-2769.2C2413,-2742.4 2454.5,-2716.9 2497.6,-2694.1C2540.7,-2671.4 2585.1,-2651.3 2630.9,-2634.9C2676.7,-2618.8 2724,-2606.3 2772.1,-2600.1C2820.2,-2593.9 2869.3,-2593.1 2917.5,-2599.3C2965.6,-2605.5 3013.2,-2619.3 3055.5,-2643.9L3058.1,-2639.7C3016.1,-2613.2 2968,-2597.2 2919.1,-2589.1C2870,-2581.1 2819.9,-2580.8 2770.5,-2585.8C2720.9,-2590.9 2672.3,-2602.4 2625.1,-2617.7C2577.9,-2633.2 2532.1,-2652.5 2487.6,-2674.5C2465.4,-2685.6 2443.5,-2697.1 2422,-2709.5C2411.2,-2715.6 2400.8,-2722.3 2390.2,-2728.7L2374.3,-2738.4L2358.8,-2748.6C2317.2,-2775.5 2277.1,-2804.7 2238.2,-2835.3C2192.8,-2871.4 2149.2,-2909.5 2107.3,-2949.5C2118.5,-2932.9 2134.1,-2913.6 2155.9,-2891.9C2207.1,-2841.1 2266.7,-2781.4 2423.8,-2674.3C2619.3,-2540.9 2784.1,-2503.2 2950.2,-2517.5C3227.1,-2541.3 3334,-2765.6 3381.3,-2843.1C3424.9,-2914.6 3550.7,-3208.1 3616,-3317.8C3639.7,-3357.6 3656.8,-3379.8 3665,-3392.3C3664,-3391.7 3663.1,-3391.1 3662.2,-3390.3ZM3530.6,-3859.4C3529.7,-3872.2 3528.3,-3888.7 3518.3,-3890.4L3516.9,-3890.3C3506.6,-3889.3 3496,-3855.5 3493.1,-3836.3C3489.4,-3812.5 3488.4,-3794.3 3488.6,-3777.7C3488.7,-3755.7 3496.1,-3738.3 3495.8,-3738.9C3504.7,-3747.3 3520,-3770 3526.4,-3804.7C3529.7,-3823.3 3532.1,-3838.6 3530.6,-3859.4ZM3428.7,-3629.5C3420.5,-3649.5 3413.8,-3661 3398.3,-3669.1C3381.1,-3678 3354.5,-3664.8 3354.5,-3664.8C3366.8,-3654.9 3378,-3629.9 3383.3,-3620C3394,-3599.9 3398.1,-3588.7 3413.6,-3568.7C3431.3,-3545.9 3449.7,-3536.9 3449.7,-3536.9C3441.9,-3555.6 3439,-3604.3 3428.7,-3629.5ZM3435.6,-3874.3C3432.6,-3890.2 3428.7,-3911.1 3415.5,-3911.1C3402.1,-3911.2 3395.6,-3865.7 3394.5,-3840.7C3393.2,-3810.8 3394.5,-3788 3396.9,-3767.5C3400.1,-3740.3 3409.3,-3719.4 3408.8,-3720.1C3418.6,-3731.7 3434.5,-3762 3437.7,-3805.9C3439.5,-3829.3 3440.4,-3848.7 3435.6,-3874.3ZM3333.1,-3574C3319.4,-3594.6 3308.4,-3606.8 3289.4,-3612.4C3267.8,-3618.7 3239.3,-3598.9 3239.3,-3598.9C3255.6,-3590.4 3274.2,-3564.3 3282.4,-3554.2C3299.2,-3533.7 3306.5,-3521.8 3328.8,-3502.4C3354.2,-3480.4 3377.3,-3474.2 3377.3,-3474.2C3364,-3493.8 3350.7,-3547.6 3333.1,-3574ZM3340,-3790.4L3323.5,-3863.6C3317.3,-3880.1 3309,-3901.8 3295.9,-3899.2C3282.7,-3896.6 3285.7,-3846.5 3289.9,-3819.4C3294.9,-3787 3302.1,-3756.1 3308.8,-3734.5C3317.7,-3705.8 3330.7,-3687.9 3330.1,-3688.5C3337.4,-3703 3346.1,-3742.7 3340,-3790.4ZM3243.7,-3740.3C3234.7,-3766.4 3226.6,-3787.3 3210.3,-3812.8C3200.2,-3828.7 3187.9,-3847.4 3174.7,-3844.1C3160.8,-3840.6 3175.7,-3787 3186,-3759.6C3198.3,-3726.9 3208.6,-3706.8 3220.3,-3685.8C3235.8,-3657.9 3252.9,-3642.7 3252.2,-3643.1C3256.5,-3659.8 3260.4,-3691.9 3243.7,-3740.3ZM3161.7,-3695.5C3146.8,-3722.7 3121.6,-3754.6 3105.8,-3773.2C3092.1,-3789.3 3077.7,-3798.5 3068.9,-3794.6C3054.2,-3788.1 3079.3,-3738.5 3096.5,-3710.5C3117.1,-3677 3136.7,-3651 3154.1,-3630.3C3177.6,-3602.3 3194.4,-3595.8 3194.4,-3595.8C3195.7,-3615 3186.5,-3650.3 3161.7,-3695.5ZM3165.3,-4274.5C3197,-4333.5 3240.2,-4388.9 3293.4,-4439.2L2953.8,-4439.3C2944.3,-4409.6 2927.7,-4382.4 2905,-4359.7C2867.5,-4322.3 2817.7,-4301.7 2764.8,-4301.7C2711.8,-4301.7 2662,-4322.3 2624.5,-4359.7C2601.8,-4382.4 2585.2,-4409.6 2575.7,-4439.3L2162.7,-4439.3C2218.5,-4398.5 2292.1,-4341.4 2370.4,-4271.8L2414.8,-4232.4C2417.1,-4230.3 2419.4,-4228.1 2421.9,-4225.9C2369.2,-4194.7 2334,-4137.3 2334,-4071.6C2334,-3972.6 2414.3,-3892.3 2513.3,-3892.3C2572.8,-3892.3 2625.6,-3921.3 2658.2,-3966C2660.3,-3963.2 2662.4,-3960.4 2664.4,-3957.6L2698.4,-3907.1C2752.2,-3827.2 2793.7,-3747.6 2821.6,-3670.6C2825.5,-3659.8 2830.1,-3647.2 2835.2,-3633.2C2833.4,-3657.2 2842.8,-3685.1 2870,-3688.3C2874.1,-3688.8 2878.7,-3688.7 2883.6,-3687.9C2883.1,-3689.4 2882.4,-3691.1 2881.9,-3692.5C2836,-3819.1 2757,-3949.8 2647.3,-4081L2627.5,-4104.6L2628.2,-4072.1C2628.2,-4008.2 2576.6,-3956.6 2513.1,-3956.6C2449.7,-3956.6 2398,-4008.2 2398,-4071.7C2398,-4135.2 2449.6,-4186.8 2513.1,-4186.8C2517.2,-4186.8 2521.4,-4186.5 2526.2,-4186L2556.6,-4182.5L2535.1,-4204.3C2478.2,-4262.2 2415.8,-4319.6 2349.3,-4375.2L2533.9,-4375.1C2580.1,-4290.2 2668.2,-4237.7 2764.7,-4237.7C2861.2,-4237.7 2949.3,-4290.3 2995.5,-4375.1L3152.7,-4375.1C3136.4,-4352.2 3121.6,-4328.5 3108.7,-4304.5C3031.2,-4160.1 3018.3,-4000 3071.5,-3841.5L3073,-3836.9C3078.6,-3834 3084.3,-3830.6 3089.7,-3827C3100,-3820.1 3109.5,-3812.4 3116.7,-3805.5C3138.6,-3784.7 3145.4,-3776.3 3145.4,-3776.3C3145.4,-3776.3 3137,-3800.7 3129.4,-3828.1C3126,-3840.4 3125.3,-3858.2 3129,-3872.9C3107.1,-3942.8 3099.1,-4012.8 3105.7,-4081.2C3112.2,-4147.8 3132.2,-4212.8 3165.3,-4274.5ZM2379.2,-3836.6C2379,-3834.8 2385,-3829.5 2388.2,-3826.8C2408.4,-3809.1 2460.5,-3778.9 2527.6,-3746C2604.1,-3708.4 2657.7,-3688.3 2684.2,-3681.3C2671.2,-3697.2 2632.2,-3730.2 2548.7,-3774.2C2507.6,-3795.9 2472.2,-3814.6 2405.8,-3834.1C2387.9,-3839.4 2379.6,-3838.1 2379.2,-3836.6ZM2293.3,-3797.9C2269.5,-3803.6 2261.4,-3802.8 2258.9,-3801.2C2258.4,-3800.9 2258.3,-3800.6 2258.3,-3800.5C2257.8,-3797.9 2265.9,-3791.9 2271.1,-3788.2C2297.8,-3768.7 2396.5,-3722.9 2486.6,-3688.1C2590.2,-3648.2 2661.3,-3628.6 2694.9,-3623.1C2678.5,-3640 2626.6,-3674.9 2511.1,-3723.5C2456.5,-3746.4 2388.5,-3774.9 2293.3,-3797.9ZM2225.6,-3737.2C2196,-3743.1 2186,-3741.7 2182.8,-3739.4C2182,-3738.9 2181.9,-3738.4 2181.8,-3738C2181.2,-3734.4 2191.3,-3727.6 2198.4,-3722.9C2232.1,-3700.3 2355.1,-3649.2 2467,-3611.2C2597.8,-3566.8 2686.6,-3546.5 2727,-3541.9C2707.6,-3561.3 2642.8,-3602.1 2495.7,-3657.1C2427.6,-3682.4 2343.1,-3713.9 2225.6,-3737.2ZM2720.2,-3469.3C2724,-3457.4 2762.6,-3426.6 2793.1,-3398.7C2852.4,-3344.6 2862.9,-3337.7 2897,-3319.9C2931.3,-3302 2950.2,-3304.6 2950.2,-3304.6C2937.5,-3318.7 2914.6,-3361.1 2866.1,-3403.8C2836.9,-3429.6 2798.8,-3456.4 2765.3,-3469.2C2740.5,-3478.7 2716.7,-3480 2720.2,-3469.3ZM2695,-3394.8C2670.1,-3404.3 2646.4,-3407.7 2649.8,-3396.9C2652.5,-3388.6 2692.8,-3352.5 2722.7,-3326.3C2778.5,-3277.4 2783.5,-3272.5 2812.7,-3255.6C2846.2,-3236.2 2869.8,-3240.3 2869.8,-3240.3C2857.1,-3254.4 2844.1,-3286.6 2795.7,-3329.4C2766.5,-3355.2 2728.5,-3382 2695,-3394.8ZM2590.5,-3345.6C2565.6,-3355.1 2541.9,-3358.5 2545.4,-3347.7C2548.1,-3339.4 2589,-3303.9 2618.3,-3277.1C2678.1,-3222.5 2691.9,-3212.3 2725.5,-3194.7C2759.8,-3176.8 2782.6,-3179.4 2782.6,-3179.4C2766.1,-3194.7 2739.7,-3237.5 2691.2,-3280.2C2662,-3306 2624,-3332.8 2590.5,-3345.6ZM2458.5,-3335.4C2429.7,-3348.8 2418,-3348.8 2415.8,-3342.6C2412.9,-3334.5 2439.9,-3313.2 2490,-3259.9C2552.5,-3193.5 2580.7,-3166.8 2619.7,-3143.7C2659.5,-3120.2 2686.8,-3121.8 2686.8,-3121.8C2660.3,-3141.2 2629.6,-3190.1 2575.6,-3245.2C2543.1,-3278.4 2497.2,-3317.3 2458.5,-3335.4ZM2335.8,-3321.7C2323.4,-3327 2316.4,-3329.2 2306.7,-3331C2285.8,-3334.9 2292.9,-3326.1 2297.2,-3322.5C2321.8,-3302.3 2383.3,-3239.5 2391.4,-3230.1C2474.6,-3134.2 2492,-3114.6 2536,-3086.1C2570.4,-3063.8 2602,-3061 2602,-3061C2576.5,-3081.6 2524.6,-3156.5 2472.2,-3213.1C2440.6,-3247.3 2375,-3304.8 2335.8,-3321.7ZM2258.4,-3411.5C2215.3,-3453.5 2182.8,-3469.3 2168.7,-3476.9C2154.6,-3484.5 2138.5,-3491.1 2135,-3485C2132.9,-3481.3 2138.2,-3467.8 2142.5,-3460.7C2159,-3433.8 2170,-3421.2 2186.9,-3407.3C2253.6,-3352.5 2299.6,-3362.3 2299.6,-3362.3C2299.6,-3362.3 2295,-3375.8 2258.4,-3411.5ZM2242.8,-3249.7C2346,-3119 2371.2,-3091.7 2427.2,-3051.7C2470.9,-3020.5 2507.7,-3015.1 2507.7,-3015.1C2475.5,-3043.7 2403,-3145.8 2337.8,-3223C2298.5,-3269.6 2252.5,-3314.6 2202.1,-3339.2C2164.7,-3357.5 2131.4,-3359.3 2131.4,-3359.3C2158.1,-3346.8 2229.9,-3266.1 2242.8,-3249.7ZM2421.2,-2919.8C2388.2,-2937.2 2360.5,-2941.8 2333.3,-2939.4C2302.2,-2936.7 2288.1,-2923 2288.1,-2923C2308.8,-2915.3 2342.6,-2897.3 2361,-2889C2395.3,-2873.4 2420.4,-2859.5 2465.3,-2849.3C2516,-2837.8 2549.2,-2850.8 2549.2,-2850.8C2516.6,-2867.7 2464.7,-2896.9 2421.2,-2919.8ZM2590.9,-2902.9C2634.3,-2892.1 2663.1,-2902.8 2663.1,-2902.8C2635.3,-2917.9 2591.1,-2943.9 2554.1,-2964.3C2526,-2979.8 2502.3,-2984.2 2478.8,-2982.7C2452,-2980.9 2439.7,-2969.4 2439.7,-2969.4C2457.4,-2962.4 2486.1,-2946.4 2501.8,-2938.8C2531,-2924.9 2552.4,-2912.5 2590.9,-2902.9ZM2742.3,-2844C2699.7,-2860.7 2665.3,-2862.6 2632.5,-2856C2594.9,-2848.5 2557.3,-2822.9 2557.3,-2822.9C2591.9,-2827.4 2649.2,-2807.1 2673.1,-2800.3C2722.1,-2786.5 2741.2,-2778.9 2801.6,-2770.2C2864.7,-2761.2 2907.7,-2779.2 2907.7,-2779.2C2865.6,-2795.5 2798.4,-2822 2742.3,-2844ZM2871.1,-2915.9C2832.8,-2930.9 2801.8,-2932.6 2772.3,-2926.7C2738.5,-2919.9 2704.6,-2895.1 2704.6,-2895.1C2735.7,-2899.2 2787.3,-2880.9 2808.8,-2874.8C2852.4,-2862.5 2877.6,-2849.7 2928,-2844C2985.1,-2837.5 3019.9,-2855.9 3019.9,-2855.9C2982.1,-2870.3 2921.6,-2896.1 2871.1,-2915.9ZM2951.6,-3000.1C2916.8,-3015.8 2888.2,-3018.8 2860.7,-3014.8C2829.1,-3010.1 2796.7,-2984.8 2796.7,-2984.8C2825.7,-2987.1 2872.6,-2967.7 2892.2,-2961.1C2932,-2947.7 2951.8,-2937.8 2998,-2930.6C3050.6,-2922.4 3086.7,-2933.6 3086.7,-2933.6C3052.3,-2948.9 2997.4,-2979.4 2951.6,-3000.1ZM2769.9,-3121.3C2791.1,-3115.1 2806.8,-3109.1 2833.7,-3106.9C2864.1,-3104.4 2882.3,-3114.8 2882.3,-3114.8C2861.9,-3121.9 2828.7,-3134.5 2802.3,-3144.2C2781.8,-3151.7 2765.2,-3151.9 2749.7,-3148.3C2731.9,-3144.1 2724.8,-3135.1 2724.8,-3135.1C2737.4,-3132.3 2758.5,-3124.6 2769.9,-3121.3ZM2593.4,-3033.2C2568.1,-3031 2556.6,-3019.9 2556.6,-3019.9C2573.5,-3013.6 2600.9,-2999 2615.9,-2992.1C2643.8,-2979.4 2661.2,-2972 2697.7,-2963.6C2739,-2954.2 2766,-2964.8 2766,-2964.8C2739.4,-2978.5 2700.2,-2998.4 2664.9,-3017.1C2638.1,-3031.3 2615.5,-3035.1 2593.4,-3033.2ZM2704.6,-3054.5C2730.7,-3045 2743.7,-3038.6 2777.3,-3033.6C2815.3,-3028 2839,-3039.5 2839,-3039.5C2814,-3050.1 2770.9,-3074.7 2740.8,-3085C2714.8,-3094 2700.6,-3093.9 2680.7,-3090.6C2657.9,-3086.8 2648.4,-3076 2648.4,-3076C2664.1,-3071.5 2690.6,-3059.6 2704.6,-3054.5ZM3018.1,-3090.7C2987.1,-3107.6 2960.8,-3112.4 2935,-3110.5C2905.4,-3108.4 2873.8,-3081.6 2873.8,-3081.6C2900.8,-3081.7 2942.8,-3060.6 2960.5,-3053.2C2996.4,-3038.1 3014,-3027.6 3056.2,-3017.8C3104.2,-3006.6 3138.4,-3014.5 3138.4,-3014.5C3107.6,-3030.8 3059,-3068.4 3018.1,-3090.7ZM3073.5,-3193.9C3046.7,-3212.8 3026.4,-3223.3 2999.1,-3220.9C2968.5,-3218.2 2938.9,-3192.6 2938.9,-3192.6C2963.7,-3189.9 3000.2,-3165.9 3015.7,-3157.2C3047.1,-3139.4 3062.2,-3127.9 3100,-3114.4C3143.1,-3099 3175.4,-3102.7 3175.4,-3102.7C3148.8,-3121.1 3108.8,-3169 3073.5,-3193.9ZM3125.6,-3300.9C3101.6,-3320.7 3080.7,-3333.1 3057.2,-3332C3026.5,-3330.5 2998.3,-3305.6 2998.3,-3305.6C3021.6,-3301.2 3054.4,-3275.8 3068.4,-3266.4C3096.9,-3247.3 3110.3,-3235.2 3145.1,-3219.6C3184.7,-3201.8 3215.6,-3202.9 3215.6,-3202.9C3191.8,-3222.3 3157.2,-3274.7 3125.6,-3300.9ZM3007.6,-3645C3034.9,-3605.6 3053.6,-3584 3074.7,-3562.7C3102.8,-3534.4 3121.6,-3528.9 3121.6,-3528.9C3121.3,-3550 3105,-3587.4 3074,-3634.3C3055.3,-3662.6 3026.2,-3695.2 3005.3,-3713.5C2987.9,-3728.7 2972.4,-3735.3 2966.1,-3727.3C2960.7,-3720.3 2984.8,-3677.9 3007.6,-3645ZM2837.3,-3556.3C2813.1,-3567.4 2792.5,-3572.1 2792.3,-3558.1C2792.2,-3550.3 2831.7,-3510.2 2860.3,-3480.3C2915.1,-3423.1 2930.4,-3412.5 2963.9,-3392C2996.9,-3371.8 3016,-3373.1 3016,-3373.1C3000.8,-3398.4 2978.9,-3436.4 2933.5,-3482.3C2906,-3510.1 2869.8,-3541.3 2837.3,-3556.3ZM2927.2,-3562.1C2959.8,-3522.4 2982.2,-3500.3 3007,-3479.9C3040,-3452.8 3060.4,-3450.6 3060.4,-3450.6C3055.3,-3469.6 3036.3,-3511.1 2998.2,-3557.6C2975.2,-3585.7 2944.4,-3617.7 2915.6,-3634.4C2894.2,-3646.8 2879,-3651.3 2875.2,-3641.9C2871.5,-3632.6 2902.8,-3591.8 2927.2,-3562.1ZM3320.8,-3389C3302.7,-3410 3280.4,-3466.3 3256.5,-3494.5C3238.3,-3515.9 3221.3,-3529.5 3200.6,-3532.9C3174.6,-3537.3 3143.9,-3514.5 3143.9,-3514.5C3163.9,-3506.9 3189,-3479.2 3200,-3468.6C3222.3,-3447.1 3232.3,-3434.3 3260.8,-3414.9C3293.2,-3393 3320.8,-3389 3320.8,-3389ZM3190.1,-3401.8C3169.5,-3423 3150.7,-3436.1 3128.7,-3438.3C3101.1,-3441.1 3070.5,-3415 3070.5,-3415C3092.1,-3408.4 3120.4,-3381.1 3132.6,-3370.7C3157.5,-3349.7 3168.9,-3336.9 3200.2,-3318.6C3235.8,-3297.7 3265.1,-3295.5 3265.1,-3295.5C3244.6,-3316.2 3217.2,-3373.8 3190.1,-3401.8ZM2029,-3387C1984.3,-3410.5 1944,-3413.8 1944,-3413.8C1975.8,-3397.7 2048.8,-3312.3 2063.9,-3292C2184.4,-3129.8 2244.8,-3067.2 2311.2,-3016.7C2363,-2977.3 2402.1,-2973.6 2402.1,-2973.6C2364.1,-3009.4 2252.2,-3160.3 2175.9,-3256.3C2130,-3314.3 2089.3,-3355.4 2029,-3387ZM2042.8,-3475.8C1991.5,-3529 1934.1,-3574.4 1917.5,-3585.1C1900.9,-3595.7 1882.1,-3608.6 1877.3,-3601.4C1874.4,-3597 1880,-3584.8 1885.4,-3576.1C1905.7,-3543.6 1922.1,-3519.6 1959.3,-3482.8C2044.7,-3398.5 2115.3,-3392.5 2115.3,-3392.5C2115.3,-3392.5 2112.4,-3403.5 2042.8,-3475.8ZM1803.6,-3591.4C1755.2,-3652.8 1699.6,-3706.8 1683.2,-3719.7C1666.8,-3732.6 1648.4,-3748.2 1642.6,-3741.2C1639,-3736.9 1644,-3726.9 1648.8,-3717.3C1666.7,-3681 1684.4,-3656.9 1719.5,-3614C1792.7,-3524.4 1882.5,-3475.1 1882.5,-3475.1C1882.5,-3475.1 1869.3,-3507.9 1803.6,-3591.4ZM1590.5,-3693C1532.4,-3784 1436.9,-3875.6 1404.9,-3903.3C1384.8,-3920.7 1367.9,-3929.7 1365,-3929.2C1365,-3929.2 1364.9,-3928.8 1365.1,-3927.8C1366.6,-3921.4 1376.5,-3906.8 1384.5,-3895.1C1386.3,-3892.4 1388.1,-3889.9 1389.6,-3887.5L1391.2,-3885C1440.1,-3811.7 1477.7,-3755.9 1497.2,-3727.9C1595.8,-3586.5 1651.4,-3547.8 1667.7,-3538.7C1664.7,-3553.3 1651.1,-3598.1 1590.5,-3693ZM1745.9,-3442.2C1796.6,-3370 1832.9,-3322.7 1945.4,-3201.1C2075.7,-3060.3 2182.9,-2986.5 2241.6,-2962.7C2227.4,-2977.6 2216.7,-2993.1 2198.6,-3019.2C2179.3,-3047 2153,-3085 2105.8,-3146.8C2008.3,-3274.4 1916.4,-3373.3 1824.8,-3449.2C1799.8,-3470 1733.1,-3525.2 1711,-3522.9C1709.1,-3522.7 1707.7,-3522.1 1706.7,-3520.9C1704.7,-3518.3 1701.6,-3505.2 1745.9,-3442.2ZM3855,-3166.7C3895.6,-3176.4 3939.6,-3194.5 3949.3,-3203C3949.3,-3203 3910.6,-3212.6 3851.4,-3203C3801,-3194.8 3769.3,-3177.6 3752.3,-3164.3C3752.4,-3164.3 3778.9,-3148.6 3855,-3166.7ZM3668.7,-2604.4L3611.3,-2436.2L3553.9,-2604.4C3547.2,-2623.9 3504.9,-2750.1 3449.8,-2914.3C3436.4,-2885 3425.6,-2861.5 3418.3,-2847.2C3417,-2844.5 3415.7,-2842.1 3414.6,-2840.1C3413.2,-2837.6 3411.7,-2834.8 3410.2,-2831.8L3611.4,-2232.6L3918.3,-3147.6C3913.4,-3146.3 3908.5,-3145.1 3903.7,-3143.9C3883.7,-3138.8 3864.2,-3134.2 3845.3,-3130.1C3758.2,-2870.8 3678.1,-2631.9 3668.7,-2604.4ZM3593.1,-3121.8C3575,-3125.8 3561.3,-3130 3552.3,-3133.2C3529.2,-3086.7 3506.7,-3038.8 3486.7,-2995.3C3554.3,-2793.7 3607.6,-2634.5 3611.2,-2624C3614.2,-2632.8 3652.1,-2745.9 3704.1,-2900.9C3687.4,-2926.8 3633.2,-3014.6 3592.9,-3121.8L3593.1,-3121.8ZM3291.9,-2380.1L3309.3,-2332.5L3315.1,-2316.6C3222.9,-2310.8 3149.9,-2234.2 3149.9,-2140.6C3149.9,-2089.4 3171.8,-2043.2 3206.7,-2011L3181.9,-1973L3176.2,-1964.2L3453.4,-1964.2C3477.2,-2030 3538.3,-2082.4 3611.3,-2082.4C3684.3,-2082.4 3745.5,-2030.1 3769.3,-1964.2L4046.5,-1964.2L4040.8,-1973L4016,-2011C4050.9,-2043.2 4072.8,-2089.4 4072.8,-2140.6C4072.8,-2234.2 3999.8,-2310.8 3907.6,-2316.6L3913.4,-2332.5L3930.8,-2380.1C4016,-2613.8 4138.5,-2949.5 4239.4,-3226.6C4221.4,-3224.1 4201.7,-3220.5 4180.7,-3216C4175.9,-3215 4171,-3213.9 4166,-3212.8C4013.6,-2794.7 3822,-2269.3 3819.1,-2261.3L3816,-2252.8L3896.4,-2252.8C3958.3,-2252.8 4008.6,-2202.5 4008.6,-2140.6C4008.6,-2078.7 3958.3,-2028.4 3896.4,-2028.4L3809.5,-2028.4C3765.8,-2101.4 3690.2,-2146.6 3611.4,-2146.6C3532.6,-2146.6 3457,-2101.4 3413.3,-2028.4L3326.4,-2028.4C3264.5,-2028.4 3214.2,-2078.7 3214.2,-2140.6C3214.2,-2202.5 3264.5,-2252.8 3326.4,-2252.8L3406.8,-2252.8L3403.7,-2261.3C3402.1,-2265.7 3345.5,-2420.8 3269.8,-2628.5C3266.6,-2625.2 3263.2,-2622 3259.9,-2618.7C3247,-2606.1 3233.2,-2593.7 3218.5,-2581.8C3244.7,-2509.4 3269.6,-2441.2 3291.9,-2380.1ZM6040.9,-2053.5C5942.9,-1991.2 5826.8,-1974.1 5784.3,-1970.9C5803.2,-1952.9 5774.1,-1940.1 5739.1,-1936.3C5655.6,-1927.3 5562.3,-1942.3 5507.2,-1957.3C5515.1,-1940.8 5496.2,-1921.3 5424.3,-1931.1C5401.6,-1934.2 5316.6,-1952.8 5239.5,-1988.8C5242.6,-1966.3 5213.1,-1958.2 5153.3,-1974.7C5121.1,-1983.6 5032.4,-2024 4973.4,-2075.9C4982.9,-2060.9 4957.2,-2037.5 4901.5,-2060.8C4847.4,-2083.4 4806.5,-2114.9 4762.4,-2157C4759.3,-2140.5 4749.8,-2124.2 4699.4,-2146.7C4644,-2171.5 4578.2,-2235.1 4578.2,-2235.1C4578.2,-2209.6 4546.5,-2213.9 4511.4,-2231.2C4449.1,-2261.9 4405.7,-2303.9 4383,-2331.3C4383,-2311.8 4366.4,-2301.1 4335.8,-2319.1C4282.3,-2350.6 4225.6,-2430.4 4225.6,-2430.4C4225.6,-2401.9 4204,-2405.4 4172.1,-2425.9C4126.5,-2455.2 4052.2,-2536.1 4052.2,-2536.1C4029.3,-2473.4 4007.6,-2413.7 3987.7,-2359.1C4075.7,-2322.6 4133.4,-2237.4 4133.4,-2140.3C4133.4,-2091.6 4119,-2045.5 4091.6,-2005.9L4158.7,-1903.3L3719.3,-1903.3C3719.3,-1965.2 3672.2,-2021.3 3611.4,-2021.3C3550.7,-2021.3 3503.5,-1965.2 3503.5,-1903.3L3064,-1903.3L3131.1,-2005.9C3103.7,-2045.5 3089.3,-2091.6 3089.3,-2140.3C3089.3,-2237.4 3146.9,-2322.6 3235,-2359.1C3214.1,-2416.3 3191.2,-2479.1 3167.1,-2545.2C3095.9,-2500.9 3007,-2469.8 2896.6,-2469.8C2581.2,-2469.8 2314.4,-2703.9 2215.4,-2789.7C2180.8,-2819.7 2137.4,-2863.6 2088.5,-2916.6C2088.5,-2916.5 2088.8,-2916.3 2088.8,-2916.3C2088.6,-2916.5 2088.4,-2916.7 2088.3,-2916.9C2083.2,-2922.4 2078,-2928.1 2072.8,-2933.8C1974.3,-3036.4 1733,-3207.9 1568.6,-3289.1C1523.4,-3311.4 1440.4,-3354.6 1385.5,-3371.1C1378.9,-3373.1 1372.7,-3374.7 1367.1,-3375.8C1356.3,-3378 1355.4,-3388.4 1363.5,-3393.5C1368.5,-3396.6 1376,-3399.4 1387.2,-3400.9C1428.3,-3406.1 1505.2,-3376.8 1562.8,-3348.7C1625.2,-3318.2 1715.5,-3262.6 1715.5,-3262.6L1718.1,-3265.4C1718.1,-3265.4 1568.5,-3399.9 1488.7,-3460.9C1408.9,-3521.8 1328,-3587.4 1210.1,-3643.3C1184.8,-3655.3 1164.6,-3659.4 1165.1,-3663.6C1166.3,-3673.8 1187.1,-3675.4 1213.2,-3669.4C1274.7,-3655.3 1319,-3632.1 1375.5,-3598.6C1480.4,-3536.6 1574.8,-3448.2 1593.7,-3435.2L1596.2,-3438.7C1596.2,-3438.7 1450.9,-3608.4 1394.1,-3662C1337.3,-3715.6 1244,-3796.1 1150.7,-3862.4C1127.9,-3878.6 1114.8,-3887.8 1122.1,-3895C1128.1,-3901 1135.2,-3898.2 1154.4,-3892.8C1190.9,-3882.4 1262.4,-3840.9 1370.2,-3751.9C1459.2,-3678.4 1539.4,-3593 1586,-3538.5C1586,-3538.5 1597.3,-3522.9 1612.8,-3501.4C1495.8,-3672.7 1327.6,-3922 1306.5,-3952.4C1285.7,-3982.3 1267.1,-4006.7 1262.7,-4018.7C1258.3,-4030.8 1264.4,-4038.2 1281.3,-4036.7C1306.5,-4034.5 1365.6,-4004.2 1442.1,-3931.6C1515.1,-3862.2 1612.8,-3720.1 1612.8,-3720.1L1617.5,-3722.9C1617.5,-3722.9 1597.8,-3764 1591.2,-3781.5C1585.1,-3797.7 1576.2,-3816.8 1590.2,-3822C1609.6,-3829.3 1646.6,-3804.8 1677.8,-3779.1C1752.1,-3718 1855,-3578 1855,-3578L1858.1,-3581C1858.1,-3581 1844,-3608.7 1837.5,-3626.2C1830.9,-3643.7 1829.8,-3663.4 1846.3,-3665.6C1862.7,-3667.8 1894.1,-3651.6 1942.7,-3615.2C1999.6,-3572.5 2122.3,-3435.6 2122.3,-3435.6L2125.5,-3438.9C2125.5,-3438.9 2110.9,-3463.3 2101.3,-3483.8C2093.1,-3501.4 2094.7,-3519.6 2107,-3523.2C2126.3,-3528.8 2157,-3521.3 2230.7,-3470.8C2308.3,-3417.7 2357.9,-3348.2 2380.8,-3324.9L2384,-3327.1C2384,-3327.1 2369.1,-3350.9 2364.3,-3365C2359.3,-3379.4 2356.2,-3397.6 2370.9,-3399.4C2391.5,-3401.9 2426.2,-3387.2 2468.3,-3359.5C2506.5,-3334.4 2535.7,-3312.1 2535.7,-3312.1L2538.6,-3315.5C2527.2,-3328.4 2516.5,-3345.6 2509.2,-3357.7C2503.6,-3366.9 2495.5,-3383.7 2506.5,-3392.5C2517.4,-3401.3 2543.7,-3394 2575.8,-3381.9C2610.5,-3368.8 2670,-3333.7 2670,-3333.7L2673.9,-3337.4C2666.7,-3343.3 2636,-3373.3 2625.1,-3386.4C2614.2,-3399.5 2605.1,-3417.2 2610.6,-3428.1C2616.1,-3439 2637.9,-3439.5 2668.6,-3433.2C2706.2,-3425.4 2770.9,-3392 2770.9,-3391.9C2770.9,-3391.9 2720.5,-3431.3 2698.2,-3452.3C2680.1,-3469.4 2670.5,-3492.8 2677.7,-3503.4C2679.7,-3506.3 2682.8,-3508.3 2686.6,-3509.6C2684.3,-3510.3 2681.9,-3511 2679.5,-3511.7C2584.2,-3539.6 2370.4,-3603.3 2202.5,-3682.6C2100.6,-3730.7 2088.7,-3753.4 2096,-3771C2101.5,-3784.2 2148.5,-3779.6 2182.4,-3774.1C2216.3,-3768.5 2292.5,-3749.7 2301.5,-3746L2305,-3750C2305,-3750 2253.8,-3771.1 2236,-3781.9C2218.2,-3792.7 2191.2,-3809.8 2196.2,-3825.6C2201.2,-3841.3 2263.4,-3828.5 2291.7,-3822.4C2337.9,-3812.5 2395.1,-3788.9 2400.7,-3785.3L2403.1,-3789.3C2403.1,-3789.3 2322.8,-3835 2327,-3862.8C2329.1,-3876.4 2357.6,-3873.9 2386.7,-3868C2318.8,-3910.4 2273.4,-3985.6 2273.4,-4071.4C2273.4,-4128.9 2293.4,-4183.1 2330.2,-4226.4C2170.6,-4368.2 2030.4,-4457.3 2028.9,-4458.2L1962.9,-4499.9L2627,-4499.9C2627.2,-4423.9 2688.9,-4362.3 2764.9,-4362.3C2841,-4362.3 2902.6,-4423.9 2902.8,-4499.9L3476.7,-4499.7L3475.3,-4499.7C3263.9,-4374.3 3099.2,-4155 3189.5,-3882.8C3199.1,-3875.4 3208.1,-3866.6 3215.1,-3859.3C3239.7,-3833.7 3266.2,-3780.3 3266.2,-3780.3L3271.4,-3783.4C3269.5,-3799.4 3259.8,-3844.3 3258.2,-3870.7C3256.8,-3892.6 3256.7,-3936.8 3286.6,-3940.8C3304.3,-3943.1 3329.7,-3923.6 3345.2,-3886.7L3384.4,-3903.1C3388,-3926.7 3399.1,-3950.8 3421,-3950.8C3439.4,-3950.8 3449.6,-3935.3 3453.4,-3916.5C3484.9,-3923.7 3632.7,-3955.5 3793.6,-3955.5C3877.5,-3955.5 3962.3,-3947.2 4045.7,-3927.9C4104.8,-4179.2 3946.9,-4381.4 3747.2,-4499.8L3745.8,-4499.8L4319.7,-4500C4319.9,-4424 4381.5,-4362.4 4457.6,-4362.4C4533.6,-4362.4 4595.3,-4424 4595.5,-4500L5259.6,-4500L5193.7,-4458.3C5192.2,-4457.4 5052,-4368.3 4892.4,-4226.5C4929.2,-4183.2 4949.2,-4129.1 4949.2,-4071.5C4949.2,-3939.2 4841.6,-3831.6 4709.3,-3831.6C4661.1,-3831.6 4614,-3846.2 4574.4,-3873.1C4533.7,-3812.7 4500.6,-3752.7 4475.6,-3694.2C4555.1,-3625.6 4567.9,-3603.4 4648,-3545.3C4743.7,-3475.8 4850.1,-3433.2 4925.5,-3368.7C4965.3,-3334.7 4990.5,-3286.2 4997.8,-3253.8C5009.4,-3202.4 4988.3,-3176.6 4988.3,-3176.6C4980.9,-3189.9 4974.1,-3213.2 4932.6,-3235C4904.9,-3249.6 4893.5,-3254 4893.5,-3254C4914.5,-3227 4914.5,-3227 4937,-3193.6C4966.5,-3149.9 4990.6,-3132.3 5008.1,-3132.3C5035.4,-3132.3 5033.2,-3167.2 5033.2,-3167.2C5053.1,-3156.1 5062.3,-3129.1 5062.4,-3095.2C5062.5,-3076.5 5048.4,-3034.4 4985,-3032.5C4924.7,-3030.7 4855.6,-3080.4 4844.4,-3088.4C4840.2,-3062 4810.4,-3038.5 4770.2,-3043C4730.8,-3047.4 4691.6,-3050.9 4600.3,-3104.8C4547.2,-3136.2 4429.7,-3220.5 4305,-3229.2C4306.4,-3228.8 4439.5,-3187.7 4580.5,-3036.4C4759.7,-2844.1 4913.6,-2539.9 5170.2,-2341.7C5320.3,-2225.7 5437.9,-2179.5 5541.8,-2175C5661.4,-2169.8 5666.2,-2205 5677.2,-2199C5688.2,-2193 5690.2,-2172 5650.4,-2154.8C5568.5,-2119.4 5442.6,-2143.4 5442.6,-2143.4C5464.6,-2122.4 5552.8,-2090.8 5650.4,-2096.8C5729,-2101.6 5787.4,-2119.3 5822,-2155.4C5833.5,-2167.4 5837.8,-2180.9 5848.8,-2177.9C5859.8,-2174.9 5862.4,-2154.2 5851.9,-2138.8C5802.8,-2066.6 5659.8,-2062.2 5659.8,-2062.2C5719.7,-2050.2 5796.8,-2063.7 5837.7,-2075.7C5878.6,-2087.7 5906.1,-2099.1 5940.1,-2122.3C5956.5,-2133.5 5966.6,-2147.9 5978.8,-2144.8C5996.7,-2140.3 5984.8,-2117.5 5970,-2102.7C5932.2,-2065.1 5864.5,-2042.6 5864.5,-2042.6C5888.1,-2041.1 5935.2,-2046 5992,-2071.5C6055,-2099.7 6081.5,-2131.1 6091.2,-2125.3C6108.6,-2115.1 6074,-2074.6 6040.9,-2053.5" style="fill:white;fill-rule:nonzero;"/>
        </g>
    </g>
</svg>
