<?xml version="1.0" encoding="UTF-8" standalone="no"?>
<!DOCTYPE svg PUBLIC "-//W3C//DTD SVG 1.1//EN" "http://www.w3.org/Graphics/SVG/1.1/DTD/svg11.dtd">
<svg width="100%" height="100%" viewBox="0 0 44 44" version="1.1" xmlns="http://www.w3.org/2000/svg" xmlns:xlink="http://www.w3.org/1999/xlink" xml:space="preserve" xmlns:serif="http://www.serif.com/" style="fill-rule:evenodd;clip-rule:evenodd;stroke-linejoin:round;stroke-miterlimit:2;">
    <path d="M24.393,22L31.319,15.074C31.979,14.414 31.979,13.34 31.319,12.68C31,12.36 30.575,12.184 30.122,12.184C29.67,12.184 29.245,12.36 28.926,12.68L22,19.606L15.073,12.68C14.754,12.36 14.329,12.184 13.877,12.184C13.424,12.184 12.999,12.36 12.68,12.68C12.02,13.34 12.02,14.414 12.68,15.073L19.606,22L12.68,28.927C12.36,29.246 12.184,29.671 12.184,30.123C12.184,30.576 12.36,31 12.68,31.32C12.999,31.639 13.424,31.816 13.876,31.816C14.328,31.816 14.752,31.64 15.073,31.32L21.999,24.393L28.926,31.32C29.245,31.639 29.67,31.816 30.122,31.816C30.574,31.816 31,31.64 31.319,31.32C31.638,31 31.815,30.575 31.815,30.123C31.815,29.671 31.639,29.246 31.319,28.927L24.392,22L24.393,22Z" style="fill:rgb(255,49,49);fill-rule:nonzero;"/>
    <path d="M22,0C9.869,0 0,9.869 0,22C0,34.131 9.869,44 22,44C34.131,44 44,34.131 44,22C44,9.869 34.131,0 22,0ZM22,40.616C11.735,40.616 3.384,32.265 3.384,22C3.384,11.735 11.735,3.384 22,3.384C32.265,3.384 40.616,11.735 40.616,22C40.616,32.265 32.265,40.616 22,40.616Z" style="fill:rgb(255,49,49);fill-rule:nonzero;"/>
</svg>
