<svg width="2684" height="254" viewBox="0 0 2684 254" fill="none" xmlns="http://www.w3.org/2000/svg">
<path d="M0.834961 253.048V0.958984H202.63V51.252H51.129V101.545H151.716V152.46H51.129V202.753H202.631V253.047H0.834961V253.048Z" fill="white"/>
<path d="M421.191 253.048L319.983 0.958984H374.003L446.649 180.401L518.053 0.958984H572.072L471.485 253.048H421.191Z" fill="white"/>
<path d="M703.084 253.048V0.958984H904.879V51.252H753.378V101.545H853.965V152.46H753.378V202.753H904.88V253.047H703.084V253.048Z" fill="white"/>
<path d="M1238.31 142.525L1274.32 253.047H1221.54L1188.64 152.46H1100.47V253.047H1050.17V0.957982H1201.05C1221.24 0.686982 1240.7 8.51394 1255.07 22.6889C1269.59 36.8389 1277.48 56.447 1276.81 76.708C1277.47 104.168 1262.57 129.646 1238.31 142.525ZM1100.47 101.546H1201.05C1207.82 101.619 1214.32 98.9279 1219.06 94.0949C1223.99 89.4239 1226.7 82.876 1226.51 76.089C1226.51 62.029 1215.11 50.631 1201.05 50.631H1100.47V101.546Z" fill="white"/>
<path d="M1426.44 253.048V0.958984H1476.74V202.754H1602.78V253.048H1426.44V253.048Z" fill="white"/>
<path d="M1905.78 202.754H1802.09L1781.6 253.048H1727.58L1828.79 0.958984H1879.09L1980.29 253.048H1926.27L1905.78 202.754ZM1885.3 152.461L1853.63 73.605L1821.96 152.461H1885.3Z" fill="white"/>
<path d="M2329.25 0.958984V253.048H2278.95L2152.91 85.402V253.048H2102.61V0.958984H2152.91L2278.95 168.605V0.958984H2329.25Z" fill="white"/>
<path d="M2481.37 253.048V0.958984H2683.16V51.252H2531.66V101.545H2632.25V152.46H2531.66V202.753H2683.16V253.047H2481.37V253.048Z" fill="white"/>
</svg>
