<svg width="250" height="34" viewBox="0 0 250 34" fill="none" xmlns="http://www.w3.org/2000/svg">
<g clip-path="url(#clip0_2186_2703)">
<path d="M64.3307 11.2056H52.1224C50.0391 11.2056 48.3307 12.995 48.2891 15.2532V33.9574H52.9557V25.1805H63.0391V20.6216H52.9557V15.7645H64.3724L64.3307 11.2056Z" fill="white"/>
<path d="M129.75 15.8496V11.248H128.958C126.833 11.248 125.125 13.1227 125.125 15.3809V33.9573H140.292V29.441H129.792V15.8496H129.75Z" fill="white"/>
<path d="M152.125 24.7117H162.083V20.2806H152.125V15.6791H163.458V11.248H151.333C149.208 11.248 147.5 13.1227 147.5 15.3809V33.9573H163.583V29.5262H152.125V24.7117Z" fill="white"/>
<path d="M243.458 20.4084C239.917 19.4285 239.042 18.9598 239.042 17.5112V17.4686C239.042 16.4034 239.958 15.5513 241.667 15.5513C243.375 15.5513 245.167 16.3608 247 17.7242L249.333 14.0601C247.25 12.2706 244.708 11.248 241.708 11.248C237.5 11.248 234.542 13.8897 234.542 17.8947V17.9373C234.542 22.3257 237.208 23.5613 241.333 24.7117C244.792 25.649 245.5 26.2881 245.5 27.5237V27.6089C245.5 28.8871 244.375 29.6541 242.542 29.6541C240.208 29.6541 238.25 28.6315 236.417 26.9699L233.75 30.421C236.208 32.8069 239.333 33.9573 242.458 33.9573C246.875 33.9573 250 31.4861 250 27.0977V27.0125C249.958 23.1779 247.625 21.6014 243.458 20.4084Z" fill="white"/>
<path d="M218.164 29.4836C214.664 29.4836 212.247 26.3308 212.247 22.5814V22.4962C212.247 18.7468 214.747 15.6365 218.164 15.6365C220.206 15.6365 221.831 16.5739 223.414 18.1077L226.247 14.5714C224.372 12.5689 222.039 11.1628 218.206 11.1628C211.914 11.1628 207.539 16.2756 207.539 22.5388V22.624C207.539 28.9298 211.997 33.9147 217.997 33.9147C221.956 33.9147 224.289 32.3809 226.372 29.9949L223.539 26.8846C221.914 28.5037 220.497 29.4836 218.164 29.4836Z" fill="white"/>
<path d="M113.253 27.0977C113.253 28.8019 112.003 29.5688 109.961 29.5688H104.461V24.5839H109.836C112.211 24.5839 113.253 25.5212 113.253 27.0551V27.0977ZM104.419 15.5939H109.003C110.961 15.5939 112.044 16.446 112.044 17.9373V18.0225C112.044 19.6841 110.753 20.4084 108.711 20.4084H104.419V15.5939ZM113.919 22.0701C115.419 21.1754 116.711 19.7267 116.711 17.1704V17.1277C116.711 13.5914 114.086 11.2907 109.836 11.248H103.794C101.669 11.248 99.9609 13.1227 99.9609 15.3809V33.9999H109.961C114.753 33.9999 117.878 31.9122 117.878 27.7794V27.6942C117.878 24.6265 116.336 23.0927 113.919 22.0701Z" fill="white"/>
<path d="M186.917 11.2056H174.708C172.583 11.2056 170.875 13.0803 170.875 15.3384V15.8071H177.292V33.9148H181.958V15.8071H188.375V11.2056H186.917Z" fill="white"/>
<path d="M195.539 15.3809V33.9573H200.206V11.248H199.414C197.289 11.2054 195.539 13.0801 195.539 15.3809Z" fill="white"/>
<path d="M81.375 17.0851L84.2083 24.4561H78.5833L81.375 17.0851ZM79.25 11.248L70.25 33.9999H75L76.9167 28.9298H85.8333L87.75 33.9999H92.625L83.625 11.248H79.25Z" fill="white"/>
<path d="M64.3307 11.248H52.1224C50.0391 11.248 48.3307 13.0375 48.2891 15.2957V33.9999H52.9557V25.223H63.0391V20.6641H52.9557V15.8069H64.3724L64.3307 11.248Z" fill="white"/>
<path d="M129.75 15.8496V11.248H128.958C126.833 11.248 125.125 13.1227 125.125 15.3809V33.9573H140.292V29.441H129.792V15.8496H129.75Z" fill="white"/>
<path d="M152.125 24.7544H162.083V20.3234H152.125V15.7218H163.458V11.2908H151.333C149.208 11.2908 147.5 13.1655 147.5 15.4236V34H163.583V29.569H152.125V24.7544Z" fill="white"/>
<path d="M243.458 20.4084C239.917 19.4285 239.042 18.9598 239.042 17.5112V17.4686C239.042 16.4034 239.958 15.5513 241.667 15.5513C243.375 15.5513 245.167 16.3608 247 17.7242L249.333 14.0601C247.25 12.2706 244.708 11.248 241.708 11.248C237.5 11.248 234.542 13.8897 234.542 17.8947V17.9373C234.542 22.3257 237.208 23.5613 241.333 24.7117C244.792 25.649 245.5 26.2881 245.5 27.5237V27.6089C245.5 28.8871 244.375 29.6541 242.542 29.6541C240.208 29.6541 238.25 28.6315 236.417 26.9699L233.75 30.421C236.208 32.8069 239.333 33.9573 242.458 33.9573C246.875 33.9573 250 31.4861 250 27.0977V27.0551C249.958 23.2205 247.625 21.6014 243.458 20.4084Z" fill="white"/>
<path d="M218.164 29.5264C214.664 29.5264 212.247 26.3735 212.247 22.6241V22.5389C212.247 18.7895 214.747 15.6793 218.164 15.6793C220.206 15.6793 221.831 16.6166 223.414 18.1504L226.247 14.6141C224.372 12.6116 222.039 11.2056 218.206 11.2056C211.914 11.2056 207.539 16.3183 207.539 22.5815V22.6667C207.539 28.9725 211.997 33.9574 217.997 33.9574C221.956 33.9574 224.289 32.4236 226.372 30.0376L223.539 26.9274C221.914 28.5038 220.497 29.5264 218.164 29.5264Z" fill="white"/>
<path d="M113.253 27.1403C113.253 28.8019 112.003 29.6115 109.961 29.6115H104.461V24.6265H109.836C112.211 24.6265 113.253 25.5638 113.253 27.0977V27.1403ZM104.419 15.6365H109.003C110.961 15.6365 112.044 16.4886 112.044 17.9799V18.0651C112.044 19.7267 110.753 20.4511 108.711 20.4511H104.419V15.6365ZM113.919 22.0701C115.419 21.1754 116.711 19.7267 116.711 17.1704V17.1277C116.711 13.5914 114.086 11.2907 109.836 11.248H103.794C101.669 11.248 99.9609 13.1227 99.9609 15.3809V33.9999H109.961C114.753 33.9999 117.878 31.9122 117.878 27.7794V27.6942C117.878 24.6265 116.336 23.0927 113.919 22.0701Z" fill="white"/>
<path d="M186.917 11.248H174.708C172.583 11.248 170.875 13.1227 170.875 15.3809V15.8496H177.292V33.9573H181.958V15.8496H188.375V11.248H186.917Z" fill="white"/>
<path d="M195.539 15.3809V33.9573H200.206V11.248H199.414C197.289 11.248 195.539 13.0801 195.539 15.3809Z" fill="white"/>
<path d="M35.875 1.9599C35.5417 3.06767 34.9167 4.5589 33.7917 5.75188C33.7917 5.75188 32.375 7.8396 28.9583 9.28822C28.9583 9.28822 26.7917 10.2682 22.9583 10.6516C22.9583 10.6516 19.7083 11.0351 14.8333 10.9499C14.4583 10.9499 13.75 10.9073 13.75 10.9073H13.7083C8.91667 10.8647 6.91667 11.7168 6.91667 11.7168C4.54167 12.5689 3.04167 15.2105 2.125 17.5113C2.08333 17.5965 0.958333 20.4937 0 25.7343V25.7769V13.9323C0 13.3358 0.0416667 12.6967 0.0833333 12.1003C0.5 8.35088 2.58333 5.15539 5.54167 3.40852C6.16667 2.98246 9 1.70426 13.5417 1.66165C14.9167 1.66165 22.5833 1.57644 26.0417 1.44862C34 1.15038 36.2917 0 36.2917 0C36.0833 1.3208 35.875 1.9599 35.875 1.9599ZM24.125 20.0251C19.4583 22.1128 11 21.8145 9.41667 22.1554C7.83333 22.4536 4 22.0276 1.20833 28.1203C1.79167 27.3534 2.70833 26.8847 3.70833 26.8847C5.5 26.8847 6.95833 28.4612 6.95833 30.3784C6.95833 32.2957 5.5 33.8722 3.70833 33.8722C2.375 33.8722 1.25 33.0201 0.75 31.8271C0.708333 31.6992 0.625 31.5288 0.583333 31.401C0.583333 31.3584 0.541667 31.3158 0.541667 31.2306C0.5 31.1028 0.5 31.0175 0.5 30.8897C0.458333 30.7619 0.458333 30.5915 0.458333 30.4211V30.0376C0.5 29.6115 0.541667 29.1429 0.583333 28.7168V28.5464C0.958333 25.8622 1.79167 23.0927 1.79167 23.0927C2.25 21.4737 2.5 20.8772 2.54167 20.8346C3.45833 18.5338 5 15.8922 7.375 15.0401C7.375 15.0401 9.375 14.188 14.2083 14.2306H14.2917C14.625 14.2306 14.9583 14.2306 15.3333 14.2732C20.2083 14.3584 23.4583 13.9749 23.4583 13.9749C27.2917 13.6341 29.5833 12.8672 31.4583 11.5464C31.0833 13.1228 29.5417 17.5965 24.125 20.0251Z" fill="white"/>
</g>
<defs>
<clipPath id="clip0_2186_2703">
<rect width="250" height="34" fill="white"/>
</clipPath>
</defs>
</svg>
