<svg width="23" height="22" viewBox="0 0 23 22" fill="none" xmlns="http://www.w3.org/2000/svg">
<g clip-path="url(#clip0_324_13454)">
<path d="M11.0137 21.4932C17.0888 21.4932 22.0137 16.7922 22.0137 10.9932C22.0137 5.19417 17.0888 0.493164 11.0137 0.493164C4.93854 0.493164 0.0136719 5.19417 0.0136719 10.9932C0.0136719 16.7922 4.93854 21.4932 11.0137 21.4932Z" fill="#33B533" fill-opacity="0.2"/>
<path d="M9.61351 16.0927C9.61073 16.0927 9.60813 16.0927 9.60535 16.0927C9.24382 16.0902 8.90566 15.9215 8.69734 15.6394L5.36006 11.1216C5.00334 10.6385 5.12429 9.97099 5.63014 9.63049C6.13599 9.28999 6.8355 9.40544 7.19221 9.8883L9.62743 13.1849L14.8445 6.33459C15.2085 5.85651 15.9097 5.7508 16.4103 6.09838C16.9112 6.44578 17.0219 7.11509 16.6578 7.59299L10.52 15.652C10.3089 15.9291 9.97189 16.0929 9.61333 16.0929L9.61351 16.0927Z" fill="#33B533"/>
</g>
<defs>
<clipPath id="clip0_324_13454">
<rect width="22" height="21" fill="white" transform="translate(0.0136719 0.493164)"/>
</clipPath>
</defs>
</svg>
