<svg width="448" height="289" viewBox="0 0 448 289" fill="none" xmlns="http://www.w3.org/2000/svg">
<rect y="289" width="61" height="433" rx="30" transform="rotate(-90 0 289)" fill="url(#paint0_linear_696_524)"/>
<rect y="213" width="61" height="433" rx="30" transform="rotate(-90 0 213)" fill="url(#paint1_linear_696_524)"/>
<rect y="137" width="61" height="433" rx="30" transform="rotate(-90 0 137)" fill="url(#paint2_linear_696_524)"/>
<rect y="61" width="61" height="433" rx="30" transform="rotate(-90 0 61)" fill="url(#paint3_linear_696_524)"/>
<path d="M42.6412 23.6873V36H40.1716V27.9914L36.8729 36H35.0031L31.6868 27.9914V36H29.2172V23.6873H32.0219L35.938 32.8424L39.8541 23.6873H42.6412ZM43.9186 31.0784C43.9186 30.0906 44.1126 29.2145 44.5007 28.4501C44.9005 27.6857 45.4356 27.0977 46.1059 26.6861C46.788 26.2745 47.5465 26.0687 48.3815 26.0687C49.1106 26.0687 49.7457 26.2157 50.2866 26.5097C50.8393 26.8037 51.2803 27.1741 51.6096 27.621V26.2274H54.0969V36H51.6096V34.5712C51.2921 35.0298 50.8511 35.412 50.2866 35.7178C49.7339 36.0118 49.093 36.1588 48.3639 36.1588C47.5407 36.1588 46.788 35.9471 46.1059 35.5237C45.4356 35.1004 44.9005 34.5065 44.5007 33.7421C44.1126 32.9659 43.9186 32.078 43.9186 31.0784ZM51.6096 31.1137C51.6096 30.514 51.492 30.0024 51.2568 29.579C51.0216 29.1439 50.7041 28.8146 50.3043 28.5912C49.9044 28.356 49.4752 28.2384 49.0165 28.2384C48.5579 28.2384 48.1345 28.3501 47.7465 28.5736C47.3584 28.797 47.0409 29.1263 46.7939 29.5614C46.5587 29.9848 46.4411 30.4904 46.4411 31.0784C46.4411 31.6664 46.5587 32.1839 46.7939 32.6308C47.0409 33.0659 47.3584 33.401 47.7465 33.6362C48.1463 33.8714 48.5697 33.989 49.0165 33.989C49.4752 33.989 49.9044 33.8773 50.3043 33.6539C50.7041 33.4187 51.0216 33.0894 51.2568 32.666C51.492 32.2309 51.6096 31.7135 51.6096 31.1137ZM58.4493 27.7445C58.7668 27.227 59.1784 26.8213 59.6841 26.5273C60.2015 26.2333 60.7895 26.0863 61.4481 26.0863V28.6794H60.7954C60.0192 28.6794 59.4312 28.8617 59.0314 29.2262C58.6433 29.5908 58.4493 30.2258 58.4493 31.1314V36H55.9797V26.2274H58.4493V27.7445ZM68.3682 36L65.0519 31.837V36H62.5823V22.9464H65.0519V30.3728L68.3329 26.2274H71.5434L67.2392 31.1314L71.5787 36H68.3682ZM81.4391 30.902C81.4391 31.2548 81.4156 31.5724 81.3686 31.8546H74.2244C74.2832 32.5602 74.5301 33.1129 74.9653 33.5128C75.4004 33.9126 75.9355 34.1125 76.5705 34.1125C77.4878 34.1125 78.1405 33.7186 78.5285 32.9306H81.1922C80.9099 33.8714 80.369 34.6476 79.5693 35.2591C78.7696 35.8589 77.7877 36.1588 76.6234 36.1588C75.6826 36.1588 74.8359 35.953 74.0833 35.5414C73.3424 35.118 72.7603 34.5241 72.3369 33.7597C71.9253 32.9953 71.7195 32.1133 71.7195 31.1137C71.7195 30.1024 71.9253 29.2145 72.3369 28.4501C72.7485 27.6857 73.3247 27.0977 74.0656 26.6861C74.8065 26.2745 75.6591 26.0687 76.6234 26.0687C77.5525 26.0687 78.3815 26.2686 79.1107 26.6684C79.8515 27.0683 80.4219 27.6386 80.8217 28.3795C81.2333 29.1086 81.4391 29.9495 81.4391 30.902ZM78.8813 30.1964C78.8696 29.5614 78.6403 29.0557 78.1934 28.6794C77.7465 28.2913 77.1997 28.0973 76.5529 28.0973C75.9413 28.0973 75.4239 28.2854 75.0005 28.6618C74.5889 29.0263 74.3361 29.5379 74.242 30.1964H78.8813ZM85.5878 28.256V32.9836C85.5878 33.3128 85.6643 33.5539 85.8172 33.7068C85.9818 33.8479 86.2523 33.9185 86.6286 33.9185H87.7752V36H86.2229C84.1414 36 83.1006 34.9886 83.1006 32.9659V28.256H81.9364V26.2274H83.1006V23.8108H85.5878V26.2274H87.7752V28.256H85.5878ZM90.2747 25.0632C89.8396 25.0632 89.475 24.928 89.181 24.6575C88.8988 24.3752 88.7577 24.0283 88.7577 23.6167C88.7577 23.2051 88.8988 22.8641 89.181 22.5936C89.475 22.3114 89.8396 22.1702 90.2747 22.1702C90.7098 22.1702 91.0685 22.3114 91.3508 22.5936C91.6448 22.8641 91.7918 23.2051 91.7918 23.6167C91.7918 24.0283 91.6448 24.3752 91.3508 24.6575C91.0685 24.928 90.7098 25.0632 90.2747 25.0632ZM91.4919 26.2274V36H89.0223V26.2274H91.4919ZM98.8181 26.0863C99.9824 26.0863 100.923 26.4568 101.641 27.1976C102.358 27.9268 102.717 28.9499 102.717 30.267V36H100.247V30.6022C100.247 29.826 100.053 29.2321 99.6648 28.8205C99.2768 28.3972 98.7476 28.1855 98.0772 28.1855C97.3952 28.1855 96.8542 28.3972 96.4544 28.8205C96.0663 29.2321 95.8722 29.826 95.8722 30.6022V36H93.4026V26.2274H95.8722V27.4446C96.2015 27.0212 96.619 26.692 97.1247 26.4568C97.6421 26.2098 98.2066 26.0863 98.8181 26.0863ZM108.364 26.0687C109.093 26.0687 109.734 26.2157 110.286 26.5097C110.839 26.7919 111.274 27.1624 111.592 27.621V26.2274H114.079V36.0706C114.079 36.9761 113.897 37.7816 113.532 38.4872C113.168 39.2046 112.621 39.7691 111.892 40.1807C111.163 40.604 110.281 40.8157 109.246 40.8157C107.858 40.8157 106.717 40.4923 105.824 39.8455C104.942 39.1987 104.442 38.3167 104.324 37.1995H106.776C106.905 37.6464 107.182 37.9992 107.605 38.2579C108.04 38.5284 108.564 38.6636 109.175 38.6636C109.893 38.6636 110.475 38.4461 110.922 38.011C111.368 37.5876 111.592 36.9408 111.592 36.0706V34.5535C111.274 35.0122 110.833 35.3944 110.269 35.7001C109.716 36.0059 109.081 36.1588 108.364 36.1588C107.541 36.1588 106.788 35.9471 106.106 35.5237C105.424 35.1004 104.883 34.5065 104.483 33.7421C104.095 32.9659 103.901 32.078 103.901 31.0784C103.901 30.0906 104.095 29.2145 104.483 28.4501C104.883 27.6857 105.418 27.0977 106.088 26.6861C106.77 26.2745 107.529 26.0687 108.364 26.0687ZM111.592 31.1137C111.592 30.514 111.474 30.0024 111.239 29.579C111.004 29.1439 110.686 28.8146 110.286 28.5912C109.887 28.356 109.457 28.2384 108.999 28.2384C108.54 28.2384 108.117 28.3501 107.729 28.5736C107.341 28.797 107.023 29.1263 106.776 29.5614C106.541 29.9848 106.423 30.4904 106.423 31.0784C106.423 31.6664 106.541 32.1839 106.776 32.6308C107.023 33.0659 107.341 33.401 107.729 33.6362C108.129 33.8714 108.552 33.989 108.999 33.989C109.457 33.989 109.887 33.8773 110.286 33.6539C110.686 33.4187 111.004 33.0894 111.239 32.666C111.474 32.2309 111.592 31.7135 111.592 31.1137Z" fill="#0B0B0B"/>
<path d="M33.5213 100.687C34.8149 100.687 35.9498 100.94 36.9258 101.446C37.9137 101.951 38.6722 102.675 39.2014 103.616C39.7424 104.545 40.0128 105.626 40.0128 106.861C40.0128 108.096 39.7424 109.178 39.2014 110.107C38.6722 111.024 37.9137 111.736 36.9258 112.241C35.9498 112.747 34.8149 113 33.5213 113H29.2172V100.687H33.5213ZM33.4331 110.901C34.7267 110.901 35.7263 110.548 36.4319 109.842C37.1375 109.137 37.4903 108.143 37.4903 106.861C37.4903 105.579 37.1375 104.58 36.4319 103.862C35.7263 103.133 34.7267 102.769 33.4331 102.769H31.6868V110.901H33.4331ZM50.4169 107.902C50.4169 108.255 50.3933 108.572 50.3463 108.855H43.2021C43.2609 109.56 43.5079 110.113 43.943 110.513C44.3781 110.913 44.9132 111.113 45.5482 111.113C46.4655 111.113 47.1182 110.719 47.5063 109.931H50.1699C49.8877 110.871 49.3467 111.648 48.547 112.259C47.7473 112.859 46.7654 113.159 45.6011 113.159C44.6603 113.159 43.8136 112.953 43.061 112.541C42.3201 112.118 41.738 111.524 41.3146 110.76C40.903 109.995 40.6972 109.113 40.6972 108.114C40.6972 107.102 40.903 106.214 41.3146 105.45C41.7262 104.686 42.3025 104.098 43.0433 103.686C43.7842 103.274 44.6368 103.069 45.6011 103.069C46.5302 103.069 47.3593 103.269 48.0884 103.668C48.8293 104.068 49.3996 104.639 49.7995 105.38C50.2111 106.109 50.4169 106.949 50.4169 107.902ZM47.8591 107.196C47.8473 106.561 47.618 106.056 47.1711 105.679C46.7242 105.291 46.1774 105.097 45.5306 105.097C44.9191 105.097 44.4016 105.285 43.9783 105.662C43.5667 106.026 43.3138 106.538 43.2197 107.196H47.8591ZM55.4299 113.159C54.6302 113.159 53.9129 113.018 53.2778 112.735C52.6428 112.441 52.1371 112.047 51.7608 111.554C51.3962 111.06 51.1963 110.513 51.161 109.913H53.6483C53.6953 110.289 53.8776 110.601 54.1951 110.848C54.5244 111.095 54.9301 111.218 55.4123 111.218C55.8827 111.218 56.2472 111.124 56.506 110.936C56.7764 110.748 56.9117 110.507 56.9117 110.213C56.9117 109.895 56.747 109.66 56.4178 109.507C56.1002 109.343 55.5887 109.166 54.8831 108.978C54.154 108.802 53.5542 108.619 53.0838 108.431C52.6252 108.243 52.2253 107.955 51.8843 107.567C51.555 107.179 51.3904 106.655 51.3904 105.997C51.3904 105.456 51.5432 104.962 51.849 104.515C52.1665 104.068 52.6134 103.715 53.1896 103.457C53.7776 103.198 54.4656 103.069 55.2535 103.069C56.4178 103.069 57.3468 103.363 58.0406 103.951C58.7345 104.527 59.1167 105.309 59.1872 106.297H56.8235C56.7882 105.909 56.6236 105.603 56.3296 105.38C56.0473 105.144 55.6651 105.027 55.183 105.027C54.7361 105.027 54.3892 105.109 54.1422 105.274C53.907 105.438 53.7894 105.668 53.7894 105.962C53.7894 106.291 53.954 106.544 54.2833 106.72C54.6126 106.885 55.1242 107.055 55.818 107.232C56.5236 107.408 57.1057 107.59 57.5644 107.779C58.023 107.967 58.417 108.261 58.7462 108.661C59.0873 109.049 59.2637 109.566 59.2754 110.213C59.2754 110.777 59.1167 111.283 58.7992 111.73C58.4934 112.177 58.0465 112.53 57.4585 112.788C56.8823 113.035 56.2061 113.159 55.4299 113.159ZM62.0259 102.063C61.5908 102.063 61.2262 101.928 60.9322 101.657C60.65 101.375 60.5089 101.028 60.5089 100.617C60.5089 100.205 60.65 99.8641 60.9322 99.5936C61.2262 99.3114 61.5908 99.1702 62.0259 99.1702C62.461 99.1702 62.8197 99.3114 63.1019 99.5936C63.3959 99.8641 63.5429 100.205 63.5429 100.617C63.5429 101.028 63.3959 101.375 63.1019 101.657C62.8197 101.928 62.461 102.063 62.0259 102.063ZM63.2431 103.227V113H60.7735V103.227H63.2431ZM68.9817 103.069C69.7108 103.069 70.3518 103.216 70.9045 103.51C71.4572 103.792 71.8923 104.162 72.2098 104.621V103.227H74.6971V113.071C74.6971 113.976 74.5148 114.782 74.1502 115.487C73.7857 116.205 73.2388 116.769 72.5097 117.181C71.7806 117.604 70.8986 117.816 69.8637 117.816C68.476 117.816 67.3353 117.492 66.4416 116.846C65.5596 116.199 65.0598 115.317 64.9422 114.2H67.3941C67.5235 114.646 67.7998 114.999 68.2232 115.258C68.6583 115.528 69.1816 115.664 69.7932 115.664C70.5105 115.664 71.0926 115.446 71.5395 115.011C71.9864 114.588 72.2098 113.941 72.2098 113.071V111.554C71.8923 112.012 71.4513 112.394 70.8868 112.7C70.3341 113.006 69.6991 113.159 68.9817 113.159C68.1585 113.159 67.4059 112.947 66.7238 112.524C66.0417 112.1 65.5008 111.506 65.1009 110.742C64.7128 109.966 64.5188 109.078 64.5188 108.078C64.5188 107.091 64.7128 106.214 65.1009 105.45C65.5008 104.686 66.0358 104.098 66.7062 103.686C67.3882 103.274 68.1468 103.069 68.9817 103.069ZM72.2098 108.114C72.2098 107.514 72.0922 107.002 71.857 106.579C71.6218 106.144 71.3043 105.815 70.9045 105.591C70.5046 105.356 70.0754 105.238 69.6168 105.238C69.1581 105.238 68.7348 105.35 68.3467 105.574C67.9586 105.797 67.6411 106.126 67.3941 106.561C67.1589 106.985 67.0413 107.49 67.0413 108.078C67.0413 108.666 67.1589 109.184 67.3941 109.631C67.6411 110.066 67.9586 110.401 68.3467 110.636C68.7465 110.871 69.1699 110.989 69.6168 110.989C70.0754 110.989 70.5046 110.877 70.9045 110.654C71.3043 110.419 71.6218 110.089 71.857 109.666C72.0922 109.231 72.2098 108.713 72.2098 108.114ZM81.9953 103.086C83.1596 103.086 84.1004 103.457 84.8177 104.198C85.5351 104.927 85.8938 105.95 85.8938 107.267V113H83.4242V107.602C83.4242 106.826 83.2301 106.232 82.8421 105.821C82.454 105.397 81.9248 105.185 81.2545 105.185C80.5724 105.185 80.0314 105.397 79.6316 105.821C79.2435 106.232 79.0495 106.826 79.0495 107.602V113H76.5799V103.227H79.0495V104.445C79.3787 104.021 79.7962 103.692 80.3019 103.457C80.8193 103.21 81.3838 103.086 81.9953 103.086Z" fill="#0B0B0B"/>
<path d="M38.1959 179.498C38.1959 180.156 38.0372 180.773 37.7196 181.35C37.4139 181.926 36.9258 182.39 36.2555 182.743C35.597 183.096 34.762 183.272 33.7506 183.272H31.6868V188H29.2172V175.687H33.7506C34.7032 175.687 35.5146 175.852 36.185 176.181C36.8553 176.51 37.3551 176.963 37.6844 177.539C38.0254 178.116 38.1959 178.768 38.1959 179.498ZM33.6448 181.279C34.3269 181.279 34.8326 181.126 35.1618 180.821C35.4911 180.503 35.6558 180.062 35.6558 179.498C35.6558 178.298 34.9854 177.698 33.6448 177.698H31.6868V181.279H33.6448ZM41.8897 179.744C42.2072 179.227 42.6188 178.821 43.1245 178.527C43.6419 178.233 44.2299 178.086 44.8885 178.086V180.679H44.2358C43.4597 180.679 42.8717 180.862 42.4718 181.226C42.0837 181.591 41.8897 182.226 41.8897 183.131V188H39.4201V178.227H41.8897V179.744ZM50.3621 188.159C49.4213 188.159 48.5746 187.953 47.822 187.541C47.0693 187.118 46.4755 186.524 46.0403 185.76C45.617 184.995 45.4053 184.113 45.4053 183.114C45.4053 182.114 45.6229 181.232 46.058 180.468C46.5049 179.703 47.1105 179.115 47.8749 178.704C48.6393 178.28 49.4919 178.069 50.4327 178.069C51.3735 178.069 52.2261 178.28 52.9905 178.704C53.7549 179.115 54.3547 179.703 54.7898 180.468C55.2367 181.232 55.4601 182.114 55.4601 183.114C55.4601 184.113 55.2308 184.995 54.7721 185.76C54.3253 186.524 53.7137 187.118 52.9376 187.541C52.1732 187.953 51.3147 188.159 50.3621 188.159ZM50.3621 186.007C50.809 186.007 51.2265 185.901 51.6146 185.689C52.0144 185.466 52.3319 185.136 52.5671 184.701C52.8023 184.266 52.9199 183.737 52.9199 183.114C52.9199 182.185 52.673 181.473 52.1791 180.979C51.6969 180.474 51.103 180.221 50.3974 180.221C49.6918 180.221 49.0979 180.474 48.6158 180.979C48.1454 181.473 47.9102 182.185 47.9102 183.114C47.9102 184.043 48.1395 184.76 48.5981 185.266C49.0685 185.76 49.6565 186.007 50.3621 186.007ZM56.1074 183.078C56.1074 182.091 56.3014 181.214 56.6895 180.45C57.0894 179.686 57.6303 179.098 58.3124 178.686C58.9945 178.274 59.753 178.069 60.588 178.069C61.223 178.069 61.8286 178.21 62.4049 178.492C62.9811 178.763 63.4398 179.127 63.7808 179.586V174.946H66.2857V188H63.7808V186.554C63.475 187.036 63.0458 187.424 62.4931 187.718C61.9404 188.012 61.2994 188.159 60.5703 188.159C59.7471 188.159 58.9945 187.947 58.3124 187.524C57.6303 187.1 57.0894 186.506 56.6895 185.742C56.3014 184.966 56.1074 184.078 56.1074 183.078ZM63.7984 183.114C63.7984 182.514 63.6808 182.002 63.4456 181.579C63.2104 181.144 62.8929 180.815 62.4931 180.591C62.0932 180.356 61.664 180.238 61.2054 180.238C60.7467 180.238 60.3234 180.35 59.9353 180.574C59.5472 180.797 59.2297 181.126 58.9827 181.561C58.7475 181.985 58.6299 182.49 58.6299 183.078C58.6299 183.666 58.7475 184.184 58.9827 184.631C59.2297 185.066 59.5472 185.401 59.9353 185.636C60.3351 185.871 60.7585 185.989 61.2054 185.989C61.664 185.989 62.0932 185.877 62.4931 185.654C62.8929 185.419 63.2104 185.089 63.4456 184.666C63.6808 184.231 63.7984 183.713 63.7984 183.114ZM77.3942 178.227V188H74.907V186.765C74.5894 187.189 74.172 187.524 73.6545 187.771C73.1488 188.006 72.5961 188.123 71.9964 188.123C71.232 188.123 70.5558 187.965 69.9678 187.647C69.3798 187.318 68.9152 186.842 68.5742 186.218C68.2449 185.583 68.0803 184.831 68.0803 183.96V178.227H70.5499V183.608C70.5499 184.384 70.7439 184.984 71.132 185.407C71.5201 185.819 72.0493 186.024 72.7196 186.024C73.4017 186.024 73.9368 185.819 74.3248 185.407C74.7129 184.984 74.907 184.384 74.907 183.608V178.227H77.3942ZM78.6666 183.114C78.6666 182.102 78.8724 181.22 79.284 180.468C79.6956 179.703 80.266 179.115 80.9951 178.704C81.7242 178.28 82.5592 178.069 83.5 178.069C84.7113 178.069 85.7109 178.374 86.4988 178.986C87.2985 179.586 87.8335 180.432 88.104 181.526H85.4404C85.2993 181.103 85.0582 180.773 84.7171 180.538C84.3879 180.291 83.9763 180.168 83.4823 180.168C82.7767 180.168 82.2181 180.427 81.8065 180.944C81.3949 181.45 81.1891 182.173 81.1891 183.114C81.1891 184.043 81.3949 184.766 81.8065 185.283C82.2181 185.789 82.7767 186.042 83.4823 186.042C84.4819 186.042 85.1346 185.595 85.4404 184.701H88.104C87.8335 185.76 87.2985 186.601 86.4988 187.224C85.6991 187.847 84.6995 188.159 83.5 188.159C82.5592 188.159 81.7242 187.953 80.9951 187.541C80.266 187.118 79.6956 186.53 79.284 185.777C78.8724 185.013 78.6666 184.125 78.6666 183.114ZM92.2593 180.256V184.984C92.2593 185.313 92.3358 185.554 92.4887 185.707C92.6533 185.848 92.9238 185.918 93.3001 185.918H94.4467V188H92.8944C90.8129 188 89.7721 186.989 89.7721 184.966V180.256H88.6079V178.227H89.7721V175.811H92.2593V178.227H94.4467V180.256H92.2593Z" fill="#0B0B0B"/>
<path d="M28.6868 254.681V257.768H32.8322V259.726H28.6868V262.989H33.3614V265H26.2172V252.67H33.3614V254.681H28.6868ZM40.4919 255.086C41.6562 255.086 42.597 255.457 43.3143 256.198C44.0317 256.927 44.3904 257.95 44.3904 259.267V265H41.9208V259.602C41.9208 258.826 41.7267 258.232 41.3386 257.821C40.9506 257.397 40.4214 257.185 39.751 257.185C39.069 257.185 38.528 257.397 38.1282 257.821C37.7401 258.232 37.546 258.826 37.546 259.602V265H35.0764V255.227H37.546V256.445C37.8753 256.021 38.2928 255.692 38.7985 255.457C39.3159 255.21 39.8804 255.086 40.4919 255.086ZM50.0375 255.069C50.7666 255.069 51.4075 255.216 51.9603 255.51C52.513 255.792 52.9481 256.162 53.2656 256.621V255.227H55.7529V265.071C55.7529 265.976 55.5706 266.782 55.206 267.487C54.8415 268.205 54.2946 268.769 53.5655 269.181C52.8364 269.604 51.9544 269.816 50.9195 269.816C49.5318 269.816 48.3911 269.492 47.4973 268.846C46.6153 268.199 46.1155 267.317 45.9979 266.2H48.4499C48.5793 266.646 48.8556 266.999 49.279 267.258C49.7141 267.528 50.2374 267.664 50.8489 267.664C51.5663 267.664 52.1484 267.446 52.5953 267.011C53.0422 266.588 53.2656 265.941 53.2656 265.071V263.554C52.9481 264.012 52.5071 264.394 51.9426 264.7C51.3899 265.006 50.7549 265.159 50.0375 265.159C49.2143 265.159 48.4617 264.947 47.7796 264.524C47.0975 264.1 46.5565 263.506 46.1567 262.742C45.7686 261.966 45.5746 261.078 45.5746 260.078C45.5746 259.091 45.7686 258.214 46.1567 257.45C46.5565 256.686 47.0916 256.098 47.7619 255.686C48.444 255.274 49.2025 255.069 50.0375 255.069ZM53.2656 260.114C53.2656 259.514 53.148 259.002 52.9128 258.579C52.6776 258.144 52.3601 257.815 51.9603 257.591C51.5604 257.356 51.1312 257.238 50.6725 257.238C50.2139 257.238 49.7905 257.35 49.4025 257.574C49.0144 257.797 48.6969 258.126 48.4499 258.561C48.2147 258.985 48.0971 259.49 48.0971 260.078C48.0971 260.666 48.2147 261.184 48.4499 261.631C48.6969 262.066 49.0144 262.401 49.4025 262.636C49.8023 262.871 50.2257 262.989 50.6725 262.989C51.1312 262.989 51.5604 262.877 51.9603 262.654C52.3601 262.419 52.6776 262.089 52.9128 261.666C53.148 261.231 53.2656 260.713 53.2656 260.114ZM58.8881 254.063C58.453 254.063 58.0884 253.928 57.7944 253.657C57.5122 253.375 57.3711 253.028 57.3711 252.617C57.3711 252.205 57.5122 251.864 57.7944 251.594C58.0884 251.311 58.453 251.17 58.8881 251.17C59.3232 251.17 59.6819 251.311 59.9641 251.594C60.2581 251.864 60.4051 252.205 60.4051 252.617C60.4051 253.028 60.2581 253.375 59.9641 253.657C59.6819 253.928 59.3232 254.063 58.8881 254.063ZM60.1053 255.227V265H57.6357V255.227H60.1053ZM67.4315 255.086C68.5957 255.086 69.5365 255.457 70.2539 256.198C70.9713 256.927 71.3299 257.95 71.3299 259.267V265H68.8603V259.602C68.8603 258.826 68.6663 258.232 68.2782 257.821C67.8901 257.397 67.3609 257.185 66.6906 257.185C66.0085 257.185 65.4676 257.397 65.0677 257.821C64.6797 258.232 64.4856 258.826 64.4856 259.602V265H62.016V255.227H64.4856V256.445C64.8149 256.021 65.2324 255.692 65.7381 255.457C66.2555 255.21 66.82 255.086 67.4315 255.086ZM82.2338 259.902C82.2338 260.255 82.2103 260.572 82.1632 260.855H75.019C75.0778 261.56 75.3248 262.113 75.7599 262.513C76.195 262.913 76.7301 263.113 77.3652 263.113C78.2824 263.113 78.9351 262.719 79.3232 261.931H81.9868C81.7046 262.871 81.1636 263.648 80.364 264.259C79.5643 264.859 78.5823 265.159 77.4181 265.159C76.4773 265.159 75.6306 264.953 74.8779 264.541C74.137 264.118 73.5549 263.524 73.1316 262.76C72.72 261.995 72.5142 261.113 72.5142 260.114C72.5142 259.102 72.72 258.214 73.1316 257.45C73.5432 256.686 74.1194 256.098 74.8603 255.686C75.6012 255.274 76.4538 255.069 77.4181 255.069C78.3471 255.069 79.1762 255.269 79.9053 255.668C80.6462 256.068 81.2166 256.639 81.6164 257.38C82.028 258.109 82.2338 258.949 82.2338 259.902ZM79.676 259.196C79.6642 258.561 79.4349 258.056 78.988 257.679C78.5412 257.291 77.9943 257.097 77.3475 257.097C76.736 257.097 76.2186 257.285 75.7952 257.662C75.3836 258.026 75.1308 258.538 75.0367 259.196H79.676ZM92.5918 259.902C92.5918 260.255 92.5683 260.572 92.5212 260.855H85.377C85.4358 261.56 85.6828 262.113 86.1179 262.513C86.553 262.913 87.0881 263.113 87.7232 263.113C88.6404 263.113 89.2931 262.719 89.6812 261.931H92.3448C92.0626 262.871 91.5216 263.648 90.722 264.259C89.9223 264.859 88.9403 265.159 87.7761 265.159C86.8353 265.159 85.9886 264.953 85.2359 264.541C84.495 264.118 83.9129 263.524 83.4896 262.76C83.078 261.995 82.8722 261.113 82.8722 260.114C82.8722 259.102 83.078 258.214 83.4896 257.45C83.9012 256.686 84.4774 256.098 85.2183 255.686C85.9592 255.274 86.8118 255.069 87.7761 255.069C88.7051 255.069 89.5342 255.269 90.2633 255.668C91.0042 256.068 91.5746 256.639 91.9744 257.38C92.386 258.109 92.5918 258.949 92.5918 259.902ZM90.034 259.196C90.0222 258.561 89.7929 258.056 89.346 257.679C88.8992 257.291 88.3523 257.097 87.7055 257.097C87.094 257.097 86.5766 257.285 86.1532 257.662C85.7416 258.026 85.4888 258.538 85.3947 259.196H90.034ZM96.3348 256.744C96.6523 256.227 97.0639 255.821 97.5696 255.527C98.087 255.233 98.675 255.086 99.3336 255.086V257.679H98.6809C97.9047 257.679 97.3167 257.862 96.9169 258.226C96.5288 258.591 96.3348 259.226 96.3348 260.131V265H93.8652V255.227H96.3348V256.744ZM101.72 254.063C101.285 254.063 100.921 253.928 100.627 253.657C100.344 253.375 100.203 253.028 100.203 252.617C100.203 252.205 100.344 251.864 100.627 251.594C100.921 251.311 101.285 251.17 101.72 251.17C102.155 251.17 102.514 251.311 102.796 251.594C103.09 251.864 103.237 252.205 103.237 252.617C103.237 253.028 103.09 253.375 102.796 253.657C102.514 253.928 102.155 254.063 101.72 254.063ZM102.937 255.227V265H100.468V255.227H102.937ZM110.264 255.086C111.428 255.086 112.369 255.457 113.086 256.198C113.803 256.927 114.162 257.95 114.162 259.267V265H111.692V259.602C111.692 258.826 111.498 258.232 111.11 257.821C110.722 257.397 110.193 257.185 109.523 257.185C108.841 257.185 108.3 257.397 107.9 257.821C107.512 258.232 107.318 258.826 107.318 259.602V265H104.848V255.227H107.318V256.445C107.647 256.021 108.065 255.692 108.57 255.457C109.088 255.21 109.652 255.086 110.264 255.086ZM119.809 255.069C120.538 255.069 121.179 255.216 121.732 255.51C122.285 255.792 122.72 256.162 123.037 256.621V255.227H125.525V265.071C125.525 265.976 125.342 266.782 124.978 267.487C124.613 268.205 124.066 268.769 123.337 269.181C122.608 269.604 121.726 269.816 120.691 269.816C119.304 269.816 118.163 269.492 117.269 268.846C116.387 268.199 115.887 267.317 115.77 266.2H118.222C118.351 266.646 118.627 266.999 119.051 267.258C119.486 267.528 120.009 267.664 120.621 267.664C121.338 267.664 121.92 267.446 122.367 267.011C122.814 266.588 123.037 265.941 123.037 265.071V263.554C122.72 264.012 122.279 264.394 121.714 264.7C121.162 265.006 120.527 265.159 119.809 265.159C118.986 265.159 118.233 264.947 117.551 264.524C116.869 264.1 116.328 263.506 115.928 262.742C115.54 261.966 115.346 261.078 115.346 260.078C115.346 259.091 115.54 258.214 115.928 257.45C116.328 256.686 116.863 256.098 117.534 255.686C118.216 255.274 118.974 255.069 119.809 255.069ZM123.037 260.114C123.037 259.514 122.92 259.002 122.685 258.579C122.449 258.144 122.132 257.815 121.732 257.591C121.332 257.356 120.903 257.238 120.444 257.238C119.986 257.238 119.562 257.35 119.174 257.574C118.786 257.797 118.469 258.126 118.222 258.561C117.986 258.985 117.869 259.49 117.869 260.078C117.869 260.666 117.986 261.184 118.222 261.631C118.469 262.066 118.786 262.401 119.174 262.636C119.574 262.871 119.997 262.989 120.444 262.989C120.903 262.989 121.332 262.877 121.732 262.654C122.132 262.419 122.449 262.089 122.685 261.666C122.92 261.231 123.037 260.713 123.037 260.114Z" fill="#0B0B0B"/>
<circle cx="173" cy="258" r="22" transform="rotate(-90 173 258)" fill="#AC7FF4"/>
<circle cx="255" cy="258" r="22" transform="rotate(-90 255 258)" fill="#AC7FF4"/>
<circle cx="329" cy="258" r="22" transform="rotate(-90 329 258)" fill="#AC7FF4"/>
<circle cx="411" cy="258" r="22" transform="rotate(-90 411 258)" fill="#AC7FF4"/>
<circle cx="160" cy="182" r="22" transform="rotate(-90 160 182)" fill="#EFB2CB"/>
<circle cx="216" cy="182" r="22" transform="rotate(-90 216 182)" fill="#EFB2CB"/>
<circle cx="292" cy="182" r="22" transform="rotate(-90 292 182)" fill="#EFB2CB"/>
<circle cx="367" cy="182" r="22" transform="rotate(-90 367 182)" fill="#EFB2CB"/>
<circle cx="160" cy="106" r="22" transform="rotate(-90 160 106)" fill="#F06D41"/>
<circle cx="246" cy="106" r="22" transform="rotate(-90 246 106)" fill="#F06D41"/>
<circle cx="336" cy="106" r="22" transform="rotate(-90 336 106)" fill="#F06D41"/>
<circle cx="426" cy="106" r="22" transform="rotate(-90 426 106)" fill="#F06D41"/>
<circle cx="160" cy="30" r="22" transform="rotate(-90 160 30)" fill="#33B533"/>
<circle cx="216" cy="30" r="22" transform="rotate(-90 216 30)" fill="#33B533"/>
<circle cx="284" cy="30" r="22" transform="rotate(-90 284 30)" fill="#33B533"/>
<circle cx="389" cy="30" r="22" transform="rotate(-90 389 30)" fill="#33B533"/>
<defs>
<linearGradient id="paint0_linear_696_524" x1="30.5" y1="289" x2="30.5" y2="722" gradientUnits="userSpaceOnUse">
<stop stop-color="#AC7EF4" stop-opacity="0.56"/>
<stop offset="1" stop-color="#D9D9D9" stop-opacity="0"/>
</linearGradient>
<linearGradient id="paint1_linear_696_524" x1="30.5" y1="213" x2="30.5" y2="646" gradientUnits="userSpaceOnUse">
<stop stop-color="#EFB2CB"/>
<stop offset="1" stop-color="#D9D9D9" stop-opacity="0"/>
</linearGradient>
<linearGradient id="paint2_linear_696_524" x1="30.5" y1="137" x2="30.5" y2="570" gradientUnits="userSpaceOnUse">
<stop stop-color="#F06D41" stop-opacity="0.56"/>
<stop offset="1" stop-color="#D9D9D9" stop-opacity="0"/>
</linearGradient>
<linearGradient id="paint3_linear_696_524" x1="30.5" y1="61" x2="30.5" y2="494" gradientUnits="userSpaceOnUse">
<stop stop-color="#33B533" stop-opacity="0.56"/>
<stop offset="1" stop-color="#D9D9D9" stop-opacity="0"/>
</linearGradient>
</defs>
</svg>
