<svg width="157" height="163" viewBox="0 0 157 163" fill="none" xmlns="http://www.w3.org/2000/svg">
<path d="M45.9855 56.0459V118.422C45.9855 119.007 46.4589 119.481 47.0444 119.481H108.362C108.947 119.481 109.42 119.007 109.42 118.422V56.0459H45.9855Z" fill="#FFE483" stroke="#0D052C" stroke-width="0.533904" stroke-linecap="round" stroke-linejoin="round"/>
<path d="M75.7595 89.0714L109.42 56.0459H91.4314L75.7595 89.0714Z" fill="black" stroke="#0D052C" stroke-width="0.533904" stroke-linecap="round" stroke-linejoin="round"/>
<path d="M75.7595 89.0714L109.42 72.3282V56.0459L75.7595 89.0714Z" fill="#EF6C41" stroke="#0D052C" stroke-width="0.533904" stroke-miterlimit="10"/>
<path d="M91.4315 56.0459H75.7596V89.0714L91.4315 56.0459Z" fill="#18B6F6" stroke="#0D052C" stroke-width="0.533904" stroke-miterlimit="10"/>
<path d="M61.4457 56.0459L75.7596 89.0714V56.0459H61.4457Z" fill="#EFB2CB" stroke="#0D052C" stroke-width="0.533904" stroke-miterlimit="10"/>
<path d="M45.9856 56.0459L75.7596 89.0714L61.4457 56.0459H45.9856Z" fill="#33B533" stroke="#0D052C" stroke-width="0.533904" stroke-miterlimit="10"/>
<path d="M45.9856 72.5649L75.7596 89.0714L45.9856 56.0459V72.5649Z" fill="#EF6C41" stroke="#0D052C" stroke-width="0.533904" stroke-miterlimit="10"/>
<path d="M109.42 86.6673L75.7595 89.0716L109.42 72.3284V86.6673Z" fill="#F7C92E"/>
<path d="M109.42 86.6673L75.7595 89.0716L109.42 72.3284V86.6673Z" stroke="#0D052C" stroke-width="0.533904" stroke-miterlimit="10"/>
<path d="M45.9856 86.7297L75.7596 89.0717L45.9856 72.5652V86.7297Z" fill="#F7C92E"/>
<path d="M45.9856 86.7297L75.7596 89.0717L45.9856 72.5652V86.7297Z" stroke="#0D052C" stroke-width="0.533904" stroke-miterlimit="10"/>
<path d="M109.42 101.579L75.7595 89.0713L109.42 86.667V101.579Z" fill="#18B6F6" stroke="#0D052C" stroke-width="0.533904" stroke-miterlimit="10"/>
<path d="M75.7595 89.0715L109.097 119.194C109.308 118.995 109.42 118.721 109.42 118.422V101.579L75.7595 89.0715Z" fill="#AC7EF4" stroke="#0D052C" stroke-width="0.533904" stroke-miterlimit="10"/>
<path d="M45.9856 102.513L75.7596 89.0716L45.9856 86.7295V102.513Z" fill="black" stroke="#0D052C" stroke-width="0.533904" stroke-linecap="round" stroke-linejoin="round"/>
<path d="M75.7597 89.0715L91.9423 119.481H108.362C108.636 119.481 108.897 119.381 109.097 119.182L75.7597 89.0715Z" fill="#F7C92E"/>
<path d="M75.7597 89.0715L91.9423 119.481H108.362C108.636 119.481 108.897 119.381 109.097 119.182L75.7597 89.0715Z" stroke="#0D052C" stroke-width="0.533904" stroke-miterlimit="10"/>
<path d="M75.7596 119.481V89.0715L91.9423 119.481H75.7596Z" fill="black" stroke="#0D052C" stroke-width="0.533904" stroke-linecap="round" stroke-linejoin="round"/>
<path d="M61.1841 119.481L75.7596 89.0715V119.481H61.1841Z" fill="#EF6C41" stroke="#0D052C" stroke-width="0.533904" stroke-miterlimit="10"/>
<path d="M45.9856 102.513V118.422C45.9856 118.709 46.0977 118.97 46.297 119.169L75.7596 89.0715L45.9856 102.513Z" fill="#18B6F6" stroke="#0D052C" stroke-width="0.533904" stroke-miterlimit="10"/>
<path d="M46.297 119.169C46.4964 119.369 46.7704 119.481 47.057 119.481H61.1716L75.7596 89.0715L46.297 119.169Z" fill="#AC7EF4" stroke="#0D052C" stroke-width="0.533904" stroke-miterlimit="10"/>
<path d="M108.137 50.3474H47.281C46.571 50.3474 45.9854 50.9329 45.9854 51.643V56.0406H109.42V51.643C109.42 50.9205 108.847 50.3474 108.137 50.3474Z" fill="white" stroke="#0D052C" stroke-width="0.533904" stroke-linecap="round" stroke-linejoin="round"/>
<path d="M104.176 54.2359C103.612 54.2359 103.154 53.7786 103.154 53.2144C103.154 52.6502 103.612 52.1929 104.176 52.1929C104.74 52.1929 105.197 52.6502 105.197 53.2144C105.197 53.7786 104.74 54.2359 104.176 54.2359Z" fill="#FF5986" stroke="#0D052C" stroke-width="0.533904" stroke-linecap="round" stroke-linejoin="round"/>
<path d="M99.666 54.2232C99.1018 54.2232 98.6445 53.7659 98.6445 53.2017C98.6445 52.6375 99.1018 52.1802 99.666 52.1802C100.23 52.1802 100.688 52.6375 100.688 53.2017C100.688 53.7659 100.23 54.2232 99.666 54.2232Z" fill="#FFE483" stroke="#0D052C" stroke-width="0.533904" stroke-linecap="round" stroke-linejoin="round"/>
<path d="M95.1563 54.2359C94.5921 54.2359 94.1347 53.7786 94.1347 53.2144C94.1347 52.6502 94.5921 52.1929 95.1563 52.1929C95.7204 52.1929 96.1778 52.6502 96.1778 53.2144C96.1778 53.7786 95.7204 54.2359 95.1563 54.2359Z" fill="#53F2D4" stroke="#0D052C" stroke-width="0.533904" stroke-linecap="round" stroke-linejoin="round"/>
<path d="M82.5988 52.2034H57.1601C56.8362 52.2034 56.587 52.465 56.587 52.7764V53.636C56.587 53.9599 56.8486 54.2091 57.1601 54.2091H82.5988C82.9227 54.2091 83.1719 53.9475 83.1719 53.636V52.7764C83.1719 52.465 82.9103 52.2034 82.5988 52.2034Z" stroke="#0D052C" stroke-width="0.533904" stroke-linecap="round" stroke-linejoin="round"/>
<path d="M54.9735 94.8192L60.5604 94.7115C61.1987 94.6987 61.7384 95.2148 61.7511 95.8531L62.4297 130.627C62.4827 133.401 64.527 135.731 67.2705 136.149C67.3698 136.164 67.4571 136.176 67.5598 136.179C67.6984 136.193 67.837 136.206 67.979 136.208C68.0304 136.209 68.0697 136.208 68.1211 136.209C68.2511 136.207 68.3931 136.209 68.5232 136.207L68.6652 136.209L68.7166 136.21L27.7564 137.008C24.7259 137.052 22.2212 134.656 22.1491 131.631L21.4599 96.5298C21.4421 95.9549 21.9018 95.4769 22.4887 95.4625L52.5744 94.8751" fill="#EFB2CB"/>
<path d="M54.9735 94.8192L60.5604 94.7115C61.1987 94.6987 61.7384 95.2148 61.7511 95.8531L62.4297 130.627C62.4827 133.401 64.527 135.731 67.2705 136.149C67.3698 136.164 67.4571 136.176 67.5598 136.179C67.6984 136.193 67.837 136.206 67.979 136.208C68.0304 136.209 68.0697 136.208 68.1211 136.209C68.2511 136.207 68.3931 136.209 68.5232 136.207L68.6652 136.209L68.7166 136.21L27.7564 137.008C24.7259 137.052 22.2212 134.656 22.1491 131.631L21.4599 96.5298C21.4421 95.9549 21.9018 95.4769 22.4887 95.4625L52.5744 94.8751" stroke="#0D052C" stroke-width="0.533904" stroke-miterlimit="10"/>
<path d="M36.7688 108.884L57.0084 108.488" stroke="#0D052C" stroke-width="0.533904" stroke-linecap="round" stroke-linejoin="round"/>
<path d="M26.3751 109.088L35.1534 108.917" stroke="#0D052C" stroke-width="0.533904" stroke-linecap="round" stroke-linejoin="round"/>
<path d="M54.6508 113.089L57.1799 113.031" stroke="#0D052C" stroke-width="0.533904" stroke-linecap="round" stroke-linejoin="round"/>
<path d="M43.6736 113.296L52.9327 113.118" stroke="#0D052C" stroke-width="0.533904" stroke-linecap="round" stroke-linejoin="round"/>
<path d="M49.6087 117.976L57.2678 117.823" stroke="#0D052C" stroke-width="0.533904" stroke-linecap="round" stroke-linejoin="round"/>
<path d="M43.7616 118.087L47.8119 118.008" stroke="#0D052C" stroke-width="0.533904" stroke-linecap="round" stroke-linejoin="round"/>
<path d="M54.83 122.66L57.289 122.621" stroke="#0D052C" stroke-width="0.533904" stroke-linecap="round" stroke-linejoin="round"/>
<path d="M43.8616 122.881L53.1241 122.692" stroke="#0D052C" stroke-width="0.533904" stroke-linecap="round" stroke-linejoin="round"/>
<path d="M38.5933 127.652L57.3751 127.281" stroke="#0D052C" stroke-width="0.533904" stroke-linecap="round" stroke-linejoin="round"/>
<path d="M26.7417 127.882L37.1473 127.681" stroke="#0D052C" stroke-width="0.533904" stroke-linecap="round" stroke-linejoin="round"/>
<path d="M69.7186 102.43L70.26 129.9C70.2888 131.074 69.4139 132.055 68.2435 132.163C67.6498 132.201 67.0729 131.998 66.6412 131.603C66.2095 131.209 65.9555 130.644 65.9411 130.057L65.3939 102.016L69.1961 101.945C69.3381 101.947 69.4665 101.996 69.5693 102.09C69.6721 102.184 69.7202 102.288 69.7186 102.43Z" fill="#AC7EF4" stroke="#0D052C" stroke-width="0.533904" stroke-miterlimit="10"/>
<path d="M67.9872 123.865L68.1155 129.562" stroke="#0D052C" stroke-width="0.533904" stroke-linecap="round" stroke-linejoin="round"/>
<path d="M67.5886 104.091L67.9757 122.813" stroke="#0D052C" stroke-width="0.533904" stroke-linecap="round" stroke-linejoin="round"/>
<path d="M72.8062 104.84C73.0936 104.831 73.3369 105.068 73.3458 105.356L73.8328 130.284C73.8947 133.345 71.5587 135.958 68.5643 136.194C68.4189 136.205 68.2735 136.215 68.1314 136.213C68.0801 136.212 68.0407 136.214 67.9894 136.212C67.8474 136.21 67.7087 136.197 67.5701 136.183C67.4708 136.168 67.3682 136.165 67.2809 136.153C64.5373 135.735 62.493 133.405 62.4401 130.632L61.8253 99.1393L65.056 99.0738C65.1347 99.0702 65.2032 99.1027 65.2529 99.1557C65.3026 99.2086 65.3335 99.2822 65.3404 99.3489L65.9387 130.034C65.9531 130.62 66.2071 131.185 66.6388 131.58C67.0705 131.974 67.6594 132.181 68.2411 132.139C69.3995 132.028 70.2864 131.05 70.2576 129.876L69.7637 104.881L72.8062 104.84Z" fill="#18B6F6" stroke="#0D052C" stroke-width="0.533904" stroke-miterlimit="10"/>
<path d="M71.1906 133.017C71.8314 132.266 72.1674 131.313 72.1474 130.336L71.6443 104.872" stroke="#0D052C" stroke-width="0.533904" stroke-linecap="round" stroke-linejoin="round"/>
<path d="M63.6502 106.795L64.1169 130.474C64.1607 132.688 65.9904 134.452 68.2166 134.411C68.9729 134.393 69.7085 134.175 70.3446 133.76" stroke="#0D052C" stroke-width="0.533904" stroke-linecap="round" stroke-linejoin="round"/>
<path d="M63.51 99.7737L63.6158 105.14" stroke="#0D052C" stroke-width="0.533904" stroke-linecap="round" stroke-linejoin="round"/>
<path d="M39.0435 113.437L39.0762 114.961L35.3239 119.502L32.9397 117.685L28.5979 122.977L26.9998 121.72L24.0996 124.768C23.9216 124.756 23.7931 124.616 23.7929 124.434L23.5832 113.741C23.5829 113.56 23.7333 113.395 23.9147 113.395L38.7095 113.109C38.8823 113.093 39.0467 113.243 39.0435 113.437Z" fill="#F7C92E"/>
<path d="M39.0435 113.437L39.0762 114.961L35.3239 119.502L32.9397 117.685L28.5979 122.977L26.9998 121.72L24.0996 124.768C23.9216 124.756 23.7931 124.616 23.7929 124.434L23.5832 113.741C23.5829 113.56 23.7333 113.395 23.9147 113.395L38.7095 113.109C38.8823 113.093 39.0467 113.243 39.0435 113.437Z" stroke="#0D052C" stroke-width="0.533904" stroke-miterlimit="10"/>
<path d="M39.0797 114.949L39.2653 124.133C39.2655 124.315 39.1151 124.479 38.9338 124.479L24.0997 124.768L26.9999 121.72L28.598 122.977L32.9431 117.672L35.3273 119.49L39.0797 114.949Z" fill="#EF6C41" stroke="#0D052C" stroke-width="0.533904" stroke-miterlimit="10"/>
<path d="M28.0383 114.775L32.5181 114.689" stroke="#0D052C" stroke-width="0.533904" stroke-linecap="round" stroke-linejoin="round"/>
<path d="M28.0746 116.559L31.4354 116.492" stroke="#0D052C" stroke-width="0.533904" stroke-linecap="round" stroke-linejoin="round"/>
<path d="M32.1429 102.945L32.1867 105.25L30.248 105.282L30.1459 100.085L32.3088 100.039L33.6172 102.315L33.5733 100.01L35.5121 99.979L35.6108 105.188L33.4513 105.221L32.1429 102.945Z" fill="white" stroke="#0D052C" stroke-width="0.533904" stroke-linecap="round" stroke-linejoin="round"/>
<path d="M38.4084 103.639L40.6346 103.599L40.6655 105.084L36.4971 105.168L36.3984 99.9592L40.4094 99.8824L40.4402 101.368L38.356 101.41L38.3685 101.776L40.3072 101.744L40.3381 103.23L38.3959 103.273L38.4084 103.639Z" fill="white" stroke="#0D052C" stroke-width="0.533904" stroke-linecap="round" stroke-linejoin="round"/>
<path d="M46.1556 102.631L46.5046 99.7638L48.5255 99.7169L47.5017 104.956L45.3422 104.99L44.7401 102.37L44.2316 105.023L42.0721 105.057L40.8629 99.8819L42.8684 99.8435L43.327 102.694L43.8369 99.8081L45.5429 99.7753L46.1556 102.631Z" fill="white" stroke="#0D052C" stroke-width="0.533904" stroke-linecap="round" stroke-linejoin="round"/>
<path d="M50.7117 103.369C50.7904 103.366 50.8725 103.35 50.9255 103.301C50.9751 103.263 51.0007 103.218 51.0058 103.155C51.0108 103.092 50.9492 103.035 50.8567 102.996C50.7523 102.954 50.6359 102.907 50.4835 102.851C50.3311 102.795 50.1668 102.735 49.9938 102.66C49.8209 102.585 49.6548 102.486 49.5041 102.378C49.3448 102.255 49.2197 102.103 49.1254 101.934C49.0139 101.734 48.9606 101.511 48.962 101.279C48.9566 101.07 49.0026 100.863 49.1051 100.685C49.2023 100.479 49.3408 100.311 49.5237 100.169C49.7254 100.006 49.9409 99.8863 50.1855 99.8004C50.4728 99.7008 50.7585 99.6526 51.07 99.6505C51.3694 99.645 51.6707 99.6789 51.9463 99.7573C52.1585 99.8306 52.3794 99.9193 52.5814 100.029C52.7715 100.134 52.9394 100.273 53.1038 100.423L52.4121 101.535C52.3145 101.468 52.2135 101.413 52.1125 101.359C52.0114 101.304 51.907 101.261 51.7992 101.231C51.6793 101.197 51.5561 101.175 51.426 101.176C51.3473 101.18 51.2652 101.195 51.2122 101.245C51.1627 101.283 51.137 101.327 51.132 101.391C51.1269 101.454 51.1766 101.507 51.281 101.55C51.3855 101.592 51.5019 101.638 51.6543 101.695C51.8066 101.751 51.971 101.811 52.1439 101.886C52.3168 101.961 52.4829 102.06 52.6336 102.168C52.7929 102.291 52.918 102.443 53.0124 102.612C53.1238 102.812 53.1771 103.034 53.1757 103.267C53.1811 103.476 53.1351 103.683 53.0327 103.861C52.9354 104.067 52.797 104.234 52.6141 104.377C52.4123 104.54 52.1969 104.66 51.9523 104.745C51.6649 104.845 51.3792 104.893 51.0678 104.895C50.7136 104.911 50.361 104.876 50.0135 104.777C49.7619 104.705 49.5171 104.61 49.2945 104.482C49.0924 104.372 48.904 104.215 48.7463 104.041L49.4312 102.953C49.5374 103.035 49.659 103.109 49.784 103.17C49.909 103.232 50.0528 103.273 50.1846 103.31C50.3643 103.361 50.5423 103.373 50.7117 103.369Z" fill="white" stroke="#0D052C" stroke-width="0.533904" stroke-linecap="round" stroke-linejoin="round"/>
<path d="M97.5499 28.1412L91.965 28.1245C91.3132 28.1226 90.7919 28.6408 90.7988 29.2839L90.6865 64.0703C90.6782 66.8539 88.6716 69.2176 85.9306 69.6763C85.8425 69.6937 85.7367 69.711 85.6398 69.7195C85.4988 69.7367 85.3666 69.7451 85.2168 69.7535C85.164 69.7533 85.1287 69.7532 85.0759 69.753C84.9349 69.7526 84.8116 69.7522 84.6707 69.7518L84.5297 69.7514L84.4769 69.7513L125.447 69.8643C128.478 69.8557 130.943 67.4229 130.969 64.3927L131.074 29.2803C131.075 28.6989 130.61 28.2307 130.037 28.2378L99.9459 28.1483" fill="#EFB2CB"/>
<path d="M97.5499 28.1412L91.965 28.1245C91.3131 28.1226 90.7919 28.6408 90.7988 29.2839L90.6865 64.0703C90.6782 66.8539 88.6716 69.2176 85.9306 69.6763C85.8425 69.6937 85.7367 69.711 85.6398 69.7195C85.4988 69.7367 85.3666 69.7451 85.2168 69.7535C85.164 69.7533 85.1287 69.7532 85.0759 69.753C84.9349 69.7526 84.8116 69.7522 84.6707 69.7518L84.5297 69.7514L84.4769 69.7513L125.447 69.8643C128.478 69.8557 130.943 67.4229 130.969 64.3927L131.074 29.2803C131.075 28.6989 130.61 28.2307 130.037 28.2378L99.9459 28.1483" stroke="#0D052C" stroke-width="0.533904" stroke-miterlimit="10"/>
<path d="M128.758 31.9336L128.762 30.3656C128.764 29.9604 128.43 29.6422 128.033 29.6322L126.413 29.6274" stroke="#0D052C" stroke-width="0.533904" stroke-linecap="round" stroke-linejoin="round"/>
<path d="M115.978 41.9021L95.7352 41.8419" stroke="#0D052C" stroke-width="0.533904" stroke-linecap="round" stroke-linejoin="round"/>
<path d="M126.381 41.9243L117.599 41.907" stroke="#0D052C" stroke-width="0.533904" stroke-linecap="round" stroke-linejoin="round"/>
<path d="M98.1705 46.3945L95.6511 46.387" stroke="#0D052C" stroke-width="0.533904" stroke-linecap="round" stroke-linejoin="round"/>
<path d="M109.146 46.4272L99.8794 46.3997" stroke="#0D052C" stroke-width="0.533904" stroke-linecap="round" stroke-linejoin="round"/>
<path d="M103.292 51.1931L95.6369 51.1792" stroke="#0D052C" stroke-width="0.533904" stroke-linecap="round" stroke-linejoin="round"/>
<path d="M109.132 51.2195L105.089 51.1986" stroke="#0D052C" stroke-width="0.533904" stroke-linecap="round" stroke-linejoin="round"/>
<path d="M98.142 55.9788L95.6931 55.9715" stroke="#0D052C" stroke-width="0.533904" stroke-linecap="round" stroke-linejoin="round"/>
<path d="M109.118 56.0115L99.8597 55.9751" stroke="#0D052C" stroke-width="0.533904" stroke-linecap="round" stroke-linejoin="round"/>
<path d="M114.46 60.696L95.6792 60.6402" stroke="#0D052C" stroke-width="0.533904" stroke-linecap="round" stroke-linejoin="round"/>
<path d="M126.325 60.7402L115.922 60.7005" stroke="#0D052C" stroke-width="0.533904" stroke-linecap="round" stroke-linejoin="round"/>
<path d="M82.9277 35.9945L82.8548 63.4696C82.8425 64.6411 83.7382 65.6128 84.9095 65.6956C85.4996 65.7237 86.0816 65.5141 86.5057 65.1101C86.9297 64.7061 87.178 64.1431 87.1798 63.5441L87.2544 35.4876L83.449 35.4763C83.3081 35.4759 83.1846 35.5284 83.0785 35.6338C82.9902 35.7216 82.9281 35.8536 82.9277 35.9945Z" fill="#AC7EF4" stroke="#0D052C" stroke-width="0.533904" stroke-miterlimit="10"/>
<path d="M85.0046 57.3979L84.9876 63.1061" stroke="#0D052C" stroke-width="0.533904" stroke-linecap="round" stroke-linejoin="round"/>
<path d="M85.0899 37.622L85.0166 56.3497" stroke="#0D052C" stroke-width="0.533904" stroke-linecap="round" stroke-linejoin="round"/>
<path d="M79.8731 38.4569C79.5735 38.456 79.3438 38.6844 79.3429 38.9839L79.2776 63.922C79.2685 66.9875 81.6481 69.558 84.6426 69.7431C84.7923 69.7523 84.9332 69.7527 85.0742 69.7531C85.127 69.7533 85.1623 69.7534 85.2151 69.7536C85.3561 69.754 85.4971 69.7368 85.6381 69.7196C85.735 69.7111 85.8407 69.6938 85.9289 69.6764C88.6611 69.2088 90.6677 66.8452 90.6848 64.0704L90.7697 32.5785L87.5456 32.5689C87.4751 32.5687 87.3958 32.5949 87.3427 32.6475C87.2897 32.7002 87.2543 32.7706 87.2629 32.8499L87.1716 63.5402C87.1698 64.1392 86.9303 64.6935 86.4974 65.1062C86.0734 65.5102 85.4914 65.7199 84.9013 65.6917C83.7388 65.6001 82.8431 64.6285 82.8466 63.4657L82.9209 38.466L79.8731 38.4569Z" fill="#18B6F6" stroke="#0D052C" stroke-width="0.533904" stroke-miterlimit="10"/>
<path d="M81.974 66.5991C81.3244 65.8573 80.966 64.9136 80.9689 63.927L81.0359 38.4604" stroke="#0D052C" stroke-width="0.533904" stroke-linecap="round" stroke-linejoin="round"/>
<path d="M89.0731 40.2547L89.0027 63.9508C88.9961 66.1706 87.1937 67.9623 84.9739 67.9557C84.2163 67.9534 83.477 67.7398 82.8439 67.3327" stroke="#0D052C" stroke-width="0.533904" stroke-linecap="round" stroke-linejoin="round"/>
<path d="M89.094 33.2252L89.0781 38.5987" stroke="#0D052C" stroke-width="0.533904" stroke-linecap="round" stroke-linejoin="round"/>
<path d="M113.78 46.4871L113.776 48.0198L117.612 52.4974L119.961 50.6369L124.394 55.8562L125.966 54.5747L128.925 57.5698C129.101 57.5527 129.234 57.4033 129.235 57.2271L129.266 46.5331C129.267 46.3393 129.118 46.1891 128.924 46.1885L114.125 46.1445C113.931 46.144 113.781 46.2933 113.78 46.4871Z" fill="#F7C92E"/>
<path d="M113.78 46.4871L113.776 48.0198L117.612 52.4974L119.961 50.6369L124.394 55.8562L125.966 54.5747L128.925 57.5698C129.101 57.5527 129.234 57.4033 129.235 57.2271L129.266 46.5331C129.267 46.3393 129.118 46.1891 128.924 46.1885L114.125 46.1445C113.931 46.144 113.781 46.2933 113.78 46.4871Z" stroke="#0D052C" stroke-width="0.533904" stroke-miterlimit="10"/>
<path d="M113.776 48.002L113.748 57.1809C113.748 57.3747 113.897 57.5249 114.091 57.5254L128.925 57.5696L125.974 54.5657L124.402 55.8472L119.978 50.6191L117.63 52.4796L113.776 48.002Z" fill="#EF6C41" stroke="#0D052C" stroke-width="0.533904" stroke-miterlimit="10"/>
<path d="M124.812 47.6531L120.328 47.6309" stroke="#0D052C" stroke-width="0.533904" stroke-linecap="round" stroke-linejoin="round"/>
<path d="M124.806 49.4324L121.441 49.4224" stroke="#0D052C" stroke-width="0.533904" stroke-linecap="round" stroke-linejoin="round"/>
<path d="M120.509 35.8771L120.502 38.185L122.44 38.1908L122.456 32.9935L120.298 32.9783L119.022 35.2824L119.029 32.9745L117.091 32.9687L117.076 38.1836L119.243 38.1901L120.509 35.8771Z" fill="white" stroke="#0D052C" stroke-width="0.533904" stroke-linecap="round" stroke-linejoin="round"/>
<path d="M114.261 36.6777L112.033 36.6799L112.028 38.1598L116.195 38.181L116.21 32.9661L112.193 32.9542L112.18 34.4428L114.268 34.4579L114.267 34.8278L112.329 34.8221L112.324 36.302L114.262 36.3077L114.261 36.6777Z" fill="white" stroke="#0D052C" stroke-width="0.533904" stroke-linecap="round" stroke-linejoin="round"/>
<path d="M106.486 35.8L106.089 32.9447L104.08 32.9387L105.184 38.1481L107.342 38.1457L107.905 35.5135L108.461 38.1578L110.61 38.1642L111.744 32.9615L109.736 32.9555L109.313 35.8172L108.767 32.9526L107.058 32.9475L106.486 35.8Z" fill="white" stroke="#0D052C" stroke-width="0.533904" stroke-linecap="round" stroke-linejoin="round"/>
<path d="M101.955 36.6147C101.876 36.6232 101.797 36.5966 101.735 36.5524C101.683 36.517 101.665 36.4641 101.656 36.4024C101.657 36.3495 101.701 36.288 101.807 36.2531C101.904 36.2093 102.027 36.1568 102.177 36.1132C102.318 36.0608 102.486 35.9996 102.653 35.9208C102.83 35.8509 102.989 35.7457 103.139 35.6316C103.298 35.5087 103.421 35.3505 103.51 35.1746C103.616 34.9811 103.67 34.7523 103.662 34.5144C103.662 34.303 103.61 34.109 103.514 33.9238C103.409 33.7296 103.268 33.553 103.092 33.4116C102.899 33.2524 102.67 33.1284 102.424 33.0572C102.142 32.9683 101.843 32.9146 101.544 32.9137C101.244 32.9128 100.944 32.9471 100.662 33.0344C100.451 33.1042 100.23 33.2005 100.036 33.3056C99.8507 33.4196 99.6741 33.56 99.5239 33.7093L100.225 34.8037C100.314 34.7335 100.42 34.6809 100.525 34.6284C100.622 34.567 100.728 34.5321 100.834 34.4972C100.949 34.4535 101.072 34.4362 101.204 34.4454C101.284 34.4369 101.363 34.4635 101.424 34.5077C101.477 34.5431 101.494 34.596 101.503 34.6577C101.503 34.7106 101.459 34.7721 101.353 34.807C101.256 34.8508 101.132 34.9033 100.983 34.9469C100.841 34.9993 100.674 35.0605 100.497 35.148C100.33 35.2268 100.162 35.3232 100.012 35.4373C99.8531 35.5602 99.7382 35.7096 99.6408 35.8766C99.5433 36.079 99.481 36.299 99.4891 36.5369C99.4884 36.7483 99.5407 36.9422 99.6371 37.1275C99.7422 37.3216 99.8826 37.4982 100.058 37.6397C100.252 37.7988 100.48 37.9228 100.727 37.994C101.008 38.083 101.308 38.1367 101.616 38.1288C101.977 38.1387 102.321 38.0957 102.665 37.9998C102.912 37.9301 103.159 37.8251 103.379 37.6936C103.582 37.5797 103.768 37.4305 103.918 37.246L103.216 36.1692C103.11 36.2569 102.987 36.327 102.872 36.3884C102.74 36.4496 102.608 36.4933 102.475 36.5369C102.299 36.6069 102.123 36.624 101.955 36.6147Z" fill="white" stroke="#0D052C" stroke-width="0.533904" stroke-linecap="round" stroke-linejoin="round"/>
<path d="M66.2859 72.4722C66.261 72.3726 66.2361 72.2978 66.2236 72.2604C65.8997 70.8029 66.8216 69.3578 68.2791 69.0339C68.8522 68.9093 69.4128 68.9716 69.9111 69.1834C69.8114 67.0531 71.2441 65.0972 73.3993 64.6114C75.6915 64.1006 77.9588 65.4585 78.644 67.6635C78.7187 67.8006 79.0302 68.3238 79.8524 68.9965C80.3258 69.3827 80.7493 69.6194 81.0732 69.7564C90.591 71.5753 97.7916 79.9469 97.7916 90.0003C97.7916 101.387 88.5604 110.618 77.174 110.618C65.7876 110.618 56.5564 101.387 56.5564 90.0003C56.5439 82.5879 60.4432 76.1099 66.2859 72.4722Z" fill="#F7C92E" stroke="#0D052C" stroke-width="0.711872" stroke-miterlimit="10"/>
<path d="M77.6972 86.7614C77.7097 86.2008 78.1208 85.6901 78.6564 85.6901C79.5659 85.6776 80.9736 86.4749 82.5059 86.3752C83.7267 86.288 84.6611 85.3039 85.558 85.1668C86.0937 85.0796 86.8412 85.416 87.0031 86.1261C87.5264 88.3934 84.4244 89.7264 81.7584 89.5769C79.0426 89.4274 77.6723 88.0072 77.6972 86.7614Z" fill="#F4F3E9"/>
<path d="M82.1695 89.9007C84.0506 89.9007 85.9068 89.228 86.7788 88.1816C87.3021 87.5587 87.4889 86.8237 87.3021 86.0513C87.1027 85.1917 86.2182 84.7432 85.4957 84.8553C85.0472 84.9301 84.6237 85.1668 84.1752 85.4159C83.6395 85.7149 83.0914 86.0264 82.4685 86.0638C81.6213 86.126 80.7991 85.8893 80.0766 85.6776C79.5284 85.5156 79.0675 85.391 78.6439 85.391H78.6315C77.9463 85.391 77.3732 86.0139 77.3608 86.7738C77.3359 88.2065 78.8308 89.7388 81.721 89.9007C81.8829 89.9007 82.0324 89.9007 82.1695 89.9007ZM85.7324 85.4658C86.0937 85.4658 86.592 85.69 86.7041 86.1883C86.8411 86.7738 86.7041 87.2971 86.3055 87.7705C85.4832 88.7422 83.6146 89.3526 81.7708 89.2529C79.3042 89.1159 77.9837 87.8577 78.0086 86.7614C78.021 86.3378 78.3076 86.0015 78.6564 86.0015H78.6688C78.9927 86.0015 79.4288 86.126 79.9271 86.2631C80.6995 86.4873 81.5715 86.7365 82.5308 86.6742C83.2907 86.6244 83.926 86.2631 84.4991 85.9516C84.8977 85.7274 85.2715 85.5156 85.6078 85.4658C85.6452 85.4658 85.6826 85.4658 85.7324 85.4658Z" fill="black"/>
<path d="M82.5308 81.4044C82.5308 81.4044 82.8423 80.7566 83.4527 80.5075C84.0631 80.2583 84.7234 80.4826 84.7234 80.4826" fill="#F4F3E9"/>
<path d="M82.5308 81.716C82.6429 81.716 82.755 81.6537 82.8173 81.5416C82.8173 81.5292 83.0914 80.9935 83.5772 80.7942C84.0631 80.5948 84.6237 80.7817 84.6237 80.7817C84.7856 80.8315 84.9601 80.7568 85.0223 80.5824C85.0846 80.4204 84.9974 80.246 84.8355 80.1837C84.7981 80.1713 84.0506 79.9097 83.3405 80.2086C82.6305 80.5076 82.2692 81.2302 82.2567 81.2676C82.182 81.417 82.2443 81.6039 82.4062 81.6911C82.4311 81.7036 82.481 81.716 82.5308 81.716Z" fill="black"/>
<path d="M77.9711 83.1361C77.9711 83.1361 78.2825 82.4883 78.8929 82.2392C79.5034 81.99 80.1636 82.2143 80.1636 82.2143" fill="#F4F3E9"/>
<path d="M77.9588 83.4477C78.0709 83.4477 78.183 83.3854 78.2453 83.2733C78.2453 83.2609 78.5194 82.7252 79.0052 82.5258C79.4911 82.3265 80.0517 82.5134 80.0517 82.5134C80.2136 82.5757 80.388 82.4885 80.4503 82.3265C80.5126 82.1646 80.4254 81.9902 80.2635 81.9279C80.2261 81.9154 79.4786 81.6538 78.7685 81.9528C78.0584 82.2518 77.6972 82.9743 77.6847 83.0117C77.6099 83.1612 77.6722 83.3481 77.8342 83.4353C77.8716 83.4353 77.9214 83.4477 77.9588 83.4477Z" fill="black"/>
</svg>
