<?xml version="1.0" encoding="UTF-8" standalone="no"?>
<!DOCTYPE svg PUBLIC "-//W3C//DTD SVG 1.1//EN" "http://www.w3.org/Graphics/SVG/1.1/DTD/svg11.dtd">
<svg width="100%" height="100%" viewBox="0 0 145 162" version="1.1" xmlns="http://www.w3.org/2000/svg" xmlns:xlink="http://www.w3.org/1999/xlink" xml:space="preserve" xmlns:serif="http://www.serif.com/" style="fill-rule:evenodd;clip-rule:evenodd;stroke-linejoin:round;stroke-miterlimit:2;">
    <g transform="matrix(1,0,0,1,-0.0517585,-0.546264)">
        <path d="M109.953,29.052C110.044,28.722 110.11,28.466 110.143,28.293C110.517,26.621 110.424,24.878 109.874,23.256C109.324,21.633 108.338,20.193 107.024,19.093C105.71,17.994 104.12,17.277 102.425,17.02C100.731,16.764 99,16.979 97.42,17.642C97.588,13.892 96.384,10.21 94.033,7.284C91.681,4.358 88.344,2.389 84.646,1.746C80.948,1.103 77.143,1.83 73.942,3.791C70.741,5.752 68.365,8.812 67.258,12.399C66.166,14.178 64.749,15.735 63.08,16.99C61.809,18.059 60.391,18.941 58.87,19.607C42.573,22.747 27.885,31.479 17.342,44.295C6.798,57.112 1.062,73.208 1.123,89.803C1.183,106.399 7.038,122.453 17.675,135.191C28.312,147.93 43.064,156.554 59.383,159.574C75.702,162.594 92.563,159.821 107.054,151.732C121.546,143.644 132.758,130.749 138.754,115.274C144.75,99.799 145.154,82.716 139.895,66.976C134.637,51.235 124.046,37.824 109.953,29.061L109.953,29.052Z" style="fill:rgb(246,175,58);fill-rule:nonzero;"/>
    </g>
    <g transform="matrix(1,0,0,1,-0.0517585,-0.546264)">
        <path d="M72.352,161.843C54.378,161.845 37.048,155.15 23.742,143.066C10.436,130.982 2.109,114.374 0.385,96.483C-1.339,78.592 3.664,60.7 14.417,46.297C25.17,31.895 40.903,22.014 58.547,18.583C59.933,17.954 61.227,17.14 62.394,16.164C63.919,15.008 65.228,13.59 66.258,11.978C67.445,8.308 69.879,5.17 73.138,3.107C76.397,1.044 80.275,0.187 84.099,0.684C87.924,1.181 91.454,3.002 94.077,5.829C96.699,8.656 98.25,12.313 98.459,16.164C100.183,15.737 101.988,15.757 103.702,16.222C105.416,16.688 106.983,17.583 108.255,18.823C109.526,20.063 110.46,21.607 110.968,23.309C111.476,25.011 111.541,26.815 111.158,28.549C121.417,35.074 129.862,44.084 135.71,54.743C141.558,65.402 144.621,77.366 144.613,89.524C144.618,108.695 137.008,127.084 123.457,140.646C109.906,154.208 91.524,161.832 72.352,161.843ZM82.045,2.574C78.972,2.578 75.981,3.563 73.507,5.385C71.033,7.207 69.205,9.771 68.29,12.704C68.272,12.773 68.247,12.839 68.215,12.903C67.055,14.818 65.545,16.498 63.765,17.857C62.41,18.986 60.904,19.92 59.29,20.631L59.075,20.697C43.026,23.789 28.561,32.389 18.177,45.011C7.794,57.633 2.144,73.485 2.205,89.829C2.265,106.174 8.032,121.984 18.508,134.529C28.985,147.074 43.513,155.566 59.585,158.54C75.657,161.513 92.262,158.78 106.533,150.813C120.804,142.846 131.845,130.145 137.749,114.905C143.652,99.664 144.048,82.84 138.867,67.338C133.687,51.837 123.255,38.631 109.374,30.002C109.177,29.875 109.025,29.687 108.942,29.467C108.858,29.247 108.848,29.006 108.912,28.78C109.011,28.442 109.069,28.21 109.094,28.095C109.427,26.615 109.345,25.072 108.859,23.635C108.372,22.198 107.5,20.923 106.336,19.949C105.172,18.976 103.763,18.342 102.263,18.117C100.763,17.892 99.23,18.085 97.832,18.674C97.663,18.744 97.48,18.77 97.299,18.75C97.119,18.73 96.946,18.665 96.796,18.56C96.647,18.456 96.527,18.315 96.447,18.152C96.367,17.988 96.329,17.807 96.337,17.625C96.504,14.247 95.468,10.919 93.414,8.231C91.36,5.544 88.42,3.671 85.117,2.945C84.109,2.712 83.079,2.587 82.045,2.574Z" style="fill:rgb(30,18,13);fill-rule:nonzero;"/>
    </g>
    <g transform="matrix(1,0,0,1,-0.0517585,-0.546264)">
        <path d="M70.528,78.452C70.561,77.528 70.235,76.628 69.62,75.939C69.004,75.249 68.147,74.825 67.225,74.753C64.096,74.753 59.216,77.461 53.932,77.106C49.713,76.825 46.501,73.423 43.38,72.936C42.289,72.791 41.182,73.045 40.264,73.652C39.346,74.259 38.679,75.178 38.385,76.239C36.569,84.083 47.269,88.673 56.55,88.161C65.83,87.65 70.602,82.704 70.528,78.452Z" style="fill:rgb(244,243,233);fill-rule:nonzero;"/>
    </g>
    <g transform="matrix(1,0,0,1,-0.0517585,-0.546264)">
        <path d="M55.071,89.251C48.556,89.251 42.157,86.915 39.135,83.323C38.264,82.335 37.643,81.151 37.325,79.872C37.007,78.593 37.002,77.256 37.311,75.975C37.666,74.647 38.494,73.495 39.639,72.735C40.783,71.975 42.166,71.659 43.528,71.846C45.15,72.217 46.695,72.868 48.094,73.77C49.943,74.794 51.85,75.859 53.989,76C56.904,76.198 59.769,75.38 62.246,74.654C63.845,74.101 65.511,73.762 67.199,73.646L67.249,73.646C68.454,73.719 69.583,74.254 70.402,75.14C71.221,76.027 71.665,77.196 71.641,78.402C71.724,83.356 66.58,88.665 56.59,89.218C56.061,89.243 55.566,89.251 55.071,89.251ZM42.76,73.944C42.004,73.931 41.264,74.166 40.654,74.613C40.044,75.06 39.598,75.695 39.383,76.421C39.147,77.377 39.149,78.378 39.39,79.333C39.63,80.289 40.101,81.172 40.762,81.903C43.594,85.272 50.034,87.377 56.4,87.022C64.937,86.543 69.478,82.225 69.421,78.402C69.464,77.756 69.252,77.118 68.831,76.625C68.41,76.133 67.812,75.825 67.166,75.768C65.689,75.896 64.233,76.206 62.832,76.693C60.165,77.461 57.135,78.344 53.84,78.113C51.223,77.94 49.002,76.701 47.045,75.636C45.859,74.885 44.56,74.327 43.198,73.985C43.053,73.961 42.907,73.947 42.76,73.944Z" style="fill-rule:nonzero;"/>
    </g>
    <g transform="matrix(1,0,0,1,-0.0517585,-0.546264)">
        <path d="M53.85,60.972C53.648,60.973 53.451,60.916 53.28,60.81C53.109,60.703 52.972,60.551 52.884,60.37C52.295,59.253 51.375,58.347 50.25,57.777C49.079,57.368 47.807,57.35 46.625,57.728C46.357,57.813 46.067,57.79 45.815,57.665C45.564,57.539 45.371,57.321 45.277,57.056C45.184,56.791 45.197,56.5 45.315,56.245C45.432,55.989 45.645,55.79 45.907,55.688C47.594,55.141 49.416,55.173 51.084,55.779C52.691,56.556 54.004,57.834 54.824,59.42C54.946,59.679 54.962,59.976 54.868,60.246C54.774,60.516 54.577,60.739 54.32,60.865C54.174,60.937 54.013,60.974 53.85,60.972Z" style="fill-rule:nonzero;"/>
    </g>
    <g transform="matrix(1,0,0,1,-0.0517585,-0.546264)">
        <path d="M69.602,66.959C69.4,66.959 69.201,66.903 69.029,66.797C68.857,66.69 68.718,66.537 68.628,66.356C68.052,65.232 67.132,64.321 66.003,63.755C64.831,63.35 63.56,63.333 62.378,63.705C62.11,63.791 61.82,63.768 61.568,63.643C61.317,63.517 61.124,63.299 61.03,63.034C60.937,62.769 60.95,62.478 61.068,62.222C61.185,61.967 61.398,61.768 61.66,61.666C63.348,61.122 65.17,61.157 66.836,61.765C68.446,62.536 69.758,63.816 70.568,65.406C70.65,65.57 70.689,65.753 70.68,65.936C70.671,66.119 70.616,66.297 70.519,66.452C70.422,66.608 70.287,66.736 70.127,66.825C69.966,66.913 69.786,66.959 69.602,66.959Z" style="fill-rule:nonzero;"/>
    </g>
</svg>
