<?xml version="1.0" encoding="UTF-8" standalone="no"?>
<!DOCTYPE svg PUBLIC "-//W3C//DTD SVG 1.1//EN" "http://www.w3.org/Graphics/SVG/1.1/DTD/svg11.dtd">
<svg width="100%" height="100%" viewBox="0 0 1469 149" version="1.1" xmlns="http://www.w3.org/2000/svg" xmlns:xlink="http://www.w3.org/1999/xlink" xml:space="preserve" xmlns:serif="http://www.serif.com/" style="fill-rule:evenodd;clip-rule:evenodd;stroke-linejoin:round;stroke-miterlimit:2;">
    <g transform="matrix(1,0,0,1,15.4618,-0.391993)">
        <path d="M58.59,80.054C65.946,81.425 71.992,85.103 76.729,91.087C81.467,97.071 83.835,103.928 83.835,111.657C83.835,118.638 82.09,124.809 78.599,130.17C75.233,135.406 70.309,139.52 63.826,142.512C57.344,145.504 49.676,147 40.825,147L-15.462,147L-15.462,16.474L38.394,16.474C47.246,16.474 54.85,17.908 61.208,20.775C67.691,23.642 72.553,27.632 75.794,32.743C79.16,37.854 80.843,43.651 80.843,50.134C80.843,57.739 78.786,64.097 74.672,69.208C70.683,74.319 65.322,77.935 58.59,80.054ZM10.718,70.33L34.654,70.33C40.888,70.33 45.687,68.959 49.053,66.216C52.419,63.349 54.102,59.297 54.102,54.061C54.102,48.825 52.419,44.773 49.053,41.906C45.687,39.039 40.888,37.605 34.654,37.605L10.718,37.605L10.718,70.33ZM37.085,125.682C43.443,125.682 48.368,124.186 51.858,121.194C55.474,118.202 57.281,113.963 57.281,108.478C57.281,102.868 55.411,98.505 51.671,95.388C47.931,92.147 42.882,90.526 36.524,90.526L10.718,90.526L10.718,125.682L37.085,125.682ZM196.891,43.402L196.891,147L170.524,147L170.524,133.91C167.158,138.398 162.733,141.951 157.247,144.569C151.887,147.062 146.027,148.309 139.669,148.309C131.566,148.309 124.398,146.626 118.164,143.26C111.931,139.769 107.007,134.72 103.391,128.113C99.901,121.381 98.155,113.402 98.155,104.177L98.155,43.402L124.335,43.402L124.335,100.437C124.335,108.665 126.392,115.023 130.506,119.511C134.62,123.874 140.23,126.056 147.336,126.056C154.567,126.056 160.239,123.874 164.353,119.511C168.467,115.023 170.524,108.665 170.524,100.437L170.524,43.402L196.891,43.402ZM230.389,31.06C225.776,31.06 221.912,29.626 218.795,26.759C215.803,23.767 214.307,20.089 214.307,15.726C214.307,11.363 215.803,7.747 218.795,4.88C221.912,1.888 225.776,0.392 230.389,0.392C235.002,0.392 238.804,1.888 241.796,4.88C244.913,7.747 246.471,11.363 246.471,15.726C246.471,20.089 244.913,23.767 241.796,26.759C238.804,29.626 235.002,31.06 230.389,31.06ZM243.292,43.402L243.292,147L217.112,147L217.112,43.402L243.292,43.402ZM289.728,8.62L289.728,147L263.548,147L263.548,8.62L289.728,8.62ZM340.465,64.907L340.465,115.023C340.465,118.514 341.275,121.069 342.896,122.69C344.641,124.186 347.509,124.934 351.498,124.934L363.653,124.934L363.653,147L347.197,147C325.131,147 314.098,136.279 314.098,114.836L314.098,64.907L301.756,64.907L301.756,43.402L314.098,43.402L314.098,17.783L340.465,17.783L340.465,43.402L363.653,43.402L363.653,64.907L340.465,64.907ZM559.438,43.402L529.144,147L500.907,147L482.02,74.631L463.133,147L434.709,147L404.228,43.402L430.782,43.402L449.108,122.316L468.93,43.402L496.606,43.402L516.054,122.129L534.38,43.402L559.438,43.402ZM581.27,31.06C576.657,31.06 572.792,29.626 569.676,26.759C566.684,23.767 565.188,20.089 565.188,15.726C565.188,11.363 566.684,7.747 569.676,4.88C572.792,1.888 576.657,0.392 581.27,0.392C585.882,0.392 589.685,1.888 592.677,4.88C595.793,7.747 597.352,11.363 597.352,15.726C597.352,20.089 595.793,23.767 592.677,26.759C589.685,29.626 585.882,31.06 581.27,31.06ZM594.173,43.402L594.173,147L567.993,147L567.993,43.402L594.173,43.402ZM644.91,64.907L644.91,115.023C644.91,118.514 645.72,121.069 647.341,122.69C649.086,124.186 651.953,124.934 655.943,124.934L668.098,124.934L668.098,147L651.642,147C629.576,147 618.543,136.279 618.543,114.836L618.543,64.907L606.201,64.907L606.201,43.402L618.543,43.402L618.543,17.783L644.91,17.783L644.91,43.402L668.098,43.402L668.098,64.907L644.91,64.907ZM739.662,41.906C747.516,41.906 754.497,43.651 760.606,47.142C766.714,50.508 771.452,55.557 774.818,62.289C778.308,68.896 780.054,76.875 780.054,86.225L780.054,147L753.874,147L753.874,89.778C753.874,81.55 751.817,75.254 747.703,70.891C743.589,66.403 737.979,64.159 730.873,64.159C723.642,64.159 717.907,66.403 713.669,70.891C709.555,75.254 707.498,81.55 707.498,89.778L707.498,147L681.318,147L681.318,8.62L707.498,8.62L707.498,56.305C710.864,51.817 715.352,48.326 720.962,45.833C726.572,43.215 732.805,41.906 739.662,41.906ZM912.34,80.054C919.695,81.425 925.742,85.103 930.479,91.087C935.216,97.071 937.585,103.928 937.585,111.657C937.585,118.638 935.84,124.809 932.349,130.17C928.983,135.406 924.059,139.52 917.576,142.512C911.093,145.504 903.426,147 894.575,147L838.288,147L838.288,16.474L892.144,16.474C900.995,16.474 908.6,17.908 914.958,20.775C921.441,23.642 926.303,27.632 929.544,32.743C932.91,37.854 934.593,43.651 934.593,50.134C934.593,57.739 932.536,64.097 928.422,69.208C924.433,74.319 919.072,77.935 912.34,80.054ZM864.468,70.33L888.404,70.33C894.637,70.33 899.437,68.959 902.803,66.216C906.169,63.349 907.852,59.297 907.852,54.061C907.852,48.825 906.169,44.773 902.803,41.906C899.437,39.039 894.637,37.605 888.404,37.605L864.468,37.605L864.468,70.33ZM890.835,125.682C897.193,125.682 902.117,124.186 905.608,121.194C909.223,118.202 911.031,113.963 911.031,108.478C911.031,102.868 909.161,98.505 905.421,95.388C901.681,92.147 896.632,90.526 890.274,90.526L864.468,90.526L864.468,125.682L890.835,125.682ZM1050.64,43.402L1050.64,147L1024.27,147L1024.27,133.91C1020.91,138.398 1016.48,141.951 1011,144.569C1005.64,147.062 999.777,148.309 993.419,148.309C985.316,148.309 978.148,146.626 971.914,143.26C965.681,139.769 960.757,134.72 957.141,128.113C953.651,121.381 951.905,113.402 951.905,104.177L951.905,43.402L978.085,43.402L978.085,100.437C978.085,108.665 980.142,115.023 984.256,119.511C988.37,123.874 993.98,126.056 1001.09,126.056C1008.32,126.056 1013.99,123.874 1018.1,119.511C1022.22,115.023 1024.27,108.665 1024.27,100.437L1024.27,43.402L1050.64,43.402ZM1084.14,31.06C1079.53,31.06 1075.66,29.626 1072.54,26.759C1069.55,23.767 1068.06,20.089 1068.06,15.726C1068.06,11.363 1069.55,7.747 1072.54,4.88C1075.66,1.888 1079.53,0.392 1084.14,0.392C1088.75,0.392 1092.55,1.888 1095.55,4.88C1098.66,7.747 1100.22,11.363 1100.22,15.726C1100.22,20.089 1098.66,23.767 1095.55,26.759C1092.55,29.626 1088.75,31.06 1084.14,31.06ZM1097.04,43.402L1097.04,147L1070.86,147L1070.86,43.402L1097.04,43.402ZM1143.48,8.62L1143.48,147L1117.3,147L1117.3,8.62L1143.48,8.62ZM1157,94.827C1157,84.355 1159.06,75.067 1163.17,66.964C1167.41,58.861 1173.15,52.627 1180.38,48.264C1187.61,43.901 1195.65,41.719 1204.5,41.719C1211.23,41.719 1217.65,43.215 1223.76,46.207C1229.87,49.074 1234.73,52.939 1238.35,57.801L1238.35,8.62L1264.9,8.62L1264.9,147L1238.35,147L1238.35,131.666C1235.11,136.777 1230.56,140.891 1224.7,144.008C1218.84,147.125 1212.04,148.683 1204.31,148.683C1195.59,148.683 1187.61,146.439 1180.38,141.951C1173.15,137.463 1167.41,131.167 1163.17,123.064C1159.06,114.836 1157,105.424 1157,94.827ZM1238.53,95.201C1238.53,88.843 1237.29,83.42 1234.79,78.932C1232.3,74.319 1228.93,70.829 1224.7,68.46C1220.46,65.967 1215.91,64.72 1211.04,64.72C1206.18,64.72 1201.69,65.904 1197.58,68.273C1193.47,70.642 1190.1,74.132 1187.48,78.745C1184.99,83.233 1183.74,88.594 1183.74,94.827C1183.74,101.06 1184.99,106.546 1187.48,111.283C1190.1,115.896 1193.47,119.449 1197.58,121.942C1201.82,124.435 1206.31,125.682 1211.04,125.682C1215.91,125.682 1220.46,124.498 1224.7,122.129C1228.93,119.636 1232.3,116.145 1234.79,111.657C1237.29,107.044 1238.53,101.559 1238.53,95.201ZM1381.17,92.957C1381.17,96.697 1380.92,100.063 1380.42,103.055L1304.68,103.055C1305.31,110.535 1307.92,116.394 1312.54,120.633C1317.15,124.872 1322.82,126.991 1329.55,126.991C1339.28,126.991 1346.2,122.815 1350.31,114.462L1378.55,114.462C1375.56,124.435 1369.82,132.663 1361.34,139.146C1352.87,145.504 1342.46,148.683 1330.11,148.683C1320.14,148.683 1311.16,146.501 1303.19,142.138C1295.33,137.65 1289.16,131.354 1284.67,123.251C1280.31,115.148 1278.13,105.798 1278.13,95.201C1278.13,84.48 1280.31,75.067 1284.67,66.964C1289.04,58.861 1295.15,52.627 1303,48.264C1310.85,43.901 1319.89,41.719 1330.11,41.719C1339.96,41.719 1348.75,43.838 1356.48,48.077C1364.34,52.316 1370.38,58.362 1374.62,66.216C1378.98,73.945 1381.17,82.859 1381.17,92.957ZM1354.05,85.477C1353.93,78.745 1351.49,73.384 1346.76,69.395C1342.02,65.281 1336.22,63.224 1329.37,63.224C1322.88,63.224 1317.4,65.219 1312.91,69.208C1308.55,73.073 1305.87,78.496 1304.87,85.477L1354.05,85.477ZM1420.84,59.484C1424.21,53.999 1428.57,49.698 1433.93,46.581C1439.42,43.464 1445.65,41.906 1452.63,41.906L1452.63,69.395L1445.72,69.395C1437.49,69.395 1431.25,71.327 1427.02,75.192C1422.9,79.057 1420.84,85.789 1420.84,95.388L1420.84,147L1394.66,147L1394.66,43.402L1420.84,43.402L1420.84,59.484Z" style="fill:white;fill-rule:nonzero;"/>
    </g>
</svg>
