<svg width="75" height="117" viewBox="0 0 75 117" fill="none" xmlns="http://www.w3.org/2000/svg">
<path d="M74.3413 64.2081V20.7581C74.3413 19.6078 74.1147 18.4687 73.6743 17.406C73.2339 16.3433 72.5884 15.3778 71.7747 14.5647C70.9611 13.7516 69.9952 13.1067 68.9322 12.667C67.8692 12.2273 66.73 12.0014 65.5797 12.0022H53.6508L44.0049 2.3389C42.7853 1.11952 41.2038 0.327648 39.4968 0.0816684C37.7898 -0.164311 36.049 0.148823 34.5348 0.974252C33.0205 1.79968 31.8141 3.09307 31.0959 4.66103C30.3777 6.22899 30.1863 7.98729 30.5503 9.67305L29.4984 8.66743C28.6163 7.78383 27.5134 7.15277 26.3047 6.83987C25.0959 6.52696 23.8254 6.54367 22.6253 6.88825C21.4252 7.23282 20.3394 7.89266 19.4807 8.79915C18.6221 9.70564 18.022 10.8256 17.743 12.0426H8.75013C7.60056 12.0426 6.46226 12.2692 5.40027 12.7093C4.33827 13.1493 3.37343 13.7944 2.56083 14.6075C1.74823 15.4207 1.1038 16.386 0.664408 17.4482C0.225014 18.5105 -0.000757383 19.649 1.90883e-06 20.7985V55.4754C1.90883e-06 57.7976 0.922487 60.0247 2.56454 61.6667C4.20659 63.3088 6.43371 64.2313 8.75591 64.2313C9.90624 64.2305 11.0454 64.4564 12.1084 64.8961C13.1714 65.3358 14.1373 65.9806 14.951 66.7938C15.7647 67.6069 16.4101 68.5724 16.8505 69.6351C17.2909 70.6978 17.5176 71.8368 17.5176 72.9872V107.901C17.5176 109.051 17.7442 110.19 18.1846 111.253C18.625 112.316 19.2705 113.281 20.0842 114.094C20.8978 114.907 21.8638 115.552 22.9268 115.992C23.9897 116.432 25.1289 116.658 26.2793 116.657H65.5797C66.73 116.657 67.869 116.43 68.9317 115.99C69.9944 115.549 70.9599 114.904 71.7731 114.09C72.5862 113.277 73.231 112.311 73.6707 111.248C74.1104 110.185 74.3363 109.046 74.3355 107.895L74.3413 64.2081Z" fill="#AC7FF4"/>
<path d="M45.1032 75.4724C44.8893 75.4724 44.6812 75.4724 44.4674 75.4724C40.9535 75.2817 37.8961 73.5767 36.8501 71.236C36.8056 71.1448 36.7799 71.0455 36.7745 70.9441C36.7691 70.8428 36.7842 70.7413 36.8188 70.6459C36.8535 70.5505 36.9069 70.463 36.976 70.3887C37.0451 70.3143 37.1285 70.2546 37.2212 70.2131C37.3138 70.1716 37.4139 70.1492 37.5154 70.1472C37.6169 70.1451 37.7178 70.1635 37.812 70.2013C37.9062 70.239 37.9919 70.2953 38.064 70.3669C38.136 70.4384 38.1929 70.5237 38.2314 70.6176C39.0347 72.4266 41.6355 73.8079 44.5483 73.9639C46.0683 74.0448 49.825 73.8657 51.8536 70.3922C51.9594 70.2287 52.1242 70.1123 52.3137 70.0671C52.5032 70.022 52.7028 70.0516 52.871 70.1498C53.0392 70.2481 53.1631 70.4074 53.2169 70.5946C53.2706 70.7819 53.2502 70.9826 53.1597 71.1551C51.553 73.883 48.5708 75.4724 45.1032 75.4724Z" fill="black"/>
<path d="M52.2522 62.8442C50.5319 62.7669 48.8771 62.1615 47.5131 61.1103C47.4351 61.0485 47.3701 60.9718 47.3221 60.8847C47.274 60.7975 47.2437 60.7017 47.2329 60.6028C47.2222 60.5039 47.2312 60.4038 47.2594 60.3084C47.2877 60.2129 47.3346 60.1241 47.3975 60.0469C47.5233 59.8907 47.7059 59.7908 47.9053 59.7692C48.1047 59.7475 48.3045 59.8058 48.4609 59.9313C48.4609 59.9313 50.3566 61.4166 52.4372 61.3242C53.8493 61.1686 55.1732 60.5604 56.2112 59.5903C56.2829 59.519 56.3679 59.4625 56.4615 59.424C56.5551 59.3855 56.6553 59.3659 56.7565 59.3662C56.8576 59.3664 56.9578 59.3866 57.0511 59.4256C57.1445 59.4645 57.2293 59.5215 57.3006 59.5932C57.3719 59.6649 57.4285 59.75 57.4669 59.8436C57.5054 59.9372 57.525 60.0374 57.5248 60.1385C57.5245 60.2397 57.5043 60.3398 57.4654 60.4332C57.4264 60.5265 57.3694 60.6113 57.2977 60.6827C55.9916 61.9086 54.3135 62.6633 52.5296 62.8269L52.2522 62.8442Z" fill="black"/>
<path d="M37.0696 62.9366C35.3494 62.8582 33.695 62.253 32.3304 61.2028C32.2113 61.068 32.1441 60.8952 32.1408 60.7154C32.1374 60.5356 32.1983 60.3605 32.3123 60.2214C32.4263 60.0823 32.5862 59.9884 32.7631 59.9564C32.9401 59.9244 33.1227 59.9565 33.2782 60.0469C33.3071 60.0469 35.1739 61.538 37.2545 61.4397C38.668 61.2891 39.9934 60.6802 41.0285 59.7059C41.1718 59.5649 41.3653 59.4866 41.5663 59.4882C41.7674 59.4898 41.9596 59.5713 42.1006 59.7146C42.2416 59.8579 42.3199 60.0514 42.3183 60.2524C42.3167 60.4535 42.2352 60.6456 42.0919 60.7867C40.7821 62.0105 39.1029 62.7647 37.3181 62.9309L37.0696 62.9366Z" fill="black"/>
</svg>
